<svg id="Layer_1" data-name="Layer 1" xmlns="http://www.w3.org/2000/svg" xmlns:xlink="http://www.w3.org/1999/xlink" viewBox="0 0 400 400"><defs><style>.cls-1{fill:none;}.cls-2{clip-path:url(#clip-path);}.cls-3{fill:#00eed5;}.cls-4{fill:#01edd5;}.cls-5{fill:#02ecd5;}.cls-6{fill:#03ebd5;}.cls-7{fill:#04ead5;}.cls-8{fill:#05ead5;}.cls-9{fill:#06e9d5;}.cls-10{fill:#07e8d5;}.cls-11{fill:#09e7d5;}.cls-12{fill:#0ae6d5;}.cls-13{fill:#0be5d5;}.cls-14{fill:#0ce4d5;}.cls-15{fill:#0de3d5;}.cls-16{fill:#0ee3d5;}.cls-17{fill:#0fe2d5;}.cls-18{fill:#10e1d6;}.cls-19{fill:#11e0d6;}.cls-20{fill:#12dfd6;}.cls-21{fill:#13ded6;}.cls-22{fill:#14ddd6;}.cls-23{fill:#15dcd6;}.cls-24{fill:#16dcd6;}.cls-25{fill:#17dbd6;}.cls-26{fill:#19dad6;}.cls-27{fill:#1ad9d6;}.cls-28{fill:#1bd8d6;}.cls-29{fill:#1cd7d6;}.cls-30{fill:#1dd6d6;}.cls-31{fill:#1ed5d6;}.cls-32{fill:#1fd5d6;}.cls-33{fill:#20d4d6;}.cls-34{fill:#21d3d6;}.cls-35{fill:#22d2d6;}.cls-36{fill:#23d1d6;}.cls-37{fill:#24d0d6;}.cls-38{fill:#25cfd6;}.cls-39{fill:#26cfd6;}.cls-40{fill:#27ced6;}.cls-41{fill:#28cdd6;}.cls-42{fill:#29ccd6;}.cls-43{fill:#2bcbd6;}.cls-44{fill:#2ccad6;}.cls-45{fill:#2dc9d6;}.cls-46{fill:#2ec8d6;}.cls-47{fill:#2fc8d7;}.cls-48{fill:#30c7d7;}.cls-49{fill:#31c6d7;}.cls-50{fill:#32c5d7;}.cls-51{fill:#33c4d7;}.cls-52{fill:#34c3d7;}.cls-53{fill:#35c2d7;}.cls-54{fill:#36c1d7;}.cls-55{fill:#37c1d7;}.cls-56{fill:#38c0d7;}.cls-57{fill:#39bfd7;}.cls-58{fill:#3abed7;}.cls-59{fill:#3bbdd7;}.cls-60{fill:#3cbcd7;}.cls-61{fill:#3dbbd7;}.cls-62{fill:#3fbbd7;}.cls-63{fill:#40bad7;}.cls-64{fill:#41b9d7;}.cls-65{fill:#42b8d7;}.cls-66{fill:#43b7d7;}.cls-67{fill:#44b6d7;}.cls-68{fill:#45b5d7;}.cls-69{fill:#46b5d7;}.cls-70{fill:#47b4d7;}.cls-71{fill:#48b3d7;}.cls-72{fill:#49b2d7;}.cls-73{fill:#4ab1d7;}.cls-74{fill:#4bb0d7;}.cls-75{fill:#4cafd7;}.cls-76{fill:#4dafd8;}.cls-77{fill:#4eaed8;}.cls-78{fill:#4fadd8;}.cls-79{fill:#50acd8;}.cls-80{fill:#51abd8;}.cls-81{fill:#52aad8;}.cls-82{fill:#53a9d8;}.cls-83{fill:#54a9d8;}.cls-84{fill:#55a8d8;}.cls-85{fill:#56a7d8;}.cls-86{fill:#58a6d8;}.cls-87{fill:#59a5d8;}.cls-88{fill:#5aa4d8;}.cls-89{fill:#5ba3d8;}.cls-90{fill:#5ca3d8;}.cls-91{fill:#5da2d8;}.cls-92{fill:#5ea1d8;}.cls-93{fill:#5fa0d8;}.cls-94{fill:#609fd8;}.cls-95{fill:#619ed8;}.cls-96{fill:#629ed8;}.cls-97{fill:#639dd8;}.cls-98{fill:#649cd8;}.cls-99{fill:#659bd8;}.cls-100{fill:#669ad8;}.cls-101{fill:#6799d8;}.cls-102{fill:#6898d8;}.cls-103{fill:#6998d8;}.cls-104{fill:#6a97d8;}.cls-105{fill:#6b96d9;}.cls-106{fill:#6c95d9;}.cls-107{fill:#6d94d9;}.cls-108{fill:#6e93d9;}.cls-109{fill:#6f93d9;}.cls-110{fill:#7092d9;}.cls-111{fill:#7191d9;}.cls-112{fill:#7290d9;}.cls-113{fill:#738fd9;}.cls-114{fill:#748ed9;}.cls-115{fill:#758ed9;}.cls-116{fill:#768dd9;}.cls-117{fill:#778cd9;}.cls-118{fill:#788bd9;}.cls-119{fill:#798ad9;}.cls-120{fill:#7a89d9;}.cls-121{fill:#7b88d9;}.cls-122{fill:#7c88d9;}.cls-123{fill:#7d87d9;}.cls-124{fill:#7e86d9;}.cls-125{fill:#7f85d9;}.cls-126{fill:#8184d9;}.cls-127{fill:#8283d9;}.cls-128{fill:#8383d9;}.cls-129{fill:#8482d9;}.cls-130{fill:#8581d9;}.cls-131{fill:#8680d9;}.cls-132{fill:#877fd9;}.cls-133{fill:#887fd9;}.cls-134{fill:#897ed9;}.cls-135{fill:#8a7dda;}.cls-136{fill:#8b7cda;}.cls-137{fill:#8c7bda;}.cls-138{fill:#8d7ada;}.cls-139{fill:#8e7ada;}.cls-140{fill:#8f79da;}.cls-141{fill:#9078da;}.cls-142{fill:#9177da;}.cls-143{fill:#9276da;}.cls-144{fill:#9375da;}.cls-145{fill:#9475da;}.cls-146{fill:#9574da;}.cls-147{fill:#9673da;}.cls-148{fill:#9772da;}.cls-149{fill:#9871da;}.cls-150{fill:#9971da;}.cls-151{fill:#9a70da;}.cls-152{fill:#9b6fda;}.cls-153{fill:#9c6eda;}.cls-154{fill:#9d6dda;}.cls-155{fill:#9e6cda;}.cls-156{fill:#9f6bda;}.cls-157{fill:#a06ada;}.cls-158{fill:#a169da;}.cls-159{fill:#a268da;}.cls-160{fill:#a368da;}.cls-161{fill:#a467da;}.cls-162{fill:#a566da;}.cls-163{fill:#a665da;}.cls-164{fill:#a764da;}.cls-165{fill:#a864db;}.cls-166{fill:#a963db;}.cls-167{fill:#aa62db;}.cls-168{fill:#ab61db;}.cls-169{fill:#ac60db;}.cls-170{fill:#ad60db;}.cls-171{fill:#ae5fdb;}.cls-172{fill:#af5edb;}.cls-173{fill:#b05ddb;}.cls-174{fill:#b15cdb;}.cls-175{fill:#b25cdb;}.cls-176{fill:#b35bdb;}.cls-177{fill:#b45adb;}.cls-178{fill:#b559db;}.cls-179{fill:#b658db;}.cls-180{fill:#b758db;}.cls-181{fill:#b857db;}.cls-182{fill:#b956db;}.cls-183{fill:#ba55db;}.cls-184{fill:#bb55db;}.cls-185{fill:#bb54db;}.cls-186{fill:#bc53db;}.cls-187{fill:#bd52db;}.cls-188{fill:#be52db;}.cls-189{fill:#bf51db;}.cls-190{fill:#c050db;}.cls-191{fill:#c14fdb;}.cls-192{fill:#c24edb;}.cls-193{fill:#c34edb;}.cls-194{fill:#c44ddb;}.cls-195{fill:#c54cdb;}.cls-196{fill:#c64bdb;}.cls-197{fill:#c74bdb;}.cls-198{fill:#c84adc;}.cls-199{fill:#c849dc;}.cls-200{fill:#c948dc;}.cls-201{fill:#ca48dc;}.cls-202{fill:#cb47dc;}.cls-203{fill:#cc46dc;}.cls-204{fill:#cd45dc;}.cls-205{fill:#ce45dc;}.cls-206{fill:#cf44dc;}.cls-207{fill:#d043dc;}.cls-208{fill:#d142dc;}.cls-209{fill:#d241dc;}.cls-210{fill:#d341dc;}.cls-211{fill:#d440dc;}.cls-212{fill:#d53fdc;}.cls-213{fill:#d63edc;}.cls-214{clip-path:url(#clip-path-2);}.cls-215{fill:#fff;}</style><clipPath id="clip-path"><polygon class="cls-1" points="198.18 182.1 73.75 182.1 54.42 291.18 126.72 236.65 126.71 236.64 198.18 182.72 198.18 182.1"/></clipPath><clipPath id="clip-path-2"><polygon class="cls-1" points="7.63 77.39 73.75 169.35 198.18 169.35 7.63 77.39"/></clipPath></defs><title>logo-soar</title><g class="cls-2"><rect class="cls-3" x="54.42" y="182.1" width="21.37" height="109.09"/><rect class="cls-3" x="75.79" y="182.1" width="0.57" height="109.09"/><rect class="cls-4" x="76.37" y="182.1" width="0.57" height="109.09"/><rect class="cls-5" x="76.94" y="182.1" width="0.57" height="109.09"/><rect class="cls-6" x="77.51" y="182.1" width="0.57" height="109.09"/><rect class="cls-7" x="78.08" y="182.1" width="0.57" height="109.09"/><rect class="cls-8" x="78.65" y="182.1" width="0.57" height="109.09"/><rect class="cls-9" x="79.23" y="182.1" width="0.57" height="109.09"/><rect class="cls-10" x="79.8" y="182.1" width="0.57" height="109.09"/><rect class="cls-11" x="80.37" y="182.1" width="0.57" height="109.09"/><rect class="cls-12" x="80.94" y="182.1" width="0.57" height="109.09"/><rect class="cls-13" x="81.51" y="182.1" width="0.57" height="109.09"/><rect class="cls-14" x="82.08" y="182.1" width="0.57" height="109.09"/><rect class="cls-15" x="82.66" y="182.1" width="0.57" height="109.09"/><rect class="cls-16" x="83.23" y="182.1" width="0.57" height="109.09"/><rect class="cls-17" x="83.8" y="182.1" width="0.57" height="109.09"/><rect class="cls-18" x="84.37" y="182.1" width="0.57" height="109.09"/><rect class="cls-19" x="84.94" y="182.1" width="0.57" height="109.09"/><rect class="cls-20" x="85.52" y="182.1" width="0.57" height="109.09"/><rect class="cls-21" x="86.09" y="182.1" width="0.57" height="109.09"/><rect class="cls-22" x="86.66" y="182.1" width="0.57" height="109.09"/><rect class="cls-23" x="87.23" y="182.1" width="0.57" height="109.09"/><rect class="cls-24" x="87.8" y="182.1" width="0.57" height="109.09"/><rect class="cls-25" x="88.38" y="182.1" width="0.57" height="109.09"/><rect class="cls-26" x="88.95" y="182.1" width="0.57" height="109.09"/><rect class="cls-27" x="89.52" y="182.1" width="0.57" height="109.09"/><rect class="cls-28" x="90.09" y="182.1" width="0.57" height="109.09"/><rect class="cls-29" x="90.66" y="182.1" width="0.57" height="109.09"/><rect class="cls-30" x="91.24" y="182.1" width="0.57" height="109.09"/><rect class="cls-31" x="91.81" y="182.1" width="0.57" height="109.09"/><rect class="cls-32" x="92.38" y="182.1" width="0.57" height="109.09"/><rect class="cls-33" x="92.95" y="182.1" width="0.57" height="109.09"/><rect class="cls-34" x="93.52" y="182.1" width="0.57" height="109.09"/><rect class="cls-35" x="94.1" y="182.1" width="0.57" height="109.09"/><rect class="cls-36" x="94.67" y="182.1" width="0.57" height="109.09"/><rect class="cls-37" x="95.24" y="182.1" width="0.57" height="109.09"/><rect class="cls-38" x="95.81" y="182.1" width="0.57" height="109.09"/><rect class="cls-39" x="96.38" y="182.1" width="0.57" height="109.09"/><rect class="cls-40" x="96.95" y="182.1" width="0.57" height="109.09"/><rect class="cls-41" x="97.53" y="182.1" width="0.57" height="109.09"/><rect class="cls-42" x="98.1" y="182.1" width="0.57" height="109.09"/><rect class="cls-43" x="98.67" y="182.1" width="0.57" height="109.09"/><rect class="cls-44" x="99.24" y="182.1" width="0.57" height="109.09"/><rect class="cls-45" x="99.81" y="182.1" width="0.57" height="109.09"/><rect class="cls-46" x="100.39" y="182.1" width="0.57" height="109.09"/><rect class="cls-47" x="100.96" y="182.1" width="0.57" height="109.09"/><rect class="cls-48" x="101.53" y="182.1" width="0.57" height="109.09"/><rect class="cls-49" x="102.1" y="182.1" width="0.57" height="109.09"/><rect class="cls-50" x="102.67" y="182.1" width="0.57" height="109.09"/><rect class="cls-51" x="103.25" y="182.1" width="0.57" height="109.09"/><rect class="cls-52" x="103.82" y="182.1" width="0.57" height="109.09"/><rect class="cls-53" x="104.39" y="182.1" width="0.57" height="109.09"/><rect class="cls-54" x="104.96" y="182.1" width="0.57" height="109.09"/><rect class="cls-55" x="105.53" y="182.1" width="0.57" height="109.09"/><rect class="cls-56" x="106.11" y="182.1" width="0.57" height="109.09"/><rect class="cls-57" x="106.68" y="182.1" width="0.57" height="109.09"/><rect class="cls-58" x="107.25" y="182.1" width="0.57" height="109.09"/><rect class="cls-59" x="107.82" y="182.1" width="0.57" height="109.09"/><rect class="cls-60" x="108.39" y="182.1" width="0.57" height="109.09"/><rect class="cls-61" x="108.96" y="182.1" width="0.57" height="109.09"/><rect class="cls-62" x="109.54" y="182.1" width="0.57" height="109.09"/><rect class="cls-63" x="110.11" y="182.1" width="0.57" height="109.09"/><rect class="cls-64" x="110.68" y="182.1" width="0.57" height="109.09"/><rect class="cls-65" x="111.25" y="182.1" width="0.57" height="109.09"/><rect class="cls-66" x="111.82" y="182.1" width="0.57" height="109.09"/><rect class="cls-67" x="112.4" y="182.1" width="0.57" height="109.09"/><rect class="cls-68" x="112.97" y="182.1" width="0.57" height="109.09"/><rect class="cls-69" x="113.54" y="182.1" width="0.57" height="109.09"/><rect class="cls-70" x="114.11" y="182.1" width="0.57" height="109.09"/><rect class="cls-71" x="114.68" y="182.1" width="0.57" height="109.09"/><rect class="cls-72" x="115.26" y="182.1" width="0.57" height="109.09"/><rect class="cls-73" x="115.83" y="182.1" width="0.57" height="109.09"/><rect class="cls-74" x="116.4" y="182.1" width="0.57" height="109.09"/><rect class="cls-75" x="116.97" y="182.1" width="0.57" height="109.09"/><rect class="cls-76" x="117.54" y="182.1" width="0.57" height="109.09"/><rect class="cls-77" x="118.12" y="182.1" width="0.57" height="109.09"/><rect class="cls-78" x="118.69" y="182.1" width="0.57" height="109.09"/><rect class="cls-79" x="119.26" y="182.1" width="0.57" height="109.09"/><rect class="cls-80" x="119.83" y="182.1" width="0.57" height="109.09"/><rect class="cls-81" x="120.4" y="182.1" width="0.57" height="109.09"/><rect class="cls-82" x="120.97" y="182.1" width="0.57" height="109.09"/><rect class="cls-83" x="121.55" y="182.1" width="0.57" height="109.09"/><rect class="cls-84" x="122.12" y="182.1" width="0.57" height="109.09"/><rect class="cls-85" x="122.69" y="182.1" width="0.57" height="109.09"/><rect class="cls-86" x="123.26" y="182.1" width="0.57" height="109.09"/><rect class="cls-87" x="123.83" y="182.1" width="0.57" height="109.09"/><rect class="cls-88" x="124.41" y="182.1" width="0.57" height="109.09"/><rect class="cls-89" x="124.98" y="182.1" width="0.57" height="109.09"/><rect class="cls-90" x="125.55" y="182.1" width="0.57" height="109.09"/><rect class="cls-91" x="126.12" y="182.1" width="0.57" height="109.09"/><rect class="cls-92" x="126.69" y="182.1" width="0.57" height="109.09"/><rect class="cls-93" x="127.27" y="182.1" width="0.57" height="109.09"/><rect class="cls-94" x="127.84" y="182.1" width="0.57" height="109.09"/><rect class="cls-95" x="128.41" y="182.1" width="0.57" height="109.09"/><rect class="cls-96" x="128.98" y="182.1" width="0.57" height="109.09"/><rect class="cls-97" x="129.55" y="182.1" width="0.57" height="109.09"/><rect class="cls-98" x="130.13" y="182.1" width="0.57" height="109.09"/><rect class="cls-99" x="130.7" y="182.1" width="0.57" height="109.09"/><rect class="cls-100" x="131.27" y="182.1" width="0.57" height="109.09"/><rect class="cls-101" x="131.84" y="182.1" width="0.57" height="109.09"/><rect class="cls-102" x="132.41" y="182.1" width="0.57" height="109.09"/><rect class="cls-103" x="132.99" y="182.1" width="0.57" height="109.09"/><rect class="cls-104" x="133.56" y="182.1" width="0.57" height="109.09"/><rect class="cls-105" x="134.13" y="182.1" width="0.57" height="109.09"/><rect class="cls-106" x="134.7" y="182.1" width="0.57" height="109.09"/><rect class="cls-107" x="135.27" y="182.1" width="0.57" height="109.09"/><rect class="cls-108" x="135.84" y="182.1" width="0.57" height="109.09"/><rect class="cls-109" x="136.42" y="182.1" width="0.57" height="109.09"/><rect class="cls-110" x="136.99" y="182.1" width="0.57" height="109.09"/><rect class="cls-111" x="137.56" y="182.1" width="0.57" height="109.09"/><rect class="cls-112" x="138.13" y="182.1" width="0.57" height="109.09"/><rect class="cls-113" x="138.7" y="182.1" width="0.57" height="109.09"/><rect class="cls-114" x="139.28" y="182.1" width="0.57" height="109.09"/><rect class="cls-115" x="139.85" y="182.1" width="0.57" height="109.09"/><rect class="cls-116" x="140.42" y="182.1" width="0.57" height="109.09"/><rect class="cls-117" x="140.99" y="182.1" width="0.57" height="109.09"/><rect class="cls-118" x="141.56" y="182.1" width="0.57" height="109.09"/><rect class="cls-119" x="142.14" y="182.1" width="0.57" height="109.09"/><rect class="cls-120" x="142.71" y="182.1" width="0.57" height="109.09"/><rect class="cls-121" x="143.28" y="182.1" width="0.57" height="109.09"/><rect class="cls-122" x="143.85" y="182.1" width="0.57" height="109.09"/><rect class="cls-123" x="144.42" y="182.1" width="0.57" height="109.09"/><rect class="cls-124" x="145" y="182.1" width="0.57" height="109.09"/><rect class="cls-125" x="145.57" y="182.1" width="0.57" height="109.09"/><rect class="cls-126" x="146.14" y="182.1" width="0.57" height="109.09"/><rect class="cls-127" x="146.71" y="182.1" width="0.57" height="109.09"/><rect class="cls-128" x="147.28" y="182.1" width="0.57" height="109.09"/><rect class="cls-129" x="147.85" y="182.1" width="0.57" height="109.09"/><rect class="cls-130" x="148.43" y="182.1" width="0.57" height="109.09"/><rect class="cls-131" x="149" y="182.1" width="0.57" height="109.09"/><rect class="cls-132" x="149.57" y="182.1" width="0.57" height="109.09"/><rect class="cls-133" x="150.14" y="182.1" width="0.57" height="109.09"/><rect class="cls-134" x="150.71" y="182.1" width="0.57" height="109.09"/><rect class="cls-135" x="151.29" y="182.1" width="0.57" height="109.09"/><rect class="cls-136" x="151.86" y="182.1" width="0.57" height="109.09"/><rect class="cls-137" x="152.43" y="182.1" width="0.57" height="109.09"/><rect class="cls-138" x="153" y="182.1" width="0.57" height="109.09"/><rect class="cls-139" x="153.57" y="182.1" width="0.57" height="109.09"/><rect class="cls-140" x="154.15" y="182.1" width="0.57" height="109.09"/><rect class="cls-141" x="154.72" y="182.1" width="0.57" height="109.09"/><rect class="cls-142" x="155.29" y="182.1" width="0.57" height="109.09"/><rect class="cls-143" x="155.86" y="182.1" width="0.57" height="109.09"/><rect class="cls-144" x="156.43" y="182.1" width="0.57" height="109.09"/><rect class="cls-145" x="157.01" y="182.1" width="0.57" height="109.09"/><rect class="cls-146" x="157.58" y="182.1" width="0.57" height="109.09"/><rect class="cls-147" x="158.15" y="182.1" width="0.57" height="109.09"/><rect class="cls-148" x="158.72" y="182.1" width="0.57" height="109.09"/><rect class="cls-149" x="159.29" y="182.1" width="0.57" height="109.09"/><rect class="cls-150" x="159.86" y="182.1" width="0.57" height="109.09"/><rect class="cls-151" x="160.44" y="182.1" width="0.57" height="109.09"/><rect class="cls-152" x="161.01" y="182.1" width="0.57" height="109.09"/><rect class="cls-153" x="161.58" y="182.1" width="0.57" height="109.09"/><rect class="cls-154" x="162.15" y="182.1" width="0.57" height="109.09"/><rect class="cls-155" x="162.72" y="182.1" width="0.57" height="109.09"/><rect class="cls-155" x="163.3" y="182.1" width="0.57" height="109.09"/><rect class="cls-156" x="163.87" y="182.1" width="0.57" height="109.09"/><rect class="cls-157" x="164.44" y="182.1" width="0.57" height="109.09"/><rect class="cls-158" x="165.01" y="182.1" width="0.57" height="109.09"/><rect class="cls-159" x="165.58" y="182.1" width="0.57" height="109.09"/><rect class="cls-160" x="166.16" y="182.1" width="0.57" height="109.09"/><rect class="cls-161" x="166.73" y="182.1" width="0.57" height="109.09"/><rect class="cls-162" x="167.3" y="182.1" width="0.57" height="109.09"/><rect class="cls-163" x="167.87" y="182.1" width="0.57" height="109.09"/><rect class="cls-164" x="168.44" y="182.1" width="0.57" height="109.09"/><rect class="cls-165" x="169.02" y="182.1" width="0.57" height="109.09"/><rect class="cls-166" x="169.59" y="182.1" width="0.57" height="109.09"/><rect class="cls-167" x="170.16" y="182.1" width="0.57" height="109.09"/><rect class="cls-168" x="170.73" y="182.1" width="0.57" height="109.09"/><rect class="cls-169" x="171.3" y="182.1" width="0.57" height="109.09"/><rect class="cls-170" x="171.88" y="182.1" width="0.57" height="109.09"/><rect class="cls-171" x="172.45" y="182.1" width="0.57" height="109.09"/><rect class="cls-172" x="173.02" y="182.1" width="0.57" height="109.09"/><rect class="cls-173" x="173.59" y="182.1" width="0.57" height="109.09"/><rect class="cls-174" x="174.16" y="182.1" width="0.57" height="109.09"/><rect class="cls-175" x="174.73" y="182.1" width="0.57" height="109.09"/><rect class="cls-176" x="175.31" y="182.1" width="0.57" height="109.09"/><rect class="cls-177" x="175.88" y="182.1" width="0.57" height="109.09"/><rect class="cls-178" x="176.45" y="182.1" width="0.57" height="109.09"/><rect class="cls-179" x="177.02" y="182.1" width="0.57" height="109.09"/><rect class="cls-180" x="177.59" y="182.1" width="0.57" height="109.09"/><rect class="cls-181" x="178.17" y="182.1" width="0.57" height="109.09"/><rect class="cls-182" x="178.74" y="182.1" width="0.57" height="109.09"/><rect class="cls-183" x="179.31" y="182.1" width="0.57" height="109.09"/><rect class="cls-184" x="179.88" y="182.1" width="0.57" height="109.09"/><rect class="cls-185" x="180.45" y="182.1" width="0.57" height="109.09"/><rect class="cls-186" x="181.03" y="182.1" width="0.57" height="109.09"/><rect class="cls-187" x="181.6" y="182.1" width="0.57" height="109.09"/><rect class="cls-188" x="182.17" y="182.1" width="0.57" height="109.09"/><rect class="cls-189" x="182.74" y="182.1" width="0.57" height="109.09"/><rect class="cls-190" x="183.31" y="182.1" width="0.57" height="109.09"/><rect class="cls-191" x="183.89" y="182.1" width="0.57" height="109.09"/><rect class="cls-192" x="184.46" y="182.1" width="0.57" height="109.09"/><rect class="cls-193" x="185.03" y="182.1" width="0.57" height="109.09"/><rect class="cls-194" x="185.6" y="182.1" width="0.57" height="109.09"/><rect class="cls-195" x="186.17" y="182.1" width="0.57" height="109.09"/><rect class="cls-196" x="186.74" y="182.1" width="0.57" height="109.09"/><rect class="cls-197" x="187.32" y="182.1" width="0.57" height="109.09"/><rect class="cls-198" x="187.89" y="182.1" width="0.57" height="109.09"/><rect class="cls-199" x="188.46" y="182.1" width="0.57" height="109.09"/><rect class="cls-200" x="189.03" y="182.1" width="0.57" height="109.09"/><rect class="cls-201" x="189.6" y="182.1" width="0.57" height="109.09"/><rect class="cls-202" x="190.18" y="182.1" width="0.57" height="109.09"/><rect class="cls-203" x="190.75" y="182.1" width="0.57" height="109.09"/><rect class="cls-204" x="191.32" y="182.1" width="0.57" height="109.09"/><rect class="cls-205" x="191.89" y="182.1" width="0.57" height="109.09"/><rect class="cls-206" x="192.46" y="182.1" width="0.57" height="109.09"/><rect class="cls-207" x="193.04" y="182.1" width="0.57" height="109.09"/><rect class="cls-207" x="193.61" y="182.1" width="0.57" height="109.09"/><rect class="cls-208" x="194.18" y="182.1" width="0.57" height="109.09"/><rect class="cls-209" x="194.75" y="182.1" width="0.57" height="109.09"/><rect class="cls-210" x="195.32" y="182.1" width="0.57" height="109.09"/><rect class="cls-211" x="195.9" y="182.1" width="0.57" height="109.09"/><rect class="cls-212" x="196.47" y="182.1" width="0.57" height="109.09"/><rect class="cls-212" x="197.04" y="182.1" width="0.57" height="109.09"/><rect class="cls-213" x="197.61" y="182.1" width="0.57" height="109.09"/></g><g class="cls-214"><rect class="cls-3" x="7.63" y="77.39" width="28.33" height="91.96"/><rect class="cls-3" x="35.95" y="77.39" width="0.76" height="91.96"/><rect class="cls-4" x="36.71" y="77.39" width="0.76" height="91.96"/><rect class="cls-5" x="37.47" y="77.39" width="0.76" height="91.96"/><rect class="cls-6" x="38.23" y="77.39" width="0.76" height="91.96"/><rect class="cls-7" x="38.98" y="77.39" width="0.76" height="91.96"/><rect class="cls-8" x="39.74" y="77.39" width="0.76" height="91.96"/><rect class="cls-9" x="40.5" y="77.39" width="0.76" height="91.96"/><rect class="cls-10" x="41.26" y="77.39" width="0.76" height="91.96"/><rect class="cls-11" x="42.02" y="77.39" width="0.76" height="91.96"/><rect class="cls-12" x="42.77" y="77.39" width="0.76" height="91.96"/><rect class="cls-13" x="43.53" y="77.39" width="0.76" height="91.96"/><rect class="cls-14" x="44.29" y="77.39" width="0.76" height="91.96"/><rect class="cls-15" x="45.05" y="77.39" width="0.76" height="91.96"/><rect class="cls-16" x="45.81" y="77.39" width="0.76" height="91.96"/><rect class="cls-17" x="46.57" y="77.39" width="0.76" height="91.96"/><rect class="cls-18" x="47.32" y="77.39" width="0.76" height="91.96"/><rect class="cls-19" x="48.08" y="77.39" width="0.76" height="91.96"/><rect class="cls-20" x="48.84" y="77.39" width="0.76" height="91.96"/><rect class="cls-21" x="49.6" y="77.39" width="0.76" height="91.96"/><rect class="cls-22" x="50.36" y="77.39" width="0.76" height="91.96"/><rect class="cls-23" x="51.11" y="77.39" width="0.76" height="91.96"/><rect class="cls-24" x="51.87" y="77.39" width="0.76" height="91.96"/><rect class="cls-25" x="52.63" y="77.39" width="0.76" height="91.96"/><rect class="cls-26" x="53.39" y="77.39" width="0.76" height="91.96"/><rect class="cls-27" x="54.15" y="77.39" width="0.76" height="91.96"/><rect class="cls-28" x="54.9" y="77.39" width="0.76" height="91.96"/><rect class="cls-29" x="55.66" y="77.39" width="0.76" height="91.96"/><rect class="cls-30" x="56.42" y="77.39" width="0.76" height="91.96"/><rect class="cls-31" x="57.18" y="77.39" width="0.76" height="91.96"/><rect class="cls-32" x="57.94" y="77.39" width="0.76" height="91.96"/><rect class="cls-33" x="58.69" y="77.39" width="0.76" height="91.96"/><rect class="cls-34" x="59.45" y="77.39" width="0.76" height="91.96"/><rect class="cls-35" x="60.21" y="77.39" width="0.76" height="91.96"/><rect class="cls-36" x="60.97" y="77.39" width="0.76" height="91.96"/><rect class="cls-37" x="61.73" y="77.39" width="0.76" height="91.96"/><rect class="cls-38" x="62.49" y="77.39" width="0.76" height="91.96"/><rect class="cls-39" x="63.24" y="77.39" width="0.76" height="91.96"/><rect class="cls-40" x="64" y="77.39" width="0.76" height="91.96"/><rect class="cls-41" x="64.76" y="77.39" width="0.76" height="91.96"/><rect class="cls-42" x="65.52" y="77.39" width="0.76" height="91.96"/><rect class="cls-43" x="66.28" y="77.39" width="0.76" height="91.96"/><rect class="cls-44" x="67.03" y="77.39" width="0.76" height="91.96"/><rect class="cls-45" x="67.79" y="77.39" width="0.76" height="91.96"/><rect class="cls-46" x="68.55" y="77.39" width="0.76" height="91.96"/><rect class="cls-47" x="69.31" y="77.39" width="0.76" height="91.96"/><rect class="cls-48" x="70.07" y="77.39" width="0.76" height="91.96"/><rect class="cls-49" x="70.82" y="77.39" width="0.76" height="91.96"/><rect class="cls-50" x="71.58" y="77.39" width="0.76" height="91.96"/><rect class="cls-51" x="72.34" y="77.39" width="0.76" height="91.96"/><rect class="cls-52" x="73.1" y="77.39" width="0.76" height="91.96"/><rect class="cls-53" x="73.86" y="77.39" width="0.76" height="91.96"/><rect class="cls-54" x="74.61" y="77.39" width="0.76" height="91.96"/><rect class="cls-55" x="75.37" y="77.39" width="0.76" height="91.96"/><rect class="cls-56" x="76.13" y="77.39" width="0.76" height="91.96"/><rect class="cls-57" x="76.89" y="77.39" width="0.76" height="91.96"/><rect class="cls-58" x="77.65" y="77.39" width="0.76" height="91.96"/><rect class="cls-59" x="78.41" y="77.39" width="0.76" height="91.96"/><rect class="cls-60" x="79.16" y="77.39" width="0.76" height="91.96"/><rect class="cls-61" x="79.92" y="77.39" width="0.76" height="91.96"/><rect class="cls-62" x="80.68" y="77.39" width="0.76" height="91.96"/><rect class="cls-63" x="81.44" y="77.39" width="0.76" height="91.96"/><rect class="cls-64" x="82.2" y="77.39" width="0.76" height="91.96"/><rect class="cls-65" x="82.95" y="77.39" width="0.76" height="91.96"/><rect class="cls-66" x="83.71" y="77.39" width="0.76" height="91.96"/><rect class="cls-67" x="84.47" y="77.39" width="0.76" height="91.96"/><rect class="cls-68" x="85.23" y="77.39" width="0.76" height="91.96"/><rect class="cls-69" x="85.99" y="77.39" width="0.76" height="91.96"/><rect class="cls-70" x="86.74" y="77.39" width="0.76" height="91.96"/><rect class="cls-71" x="87.5" y="77.39" width="0.76" height="91.96"/><rect class="cls-72" x="88.26" y="77.39" width="0.76" height="91.96"/><rect class="cls-73" x="89.02" y="77.39" width="0.76" height="91.96"/><rect class="cls-74" x="89.78" y="77.39" width="0.76" height="91.96"/><rect class="cls-75" x="90.53" y="77.39" width="0.76" height="91.96"/><rect class="cls-76" x="91.29" y="77.39" width="0.76" height="91.96"/><rect class="cls-77" x="92.05" y="77.39" width="0.76" height="91.96"/><rect class="cls-78" x="92.81" y="77.39" width="0.76" height="91.96"/><rect class="cls-79" x="93.57" y="77.39" width="0.76" height="91.96"/><rect class="cls-80" x="94.32" y="77.39" width="0.76" height="91.96"/><rect class="cls-81" x="95.08" y="77.39" width="0.76" height="91.96"/><rect class="cls-82" x="95.84" y="77.39" width="0.76" height="91.96"/><rect class="cls-83" x="96.6" y="77.39" width="0.76" height="91.96"/><rect class="cls-84" x="97.36" y="77.39" width="0.76" height="91.96"/><rect class="cls-85" x="98.12" y="77.39" width="0.76" height="91.96"/><rect class="cls-86" x="98.87" y="77.39" width="0.76" height="91.96"/><rect class="cls-87" x="99.63" y="77.39" width="0.76" height="91.96"/><rect class="cls-88" x="100.39" y="77.39" width="0.76" height="91.96"/><rect class="cls-89" x="101.15" y="77.39" width="0.76" height="91.96"/><rect class="cls-90" x="101.91" y="77.39" width="0.76" height="91.96"/><rect class="cls-91" x="102.66" y="77.39" width="0.76" height="91.96"/><rect class="cls-92" x="103.42" y="77.39" width="0.76" height="91.96"/><rect class="cls-93" x="104.18" y="77.39" width="0.76" height="91.96"/><rect class="cls-94" x="104.94" y="77.39" width="0.76" height="91.96"/><rect class="cls-95" x="105.7" y="77.39" width="0.76" height="91.96"/><rect class="cls-96" x="106.45" y="77.39" width="0.76" height="91.96"/><rect class="cls-97" x="107.21" y="77.39" width="0.76" height="91.96"/><rect class="cls-98" x="107.97" y="77.39" width="0.76" height="91.96"/><rect class="cls-99" x="108.73" y="77.39" width="0.76" height="91.96"/><rect class="cls-100" x="109.49" y="77.39" width="0.76" height="91.96"/><rect class="cls-101" x="110.24" y="77.39" width="0.76" height="91.96"/><rect class="cls-102" x="111" y="77.39" width="0.76" height="91.96"/><rect class="cls-103" x="111.76" y="77.39" width="0.76" height="91.96"/><rect class="cls-104" x="112.52" y="77.39" width="0.76" height="91.96"/><rect class="cls-105" x="113.28" y="77.39" width="0.76" height="91.96"/><rect class="cls-106" x="114.04" y="77.39" width="0.76" height="91.96"/><rect class="cls-107" x="114.79" y="77.39" width="0.76" height="91.96"/><rect class="cls-108" x="115.55" y="77.39" width="0.76" height="91.96"/><rect class="cls-109" x="116.31" y="77.39" width="0.76" height="91.96"/><rect class="cls-110" x="117.07" y="77.39" width="0.76" height="91.96"/><rect class="cls-111" x="117.83" y="77.39" width="0.76" height="91.96"/><rect class="cls-112" x="118.58" y="77.39" width="0.76" height="91.96"/><rect class="cls-113" x="119.34" y="77.39" width="0.76" height="91.96"/><rect class="cls-114" x="120.1" y="77.39" width="0.76" height="91.96"/><rect class="cls-115" x="120.86" y="77.39" width="0.76" height="91.96"/><rect class="cls-116" x="121.62" y="77.39" width="0.76" height="91.96"/><rect class="cls-117" x="122.37" y="77.39" width="0.76" height="91.96"/><rect class="cls-118" x="123.13" y="77.39" width="0.76" height="91.96"/><rect class="cls-119" x="123.89" y="77.39" width="0.76" height="91.96"/><rect class="cls-120" x="124.65" y="77.39" width="0.76" height="91.96"/><rect class="cls-121" x="125.41" y="77.39" width="0.76" height="91.96"/><rect class="cls-122" x="126.16" y="77.39" width="0.76" height="91.96"/><rect class="cls-123" x="126.92" y="77.39" width="0.76" height="91.96"/><rect class="cls-124" x="127.68" y="77.39" width="0.76" height="91.96"/><rect class="cls-125" x="128.44" y="77.39" width="0.76" height="91.96"/><rect class="cls-126" x="129.2" y="77.39" width="0.76" height="91.96"/><rect class="cls-127" x="129.96" y="77.39" width="0.76" height="91.96"/><rect class="cls-128" x="130.71" y="77.39" width="0.76" height="91.96"/><rect class="cls-129" x="131.47" y="77.39" width="0.76" height="91.96"/><rect class="cls-130" x="132.23" y="77.39" width="0.76" height="91.96"/><rect class="cls-131" x="132.99" y="77.39" width="0.76" height="91.96"/><rect class="cls-132" x="133.75" y="77.39" width="0.76" height="91.96"/><rect class="cls-133" x="134.5" y="77.39" width="0.76" height="91.96"/><rect class="cls-134" x="135.26" y="77.39" width="0.76" height="91.96"/><rect class="cls-135" x="136.02" y="77.39" width="0.76" height="91.96"/><rect class="cls-136" x="136.78" y="77.39" width="0.76" height="91.96"/><rect class="cls-137" x="137.54" y="77.39" width="0.76" height="91.96"/><rect class="cls-138" x="138.29" y="77.39" width="0.76" height="91.96"/><rect class="cls-139" x="139.05" y="77.39" width="0.76" height="91.96"/><rect class="cls-140" x="139.81" y="77.39" width="0.76" height="91.96"/><rect class="cls-141" x="140.57" y="77.39" width="0.76" height="91.96"/><rect class="cls-142" x="141.33" y="77.39" width="0.76" height="91.96"/><rect class="cls-143" x="142.08" y="77.39" width="0.76" height="91.96"/><rect class="cls-144" x="142.84" y="77.39" width="0.76" height="91.96"/><rect class="cls-145" x="143.6" y="77.39" width="0.76" height="91.96"/><rect class="cls-146" x="144.36" y="77.39" width="0.76" height="91.96"/><rect class="cls-147" x="145.12" y="77.39" width="0.76" height="91.96"/><rect class="cls-148" x="145.87" y="77.39" width="0.76" height="91.96"/><rect class="cls-149" x="146.63" y="77.39" width="0.76" height="91.96"/><rect class="cls-150" x="147.39" y="77.39" width="0.76" height="91.96"/><rect class="cls-151" x="148.15" y="77.39" width="0.76" height="91.96"/><rect class="cls-152" x="148.91" y="77.39" width="0.76" height="91.96"/><rect class="cls-153" x="149.67" y="77.39" width="0.76" height="91.96"/><rect class="cls-154" x="150.42" y="77.39" width="0.76" height="91.96"/><rect class="cls-155" x="151.18" y="77.39" width="0.76" height="91.96"/><rect class="cls-155" x="151.94" y="77.39" width="0.76" height="91.96"/><rect class="cls-156" x="152.7" y="77.39" width="0.76" height="91.96"/><rect class="cls-157" x="153.46" y="77.39" width="0.76" height="91.96"/><rect class="cls-158" x="154.21" y="77.39" width="0.76" height="91.96"/><rect class="cls-159" x="154.97" y="77.39" width="0.76" height="91.96"/><rect class="cls-160" x="155.73" y="77.39" width="0.76" height="91.96"/><rect class="cls-161" x="156.49" y="77.39" width="0.76" height="91.96"/><rect class="cls-162" x="157.25" y="77.39" width="0.76" height="91.96"/><rect class="cls-163" x="158" y="77.39" width="0.76" height="91.96"/><rect class="cls-164" x="158.76" y="77.39" width="0.76" height="91.96"/><rect class="cls-165" x="159.52" y="77.39" width="0.76" height="91.96"/><rect class="cls-166" x="160.28" y="77.39" width="0.76" height="91.96"/><rect class="cls-167" x="161.04" y="77.39" width="0.76" height="91.96"/><rect class="cls-168" x="161.79" y="77.39" width="0.76" height="91.96"/><rect class="cls-169" x="162.55" y="77.39" width="0.76" height="91.96"/><rect class="cls-170" x="163.31" y="77.39" width="0.76" height="91.96"/><rect class="cls-171" x="164.07" y="77.39" width="0.76" height="91.96"/><rect class="cls-172" x="164.83" y="77.39" width="0.76" height="91.96"/><rect class="cls-173" x="165.59" y="77.39" width="0.76" height="91.96"/><rect class="cls-174" x="166.34" y="77.39" width="0.76" height="91.96"/><rect class="cls-175" x="167.1" y="77.39" width="0.76" height="91.96"/><rect class="cls-176" x="167.86" y="77.39" width="0.76" height="91.96"/><rect class="cls-177" x="168.62" y="77.39" width="0.76" height="91.96"/><rect class="cls-178" x="169.38" y="77.39" width="0.76" height="91.96"/><rect class="cls-179" x="170.13" y="77.39" width="0.76" height="91.96"/><rect class="cls-180" x="170.89" y="77.39" width="0.76" height="91.96"/><rect class="cls-181" x="171.65" y="77.39" width="0.76" height="91.96"/><rect class="cls-182" x="172.41" y="77.39" width="0.76" height="91.96"/><rect class="cls-183" x="173.17" y="77.39" width="0.76" height="91.96"/><rect class="cls-184" x="173.92" y="77.39" width="0.76" height="91.96"/><rect class="cls-185" x="174.68" y="77.39" width="0.76" height="91.96"/><rect class="cls-186" x="175.44" y="77.39" width="0.76" height="91.96"/><rect class="cls-187" x="176.2" y="77.39" width="0.76" height="91.96"/><rect class="cls-188" x="176.96" y="77.39" width="0.76" height="91.96"/><rect class="cls-189" x="177.71" y="77.39" width="0.76" height="91.96"/><rect class="cls-190" x="178.47" y="77.39" width="0.76" height="91.96"/><rect class="cls-191" x="179.23" y="77.39" width="0.76" height="91.96"/><rect class="cls-192" x="179.99" y="77.39" width="0.76" height="91.96"/><rect class="cls-193" x="180.75" y="77.39" width="0.76" height="91.96"/><rect class="cls-194" x="181.51" y="77.39" width="0.76" height="91.96"/><rect class="cls-195" x="182.26" y="77.39" width="0.76" height="91.96"/><rect class="cls-196" x="183.02" y="77.39" width="0.76" height="91.96"/><rect class="cls-197" x="183.78" y="77.39" width="0.76" height="91.96"/><rect class="cls-198" x="184.54" y="77.39" width="0.76" height="91.96"/><rect class="cls-199" x="185.3" y="77.39" width="0.76" height="91.96"/><rect class="cls-200" x="186.05" y="77.39" width="0.76" height="91.96"/><rect class="cls-201" x="186.81" y="77.39" width="0.76" height="91.96"/><rect class="cls-202" x="187.57" y="77.39" width="0.76" height="91.96"/><rect class="cls-203" x="188.33" y="77.39" width="0.76" height="91.96"/><rect class="cls-204" x="189.09" y="77.39" width="0.76" height="91.96"/><rect class="cls-205" x="189.84" y="77.39" width="0.76" height="91.96"/><rect class="cls-206" x="190.6" y="77.39" width="0.76" height="91.96"/><rect class="cls-207" x="191.36" y="77.39" width="0.76" height="91.96"/><rect class="cls-207" x="192.12" y="77.39" width="0.76" height="91.96"/><rect class="cls-208" x="192.88" y="77.39" width="0.76" height="91.96"/><rect class="cls-209" x="193.63" y="77.39" width="0.76" height="91.96"/><rect class="cls-210" x="194.39" y="77.39" width="0.76" height="91.96"/><rect class="cls-211" x="195.15" y="77.39" width="0.76" height="91.96"/><rect class="cls-212" x="195.91" y="77.39" width="0.76" height="91.96"/><rect class="cls-212" x="196.67" y="77.39" width="0.76" height="91.96"/><rect class="cls-213" x="197.42" y="77.39" width="0.76" height="91.96"/></g><path class="cls-215" d="M101.63,203.7a21.16,21.16,0,0,1,1.09-4.79,14.62,14.62,0,0,1,3.1-5.1,17.48,17.48,0,0,1,5.84-4.06,23.09,23.09,0,0,1,9.39-1.64H155v14.41H121.05a4.54,4.54,0,0,0-2.69.68,2.59,2.59,0,0,0-1.14,1.59,3,3,0,0,0,.27,1.87,2.89,2.89,0,0,0,1.55,1.42l27.63,11.21A17.84,17.84,0,0,1,152,223a17.54,17.54,0,0,1,3.19,4.52,15.7,15.7,0,0,1,1.46,4.83,23,23,0,0,1,.14,4.74,18.28,18.28,0,0,1-1,4.78,13.59,13.59,0,0,1-3.06,5.06,16.75,16.75,0,0,1-5.88,4,24.25,24.25,0,0,1-9.52,1.6H103.45V238.07h34.1a4.61,4.61,0,0,0,2.6-.64,2.4,2.4,0,0,0,1.14-1.5,3.07,3.07,0,0,0-1.73-3.33l-27.81-10.94a19.86,19.86,0,0,1-5.15-3.78,18.17,18.17,0,0,1-3.24-4.56,16.48,16.48,0,0,1-1.55-4.88A21.17,21.17,0,0,1,101.63,203.7Z"/><path class="cls-215" d="M166.08,231.32V209.63a21.29,21.29,0,0,1,1.69-8.48,22.38,22.38,0,0,1,4.56-6.84,20.7,20.7,0,0,1,6.79-4.56,21.8,21.8,0,0,1,8.48-1.64h27.53a20.68,20.68,0,0,1,8.21,1.64,21.07,21.07,0,0,1,6.7,4.56,22.38,22.38,0,0,1,4.56,6.84,21.29,21.29,0,0,1,1.68,8.48v21.69a20.2,20.2,0,0,1-1.68,8.21,22,22,0,0,1-4.56,6.7,21.74,21.74,0,0,1-6.7,4.56,20.21,20.21,0,0,1-8.21,1.69H187.6a21.46,21.46,0,0,1-15.27-6.25,22,22,0,0,1-4.56-6.7A20.21,20.21,0,0,1,166.08,231.32Zm55.34,0V209.63a6.56,6.56,0,0,0-1.82-4.79,6,6,0,0,0-4.47-1.87H187.6a6.61,6.61,0,0,0-4.7,1.87,6.35,6.35,0,0,0-2,4.79v21.69a5.67,5.67,0,0,0,2,4.34,6.79,6.79,0,0,0,4.7,1.77h27.53a6.17,6.17,0,0,0,4.47-1.77A5.82,5.82,0,0,0,221.42,231.32Z"/><path class="cls-215" d="M302.16,188.11h8v64.37H295.27V241.54H260.63a59.9,59.9,0,0,0-2.74,10.94H242.57a67.48,67.48,0,0,1,3.2-15.46,80.48,80.48,0,0,1,6.65-15A82.16,82.16,0,0,1,262,208.71,70.71,70.71,0,0,1,273.84,198a57.63,57.63,0,0,1,13.59-7.21A42.48,42.48,0,0,1,302.16,188.11Zm-6.89,14.95a28.9,28.9,0,0,0-8.34,3.15,42,42,0,0,0-7.48,5.38,52.67,52.67,0,0,0-6.52,7,76.14,76.14,0,0,0-5.47,8.06h27.81Z"/><path class="cls-215" d="M369.78,252.48l-11.28-24h-22v24H321.62V213.36H365.1a7.39,7.39,0,0,0,2.92-.5,4.77,4.77,0,0,0,1.82-1.23,4.41,4.41,0,0,0,.92-1.59,5.67,5.67,0,0,0,.27-1.69,6.58,6.58,0,0,0-.27-1.78,4.62,4.62,0,0,0-1-1.73,5.66,5.66,0,0,0-1.82-1.32,6.6,6.6,0,0,0-2.88-.55H321.62V188.11H365a23,23,0,0,1,8.7,1.64,18.94,18.94,0,0,1,6.78,4.56,22.94,22.94,0,0,1,4,6.66,20.42,20.42,0,0,1,1.37,7.38,20.08,20.08,0,0,1-1.36,7.07,24,24,0,0,1-4,6.79,17,17,0,0,1-2.77,2.55,16,16,0,0,1-3.23,1.82l12.19,25.9Z"/><path class="cls-215" d="M109.49,274.45H105l-1,2.79h-.81l3.71-10h.82l3.71,10h-.81Zm-.28-.77-2-5.31-2,5.31Z"/><path class="cls-215" d="M121.05,274.56a2.91,2.91,0,0,1-3.24,2.87,3.36,3.36,0,0,1-3.33-2.28l.72-.23a2.6,2.6,0,0,0,2.61,1.74c1.49,0,2.48-.81,2.48-2.1s-.94-1.55-2.38-1.93-3-.86-3-2.75a2.79,2.79,0,0,1,2.86-2.78,2.84,2.84,0,0,1,2.87,2.08l-.74.19a2,2,0,0,0-2.13-1.51,2,2,0,0,0-2.1,2c0,1.21,1,1.61,2.47,2C119.46,272.26,121.05,272.73,121.05,274.56Z"/><path class="cls-215" d="M130.68,276.49v.75h-5.49v-10h5.36V268h-4.61v3.66h4.29v.76h-4.29v4Z"/><path class="cls-215" d="M141,274.56a2.91,2.91,0,0,1-3.24,2.87,3.36,3.36,0,0,1-3.33-2.28l.72-.23a2.6,2.6,0,0,0,2.61,1.74c1.49,0,2.47-.81,2.47-2.1s-.93-1.55-2.37-1.93-3-.86-3-2.75a2.79,2.79,0,0,1,2.86-2.78,2.84,2.84,0,0,1,2.87,2.08l-.74.19a2.06,2.06,0,0,0-2.13-1.51,2,2,0,0,0-2.1,2c0,1.21,1,1.61,2.47,2C139.37,272.26,141,272.73,141,274.56Z"/><path class="cls-215" d="M154.73,272.26a5,5,0,1,1-5-5.16A5.07,5.07,0,0,1,154.73,272.26Zm-.75,0a4.28,4.28,0,1,0-4.29,4.4A4.31,4.31,0,0,0,154,272.26Z"/><path class="cls-215" d="M165,277.24l-2.6-4.2a5.63,5.63,0,0,1-.58,0h-2v4.17H159v-10h2.78c2.17,0,3.48,1.06,3.48,2.9a2.66,2.66,0,0,1-2.1,2.72l2.69,4.34Zm-3.18-4.92c1.75,0,2.73-.73,2.73-2.14s-1-2.14-2.73-2.14h-2v4.28Z"/><path class="cls-215" d="M170.62,267.28v10h-.77v-10Z"/><path class="cls-215" d="M181,274.45h-4.55l-1,2.79h-.81l3.72-10h.81l3.72,10H182Zm-.29-.77-2-5.31-2,5.31Z"/><path class="cls-215" d="M198.92,274.45h-4.54l-1,2.79h-.81l3.72-10h.81l3.72,10H200Zm-.28-.77-2-5.31-2,5.31Z"/><path class="cls-215" d="M214.72,267.28v10H214V268.7l-4,6h-.36l-4-6v8.54h-.75v-10h.75l4.23,6.23,4.21-6.23Z"/><path class="cls-215" d="M226.07,274.48c0,1.82-1.43,2.76-3.26,2.76h-3.39v-10h3.17c1.84,0,3,1.08,3,2.57a2.19,2.19,0,0,1-1.48,2.1v0A2.46,2.46,0,0,1,226.07,274.48Zm-5.9-6.44v3.66h2.42c1.41,0,2.21-.77,2.21-1.85S224,268,222.59,268Zm5.14,6.44c0-1.42-1.09-2-2.5-2h-2.64v4.05h2.64C224.22,276.49,225.31,275.89,225.31,274.48Z"/><path class="cls-215" d="M231,267.28v10h-.77v-10Z"/><path class="cls-215" d="M241.16,276.49v.75h-5.49v-10H241V268h-4.62v3.66h4.29v.76h-4.29v4Z"/><path class="cls-215" d="M253,267.28v10h-.75l-6.07-8.67v8.67h-.75v-10h.75l6.07,8.67v-8.67Z"/><path class="cls-215" d="M263.49,268h-2.73v9.2H260V268h-2.72v-.76h6.2Z"/><path class="cls-215" d="M272.45,274.45h-4.54l-1,2.79h-.81l3.71-10h.82l3.71,10h-.81Zm-.28-.77-2-5.31-2,5.31Z"/><path class="cls-215" d="M283.69,276.49v.75h-5.4v-10h.77v9.21Z"/><path class="cls-215" d="M302.24,275.12l.64.43a5,5,0,0,1-3.9,1.88,5.17,5.17,0,0,1,0-10.33,4.93,4.93,0,0,1,3.9,1.88l-.64.42a4.17,4.17,0,0,0-3.26-1.54,4.4,4.4,0,0,0,0,8.8A4.17,4.17,0,0,0,302.24,275.12Z"/><path class="cls-215" d="M316.44,272.26a5,5,0,1,1-5-5.16A5.07,5.07,0,0,1,316.44,272.26Zm-.75,0a4.28,4.28,0,1,0-4.29,4.4A4.31,4.31,0,0,0,315.69,272.26Z"/><path class="cls-215" d="M329.93,271.86v5.38h-.5l-.19-2.11a4.11,4.11,0,0,1-3.91,2.3,5.17,5.17,0,0,1,0-10.33,4.94,4.94,0,0,1,3.9,1.88l-.64.42a4.2,4.2,0,0,0-3.26-1.54,4.4,4.4,0,0,0,0,8.8c2.46,0,3.8-1.77,3.84-4.05H325.6v-.75Z"/><path class="cls-215" d="M342.06,267.28v10h-.75l-6.07-8.67v8.67h-.75v-10h.75l6.07,8.67v-8.67Z"/><path class="cls-215" d="M347.53,267.28v10h-.77v-10Z"/><path class="cls-215" d="M358,268h-2.73v9.2h-.76V268h-2.71v-.76H358Z"/><path class="cls-215" d="M363.06,267.28v10h-.77v-10Z"/><path class="cls-215" d="M375.29,267.28l-3.72,10h-.81l-3.72-10h.81l3.31,8.88,3.31-8.88Z"/><path class="cls-215" d="M384.1,274.45h-4.54l-1,2.79h-.81l3.71-10h.82l3.71,10h-.81Zm-.28-.77-2-5.31-2,5.31Z"/></svg>