<svg id="Layer_1" data-name="Layer 1" xmlns="http://www.w3.org/2000/svg" viewBox="0 0 269.42 297.58"><defs><style>.cls-1{fill:#032a44;}.cls-2{fill:#35b79f;}.cls-3{fill:#6f7172;}.cls-4{fill:#0d8186;}.cls-5{fill:#444;}.cls-6{font-size:19.45px;font-family:CROSSOVER;letter-spacing:0.04em;}.cls-6,.cls-8{fill:#fff;}.cls-7{letter-spacing:0.01em;}.cls-8{font-size:3.04px;font-family:MADETOMMY-Light, MADE TOMMY;font-weight:300;letter-spacing:0.15em;}.cls-9{letter-spacing:0.17em;}.cls-10{letter-spacing:0.1em;}.cls-11{letter-spacing:0.17em;}.cls-12{letter-spacing:0.16em;}.cls-13{letter-spacing:0.11em;}</style></defs><title>card</title><rect class="cls-1" width="269.42" height="297.58"/><polygon class="cls-2" points="36.52 41.28 32.35 64.56 47.95 52.92 36.52 41.28"/><polygon class="cls-3" points="36.52 38.56 63.38 38.56 42.81 28.76 36.52 38.56"/><polygon class="cls-4" points="36.52 41.28 47.95 52.92 32.35 64.56 63.38 41.42 63.38 41.28 36.52 41.28"/><polygon class="cls-5" points="42.81 28.76 63.38 38.56 22.25 18.95 36.52 38.56 42.81 28.76"/><text class="cls-6" transform="translate(42.1 56.3) scale(1.01 1)">S<tspan class="cls-7" x="13.36" y="0">O</tspan><tspan x="30.22" y="0">AR</tspan></text><text class="cls-8" transform="translate(42.76 61.58) scale(1.01 1)">A<tspan class="cls-9" x="2.4" y="0">SESORIA AMBIEN</tspan><tspan class="cls-10" x="32.83" y="0">T</tspan><tspan class="cls-11" x="34.76" y="0">AL </tspan><tspan class="cls-12" x="40.65" y="0">C</tspan><tspan class="cls-9" x="43.3" y="0">OGNITI</tspan><tspan class="cls-13" x="56.31" y="0">V</tspan><tspan class="cls-9" x="58.58" y="0">A</tspan></text></svg>