<?xml version="1.0" encoding="iso-8859-1"?>
<!-- Generator: Adobe Illustrator 24.0.3, SVG Export Plug-In . SVG Version: 6.00 Build 0)  -->
<svg version="1.1" id="Layer_1" xmlns="http://www.w3.org/2000/svg" xmlns:xlink="http://www.w3.org/1999/xlink" x="0px" y="0px"
	 viewBox="0 0 200 120" style="enable-background:new 0 0 200 120;" xml:space="preserve">
<g>
	<g>
		<polygon style="fill:#35BBA4;" points="38.096,59.442 28.571,113.2 64.201,86.326 		"/>
		<polygon style="fill:#6E6F71;" points="38.096,53.158 99.417,53.158 52.466,30.501 		"/>
		<polygon style="fill:#098187;" points="38.096,59.442 64.201,86.326 28.571,113.2 99.417,59.748 99.417,59.442 		"/>
		<polygon style="fill:#414142;" points="52.466,30.501 99.417,53.158 5.509,7.841 38.096,53.158 		"/>
	</g>
	<g>
		<path style="fill:#FFFFFF;" d="M51.835,70.088c0.06-0.689,0.239-1.475,0.539-2.359c0.299-0.883,0.809-1.722,1.527-2.516
			c0.719-0.793,1.677-1.46,2.875-1.999c1.198-0.539,2.741-0.809,4.628-0.809h16.713v7.099H61.405c-0.569,0-1.011,0.112-1.325,0.337
			c-0.315,0.225-0.502,0.487-0.562,0.786c-0.06,0.3-0.015,0.606,0.135,0.921c0.15,0.315,0.404,0.547,0.764,0.696l13.613,5.526
			c1.078,0.51,1.954,1.116,2.628,1.819c0.674,0.704,1.198,1.446,1.573,2.224c0.374,0.779,0.613,1.572,0.719,2.381
			c0.105,0.809,0.127,1.588,0.067,2.336c-0.03,0.689-0.187,1.476-0.472,2.359c-0.285,0.884-0.786,1.715-1.505,2.493
			c-0.719,0.779-1.685,1.43-2.898,1.954c-1.213,0.524-2.778,0.786-4.695,0.786H52.733v-7.099h16.803
			c0.539,0,0.966-0.105,1.281-0.314c0.314-0.209,0.501-0.456,0.562-0.741c0.06-0.284,0.023-0.584-0.112-0.899
			c-0.135-0.314-0.382-0.562-0.741-0.741l-13.703-5.391c-1.019-0.539-1.864-1.161-2.538-1.865c-0.674-0.703-1.206-1.452-1.595-2.246
			c-0.39-0.793-0.644-1.595-0.764-2.404C51.804,71.616,51.774,70.837,51.835,70.088z"/>
		<path style="fill:#FFFFFF;" d="M83.599,83.701V73.008c0-1.497,0.277-2.89,0.831-4.178c0.554-1.287,1.303-2.411,2.247-3.37
			c0.943-0.958,2.059-1.707,3.347-2.246c1.287-0.539,2.68-0.809,4.178-0.809h13.569c1.438,0,2.786,0.27,4.043,0.809
			c1.258,0.539,2.359,1.288,3.302,2.246c0.944,0.959,1.692,2.082,2.246,3.37c0.554,1.288,0.831,2.681,0.831,4.178v10.693
			c0,1.438-0.277,2.786-0.831,4.044c-0.555,1.258-1.303,2.359-2.246,3.302c-0.944,0.944-2.044,1.693-3.302,2.247
			c-1.258,0.555-2.606,0.831-4.043,0.831H94.202c-1.498,0-2.891-0.276-4.178-0.831c-1.288-0.554-2.404-1.303-3.347-2.247
			c-0.944-0.943-1.693-2.044-2.247-3.302C83.875,86.487,83.599,85.139,83.599,83.701z M110.87,83.701V73.008
			c0-0.958-0.3-1.744-0.899-2.359c-0.6-0.614-1.333-0.921-2.201-0.921H94.202c-0.899,0-1.67,0.307-2.314,0.921
			c-0.644,0.614-0.966,1.4-0.966,2.359v10.693c0,0.839,0.322,1.55,0.966,2.134c0.644,0.584,1.415,0.876,2.314,0.876h13.569
			c0.868,0,1.602-0.292,2.201-0.876C110.571,85.252,110.87,84.54,110.87,83.701z"/>
		<path style="fill:#FFFFFF;" d="M150.656,62.405h3.93v31.72h-7.323v-5.391h-17.073c-0.659,1.917-1.108,3.714-1.348,5.391h-7.548
			c0.209-2.516,0.734-5.055,1.573-7.615c0.838-2.561,1.932-5.017,3.28-7.368c1.348-2.351,2.92-4.545,4.718-6.582
			c1.797-2.037,3.744-3.804,5.841-5.302c2.096-1.497,4.328-2.68,6.694-3.55C145.764,62.84,148.183,62.405,150.656,62.405z
			 M147.262,69.773c-1.438,0.3-2.808,0.817-4.111,1.55c-1.303,0.734-2.531,1.617-3.684,2.651c-1.153,1.034-2.224,2.187-3.212,3.46
			c-0.988,1.273-1.887,2.599-2.696,3.976h13.703V69.773z"/>
		<path style="fill:#FFFFFF;" d="M183.983,94.125l-5.561-11.816H167.57v11.816h-7.324V74.85h21.431c0.569,0,1.048-0.082,1.438-0.247
			c0.389-0.164,0.689-0.367,0.899-0.607c0.209-0.239,0.359-0.501,0.449-0.786c0.09-0.284,0.135-0.562,0.135-0.831
			s-0.045-0.562-0.135-0.876c-0.09-0.314-0.247-0.599-0.472-0.853c-0.225-0.254-0.525-0.472-0.899-0.652
			c-0.375-0.18-0.847-0.27-1.415-0.27h-21.431v-7.323h21.401c1.525,0,2.953,0.27,4.284,0.809c1.331,0.539,2.445,1.288,3.343,2.246
			c0.868,1.019,1.525,2.112,1.974,3.28c0.448,1.168,0.673,2.381,0.673,3.639c0,1.139-0.225,2.299-0.672,3.482
			c-0.449,1.184-1.106,2.299-1.973,3.347c-0.418,0.479-0.875,0.899-1.368,1.258c-0.494,0.359-1.024,0.659-1.591,0.899l6.01,12.76
			H183.983z"/>
	</g>
	<g>
		<path style="fill:#FFFFFF;" d="M55.708,104.953H53.47l-0.512,1.375h-0.4l1.831-4.911h0.4l1.831,4.911h-0.4L55.708,104.953z
			 M55.568,104.575l-0.975-2.617l-0.982,2.617H55.568z"/>
		<path style="fill:#FFFFFF;" d="M61.407,105.01c0,0.653-0.463,1.41-1.6,1.41c-0.884,0-1.48-0.562-1.642-1.123l0.358-0.112
			c0.112,0.4,0.547,0.856,1.284,0.856c0.737,0,1.221-0.4,1.221-1.031c0-0.589-0.463-0.765-1.172-0.954
			c-0.653-0.175-1.494-0.421-1.494-1.354c0-0.8,0.652-1.368,1.41-1.368c0.688,0,1.207,0.365,1.417,1.024l-0.365,0.091
			c-0.161-0.498-0.526-0.744-1.052-0.744c-0.554,0-1.031,0.4-1.031,0.996c0,0.596,0.47,0.793,1.214,0.989
			C60.621,103.873,61.407,104.105,61.407,105.01z"/>
		<path style="fill:#FFFFFF;" d="M66.151,105.957v0.372h-2.708v-4.911h2.645v0.379h-2.273v1.803h2.112v0.372h-2.112v1.985H66.151z"
			/>
		<path style="fill:#FFFFFF;" d="M71.218,105.01c0,0.653-0.463,1.41-1.6,1.41c-0.884,0-1.48-0.562-1.642-1.123l0.358-0.112
			c0.112,0.4,0.547,0.856,1.284,0.856c0.737,0,1.221-0.4,1.221-1.031c0-0.589-0.463-0.765-1.172-0.954
			c-0.653-0.175-1.494-0.421-1.494-1.354c0-0.8,0.652-1.368,1.41-1.368c0.688,0,1.207,0.365,1.417,1.024l-0.365,0.091
			c-0.161-0.498-0.526-0.744-1.052-0.744c-0.554,0-1.031,0.4-1.031,0.996c0,0.596,0.47,0.793,1.214,0.989
			C70.433,103.873,71.218,104.105,71.218,105.01z"/>
		<path style="fill:#FFFFFF;" d="M78.005,103.873c0,1.403-1.081,2.547-2.484,2.547c-1.403,0-2.477-1.144-2.477-2.547
			c0-1.403,1.073-2.54,2.477-2.54C76.924,101.333,78.005,102.47,78.005,103.873z M77.633,103.873c0-1.193-0.912-2.168-2.112-2.168
			c-1.193,0-2.105,0.975-2.105,2.168c0,1.2,0.912,2.168,2.105,2.168C76.721,106.041,77.633,105.073,77.633,103.873z"/>
		<path style="fill:#FFFFFF;" d="M83.051,106.329l-1.284-2.07c-0.091,0.007-0.189,0.014-0.288,0.014h-0.996v2.056h-0.372v-4.911
			h1.368c1.073,0,1.719,0.526,1.719,1.431c0,0.688-0.379,1.158-1.038,1.34l1.326,2.14H83.051z M81.48,103.901
			c0.863,0,1.347-0.358,1.347-1.053c0-0.701-0.484-1.052-1.347-1.052h-0.996v2.105H81.48z"/>
		<path style="fill:#FFFFFF;" d="M85.831,101.417v4.911h-0.379v-4.911H85.831z"/>
		<path style="fill:#FFFFFF;" d="M90.947,104.953h-2.238l-0.512,1.375h-0.4l1.831-4.911h0.4l1.831,4.911h-0.4L90.947,104.953z
			 M90.806,104.575l-0.975-2.617l-0.982,2.617H90.806z"/>
		<path style="fill:#FFFFFF;" d="M99.782,104.953h-2.238l-0.512,1.375h-0.4l1.831-4.911h0.4l1.831,4.911h-0.4L99.782,104.953z
			 M99.642,104.575l-0.975-2.617l-0.982,2.617H99.642z"/>
		<path style="fill:#FFFFFF;" d="M107.565,101.417v4.911h-0.372v-4.21l-1.992,2.961h-0.176l-1.992-2.961v4.21h-0.372v-4.911h0.372
			l2.084,3.073l2.077-3.073H107.565z"/>
		<path style="fill:#FFFFFF;" d="M113.159,104.968c0,0.898-0.701,1.361-1.607,1.361h-1.67v-4.911h1.564
			c0.905,0,1.46,0.533,1.46,1.27c0,0.484-0.267,0.849-0.73,1.031v0.021C112.759,103.901,113.159,104.301,113.159,104.968z
			 M110.254,101.796v1.803h1.193c0.695,0,1.088-0.379,1.088-0.912c0-0.526-0.393-0.891-1.088-0.891H110.254z M112.787,104.968
			c0-0.702-0.54-1.003-1.235-1.003h-1.298v1.992h1.298C112.247,105.957,112.787,105.662,112.787,104.968z"/>
		<path style="fill:#FFFFFF;" d="M115.574,101.417v4.911h-0.379v-4.911H115.574z"/>
		<path style="fill:#FFFFFF;" d="M120.598,105.957v0.372h-2.708v-4.911h2.645v0.379h-2.273v1.803h2.112v0.372h-2.112v1.985H120.598z
			"/>
		<path style="fill:#FFFFFF;" d="M126.437,101.417v4.911h-0.372l-2.989-4.273v4.273h-0.372v-4.911h0.372l2.989,4.273v-4.273H126.437
			z"/>
		<path style="fill:#FFFFFF;" d="M131.603,101.796h-1.347v4.532h-0.372v-4.532h-1.34v-0.379h3.059V101.796z"/>
		<path style="fill:#FFFFFF;" d="M136.017,104.953h-2.238l-0.512,1.375h-0.4l1.831-4.911h0.4l1.831,4.911h-0.4L136.017,104.953z
			 M135.877,104.575l-0.975-2.617l-0.982,2.617H135.877z"/>
		<path style="fill:#FFFFFF;" d="M141.554,105.957v0.372h-2.659v-4.911h0.379v4.539H141.554z"/>
		<path style="fill:#FFFFFF;" d="M150.699,105.283l0.316,0.21c-0.449,0.561-1.137,0.926-1.922,0.926
			c-1.403,0-2.484-1.144-2.484-2.547c0-1.403,1.081-2.54,2.484-2.54c0.786,0,1.473,0.358,1.922,0.926l-0.316,0.203
			c-0.379-0.463-0.947-0.758-1.607-0.758c-1.199,0-2.105,0.975-2.105,2.168c0,1.2,0.905,2.168,2.105,2.168
			C149.751,106.041,150.32,105.746,150.699,105.283z"/>
		<path style="fill:#FFFFFF;" d="M157.696,103.873c0,1.403-1.08,2.547-2.484,2.547s-2.477-1.144-2.477-2.547
			c0-1.403,1.073-2.54,2.477-2.54S157.696,102.47,157.696,103.873z M157.324,103.873c0-1.193-0.912-2.168-2.112-2.168
			c-1.193,0-2.105,0.975-2.105,2.168c0,1.2,0.912,2.168,2.105,2.168C156.412,106.041,157.324,105.073,157.324,103.873z"/>
		<path style="fill:#FFFFFF;" d="M164.342,103.677v2.652h-0.246l-0.091-1.038c-0.344,0.688-0.996,1.13-1.929,1.13
			c-1.403,0-2.484-1.144-2.484-2.547c0-1.403,1.081-2.54,2.484-2.54c0.786,0,1.473,0.358,1.922,0.926l-0.316,0.203
			c-0.379-0.463-0.954-0.758-1.607-0.758c-1.199,0-2.112,0.975-2.112,2.168c0,1.2,0.912,2.168,2.112,2.168
			c1.214,0,1.873-0.87,1.894-1.993h-1.761v-0.372H164.342z"/>
		<path style="fill:#FFFFFF;" d="M170.322,101.417v4.911h-0.372l-2.989-4.273v4.273h-0.372v-4.911h0.372l2.989,4.273v-4.273H170.322
			z"/>
		<path style="fill:#FFFFFF;" d="M173.018,101.417v4.911h-0.379v-4.911H173.018z"/>
		<path style="fill:#FFFFFF;" d="M178.182,101.796h-1.347v4.532h-0.372v-4.532h-1.34v-0.379h3.059V101.796z"/>
		<path style="fill:#FFFFFF;" d="M180.667,101.417v4.911h-0.379v-4.911H180.667z"/>
		<path style="fill:#FFFFFF;" d="M186.695,101.417l-1.831,4.911h-0.4l-1.831-4.911h0.4l1.628,4.378l1.635-4.378H186.695z"/>
		<path style="fill:#FFFFFF;" d="M191.039,104.953h-2.238l-0.512,1.375h-0.4l1.831-4.911h0.4l1.831,4.911h-0.4L191.039,104.953z
			 M190.899,104.575l-0.975-2.617l-0.982,2.617H190.899z"/>
	</g>
</g>
<g>
</g>
<g>
</g>
<g>
</g>
<g>
</g>
<g>
</g>
<g>
</g>
</svg>
