<svg id="Layer_1" data-name="Layer 1" xmlns="http://www.w3.org/2000/svg" viewBox="0 0 200 120"><defs><style>.cls-1{fill:#35bba4;}.cls-2{fill:#6e6f71;}.cls-3{fill:#098187;}.cls-4{fill:#414142;}.cls-5{fill:#fff;}</style></defs><title>logo-nav01</title><polygon class="cls-1" points="38.1 59.44 28.57 113.2 64.2 86.33 38.1 59.44"/><polygon class="cls-2" points="38.1 53.16 99.42 53.16 52.47 30.5 38.1 53.16"/><polygon class="cls-3" points="38.1 59.44 64.2 86.33 28.57 113.2 99.42 59.75 99.42 59.44 38.1 59.44"/><polygon class="cls-4" points="52.47 30.5 99.42 53.16 5.51 7.84 38.1 53.16 52.47 30.5"/><path class="cls-5" d="M51.83,70.09a10.18,10.18,0,0,1,.54-2.36,7.3,7.3,0,0,1,1.53-2.52,8.62,8.62,0,0,1,2.88-2,11.3,11.3,0,0,1,4.62-.8H78.12V69.5H61.4a2.28,2.28,0,0,0-1.32.34,1.28,1.28,0,0,0-.56.79,1.44,1.44,0,0,0,.13.92,1.42,1.42,0,0,0,.77.69L74,77.77a8.93,8.93,0,0,1,2.63,1.82,8.68,8.68,0,0,1,1.57,2.22A8.11,8.11,0,0,1,79,84.2,11.46,11.46,0,0,1,79,86.53a8.91,8.91,0,0,1-.48,2.36A6.57,6.57,0,0,1,77,91.38a8.54,8.54,0,0,1-2.9,2,12,12,0,0,1-4.69.78H52.73V87H69.54a2.29,2.29,0,0,0,1.28-.32,1.2,1.2,0,0,0,.56-.74,1.52,1.52,0,0,0-.11-.9,1.54,1.54,0,0,0-.75-.74l-13.7-5.39a9.84,9.84,0,0,1-2.54-1.87,9,9,0,0,1-1.59-2.24,8.24,8.24,0,0,1-.77-2.41A10.22,10.22,0,0,1,51.83,70.09Z"/><path class="cls-5" d="M83.6,83.7V73a10.54,10.54,0,0,1,.83-4.18,10.7,10.7,0,0,1,2.25-3.37A10.14,10.14,0,0,1,90,63.21a10.7,10.7,0,0,1,4.18-.8h13.57a10.08,10.08,0,0,1,4,.8,10.33,10.33,0,0,1,3.31,2.25,10.85,10.85,0,0,1,2.24,3.37,10.37,10.37,0,0,1,.83,4.18V83.7a9.77,9.77,0,0,1-.83,4,10.56,10.56,0,0,1-5.55,5.55,9.77,9.77,0,0,1-4,.83H94.2A10.37,10.37,0,0,1,90,93.29a10.54,10.54,0,0,1-5.59-5.55A9.93,9.93,0,0,1,83.6,83.7Zm27.27,0V73a3.23,3.23,0,0,0-.9-2.36,3,3,0,0,0-2.2-.92H94.2a3.23,3.23,0,0,0-2.31.92,3.09,3.09,0,0,0-1,2.36V83.7a2.78,2.78,0,0,0,1,2.14,3.32,3.32,0,0,0,2.31.87h13.57a3,3,0,0,0,2.2-.87A2.89,2.89,0,0,0,110.87,83.7Z"/><path class="cls-5" d="M150.66,62.41h3.93V94.12h-7.33V88.73H130.19a29.69,29.69,0,0,0-1.35,5.39h-7.55a33.29,33.29,0,0,1,1.58-7.61,38.81,38.81,0,0,1,3.28-7.37,40.05,40.05,0,0,1,4.71-6.58,35,35,0,0,1,5.84-5.3,28.18,28.18,0,0,1,6.7-3.55A20.83,20.83,0,0,1,150.66,62.41Zm-3.4,7.36a14.32,14.32,0,0,0-4.11,1.55A21.28,21.28,0,0,0,139.47,74a26.54,26.54,0,0,0-3.22,3.46,39.11,39.11,0,0,0-2.69,4h13.7Z"/><path class="cls-5" d="M184,94.12l-5.56-11.81H167.57V94.12h-7.32V74.85h21.43a3.61,3.61,0,0,0,1.44-.25A2.4,2.4,0,0,0,184,74a2.16,2.16,0,0,0,.45-.79,2.73,2.73,0,0,0,.14-.83,3.27,3.27,0,0,0-.14-.88,2.1,2.1,0,0,0-.47-.85,2.75,2.75,0,0,0-.9-.65,3.22,3.22,0,0,0-1.41-.27H160.25V62.41h21.4a11.27,11.27,0,0,1,4.28.8,9.2,9.2,0,0,1,3.34,2.25,11.27,11.27,0,0,1,2,3.28,10,10,0,0,1,.67,3.64,9.71,9.71,0,0,1-.67,3.48,12.08,12.08,0,0,1-2,3.35,8.53,8.53,0,0,1-1.37,1.26,8.33,8.33,0,0,1-1.59.9l6,12.75Z"/><path class="cls-5" d="M55.71,105H53.47L53,106.33h-.4l1.83-4.91h.4l1.83,4.91h-.4Zm-.14-.38-1-2.61-1,2.61Z"/><path class="cls-5" d="M61.41,105a1.44,1.44,0,0,1-1.6,1.41,1.65,1.65,0,0,1-1.64-1.12l.35-.11a1.3,1.3,0,0,0,1.29.85c.73,0,1.22-.4,1.22-1s-.46-.77-1.17-1-1.5-.43-1.5-1.36a1.37,1.37,0,0,1,1.41-1.37,1.41,1.41,0,0,1,1.42,1l-.37.09a1.07,1.07,0,0,0-2.08.25c0,.6.47.79,1.21,1S61.41,104.1,61.41,105Z"/><path class="cls-5" d="M66.15,106v.37H63.44v-4.91h2.65v.38H63.82v1.8h2.11V104H63.82v2Z"/><path class="cls-5" d="M71.22,105a1.44,1.44,0,0,1-1.6,1.41A1.65,1.65,0,0,1,68,105.3l.35-.11a1.3,1.3,0,0,0,1.29.85c.74,0,1.22-.4,1.22-1s-.46-.77-1.17-1-1.5-.43-1.5-1.36a1.38,1.38,0,0,1,1.41-1.37,1.41,1.41,0,0,1,1.42,1l-.36.09a1,1,0,0,0-1.06-.74,1,1,0,0,0-1,1c0,.6.47.79,1.22,1S71.22,104.1,71.22,105Z"/><path class="cls-5" d="M78,103.87a2.48,2.48,0,1,1-2.48-2.54A2.5,2.5,0,0,1,78,103.87Zm-.37,0A2.11,2.11,0,1,0,75.52,106,2.12,2.12,0,0,0,77.63,103.87Z"/><path class="cls-5" d="M83.05,106.33l-1.28-2.07H80.48v2.06h-.37v-4.91h1.37c1.07,0,1.72.52,1.72,1.43a1.31,1.31,0,0,1-1,1.34l1.33,2.14Zm-1.57-2.43c.86,0,1.35-.36,1.35-1.05s-.49-1-1.35-1h-1v2.1Z"/><path class="cls-5" d="M85.83,101.42v4.91h-.38v-4.91Z"/><path class="cls-5" d="M91,105H88.71l-.51,1.38h-.4l1.83-4.91H90l1.83,4.91h-.4Zm-.14-.38-1-2.61-1,2.61Z"/><path class="cls-5" d="M99.78,105H97.54L97,106.33h-.4l1.83-4.91h.4l1.83,4.91h-.4Zm-.14-.38-1-2.61-1,2.61Z"/><path class="cls-5" d="M107.56,101.42v4.91h-.37v-4.21l-2,3H105l-2-3v4.21h-.37v-4.91H103l2.09,3.07,2.07-3.07Z"/><path class="cls-5" d="M113.16,105c0,.9-.7,1.36-1.61,1.36h-1.67v-4.91h1.57a1.3,1.3,0,0,1,1.46,1.27,1.07,1.07,0,0,1-.73,1v0A1.21,1.21,0,0,1,113.16,105Zm-2.91-3.17v1.8h1.2c.69,0,1.08-.38,1.08-.91s-.39-.89-1.08-.89Zm2.54,3.17c0-.7-.54-1-1.24-1h-1.3v2h1.3C112.25,106,112.79,105.66,112.79,105Z"/><path class="cls-5" d="M115.57,101.42v4.91h-.37v-4.91Z"/><path class="cls-5" d="M120.6,106v.37h-2.71v-4.91h2.65v.38h-2.28v1.8h2.11V104h-2.11v2Z"/><path class="cls-5" d="M126.44,101.42v4.91h-.37l-3-4.27v4.27h-.38v-4.91h.38l3,4.27v-4.27Z"/><path class="cls-5" d="M131.6,101.8h-1.34v4.53h-.38V101.8h-1.34v-.38h3.06Z"/><path class="cls-5" d="M136,105h-2.24l-.51,1.38h-.4l1.83-4.91h.4l1.83,4.91h-.4Zm-.14-.38-1-2.61-1,2.61Z"/><path class="cls-5" d="M141.55,106v.37H138.9v-4.91h.37V106Z"/><path class="cls-5" d="M150.7,105.28l.31.21a2.43,2.43,0,0,1-1.92.93,2.55,2.55,0,0,1,0-5.09,2.4,2.4,0,0,1,1.92.93l-.31.2a2.06,2.06,0,0,0-1.61-.75,2.17,2.17,0,0,0,0,4.33A2,2,0,0,0,150.7,105.28Z"/><path class="cls-5" d="M157.7,103.87a2.48,2.48,0,1,1-2.49-2.54A2.5,2.5,0,0,1,157.7,103.87Zm-.38,0a2.11,2.11,0,1,0-2.11,2.17A2.12,2.12,0,0,0,157.32,103.87Z"/><path class="cls-5" d="M164.34,103.68v2.65h-.24l-.09-1a2,2,0,0,1-1.93,1.13,2.55,2.55,0,0,1,0-5.09,2.43,2.43,0,0,1,1.92.93l-.32.2a2.06,2.06,0,0,0-1.6-.75,2.17,2.17,0,0,0,0,4.33,1.84,1.84,0,0,0,1.89-2h-1.76v-.37Z"/><path class="cls-5" d="M170.32,101.42v4.91H170l-3-4.27v4.27h-.37v-4.91H167l3,4.27v-4.27Z"/><path class="cls-5" d="M173,101.42v4.91h-.38v-4.91Z"/><path class="cls-5" d="M178.18,101.8h-1.34v4.53h-.38V101.8h-1.34v-.38h3.06Z"/><path class="cls-5" d="M180.67,101.42v4.91h-.38v-4.91Z"/><path class="cls-5" d="M186.69,101.42l-1.83,4.91h-.4l-1.83-4.91h.4l1.63,4.38,1.63-4.38Z"/><path class="cls-5" d="M191,105H188.8l-.51,1.38h-.4l1.83-4.91h.4l1.83,4.91h-.4Zm-.14-.38-1-2.61-1,2.61Z"/></svg>