<?xml version="1.0" encoding="utf-8"?>
<!-- Generator: Adobe Illustrator 24.0.3, SVG Export Plug-In . SVG Version: 6.00 Build 0)  -->
<svg version="1.1" id="Layer_1" xmlns="http://www.w3.org/2000/svg" xmlns:xlink="http://www.w3.org/1999/xlink" x="0px" y="0px"
	 viewBox="0 0 500 500" style="enable-background:new 0 0 500 500;" xml:space="preserve">
<style type="text/css">
	.st0{display:none;}
	.st1{fill:#5B5B5B;}
	.st2{clip-path:url(#SVGID_2_);fill:#231F20;}
	.st3{clip-path:url(#SVGID_2_);fill:#0075C9;}
	.st4{clip-path:url(#SVGID_2_);fill:#FF4D00;}
	.st5{clip-path:url(#SVGID_2_);fill:#FFFFFF;}
	.st6{fill:#FFFFFF;}
</style>
<rect x="-171.7" y="-1752.6" class="st0" width="1391.5" height="2478.2"/>
<g>
	<path class="st1" d="M429.4,414.7h-357V77.6h357V414.7z M80.4,406.7h341.1V85.5H80.4V406.7z"/>
	<path class="st1" d="M274.1,156.7c6.7,2.2,13.1,4.9,19,8.6l6.8-7.4l5.1,14.8c5.9,3.9,11.8,8.6,17.4,14l-15.1-1l1.4,23.7l-12.4-23.2
		l-20.1,1.9l11.9-14.4C284.2,167.3,279.6,161.6,274.1,156.7"/>
	<path class="st1" d="M336.5,229.7l-9.4,2.2l-7.6-12.6c0.7,5,0.8,9.8,0.6,14.4l-10.8,3.8l10.5,5.9l-1.4,14.4l7.9-10.5l8.7,7.2
		l-4.7-14.1L336.5,229.7z"/>
	<polygon class="st1" points="335.6,204.1 329.2,205.9 337.2,209.3 340.2,218.6 341.4,213.1 346.7,217.5 342.4,208.1 344,201.8 
		338.5,203.2 331.8,196.4 	"/>
	<path class="st1" d="M357.7,261.5l6.5-8.9l-6.8-3.9c-0.5-8.4-1.8-15.6-4-21.3c0.3,6.4-1.8,19-1.8,19c-3.3-1.7-7.2-2.8-11.6-3.3
		c3.7,3.7,6.6,8.6,8.7,14.7c-1.9,7.2-4.4,13-7.5,17.2l11-7.8c0,0,2.8,9.1,2.9,14.2C356.9,275.9,357.7,269.2,357.7,261.5"/>
	<path class="st1" d="M343.5,293.6c-1.2,1.9-3.5,3.7-6.6,5.7c2.5-0.5,4.2-0.5,5.4-0.3c-0.5,3.1-1.3,5.9-2.2,8.5l5.1-8.7l4.3-0.7
		l-1.5-5.6l4.1-9c-1.5,2.3-3.1,4.4-5.1,6.4l-2.7-4.7L343.5,293.6z"/>
	<path class="st1" d="M294.3,217.2l3.6,9.3l1.9-5.8c3.2,1.8,6,3.7,8.5,5.8l-7.6-8.9l0.9-4.9l-5.5,0l-8.7-7.5l4.8,7.5L285,213
		L294.3,217.2z"/>
	<path class="st1" d="M165,308.9c-17.3,0-28.3-12-28.3-29c0-17,11-29,28.3-29c10.9,0,18.2,3.7,22.8,10.5l-8.9,4.7
		c-3.4-4.6-7-6.8-13.9-6.8c-11.7,0-18,7.9-18,20.5c0,12.6,6.3,20.5,18,20.5c7,0,11.3-2.4,14.7-7l8.3,4.7
		C183.2,305.1,175.1,308.9,165,308.9"/>
	<path class="st1" d="M225,308v-23.8c0-8.5-3.8-11.6-10.3-11.6c-6.6,0-10.3,3.9-10.3,10.8V308h-9.9v-54.2l9.9-4.3v20.4
		c2.5-3,7.5-4.9,12.6-4.9c11.7,0,17.9,6.4,17.9,18.9V308H225z"/>
	<polygon class="st1" points="260.6,308 260.6,253.9 270.4,249.5 270.4,308 	"/>
	<polygon class="st1" points="242.9,266.1 242.9,262 252.7,257.6 252.7,266.1 	"/>
	<path class="st1" d="M297.8,271.8c-6.5,0-10.5,3.8-11.3,10.4h23C309.1,276.5,305.8,271.8,297.8,271.8 M319,288.9h-32.7
		c1,8,6.4,11.4,12.4,11.4c4.1,0,7.4-1.3,10.7-3.3l5.8,5.2c-4.3,3.5-9.5,5.5-17.1,5.5c-11.6,0-21.4-7.8-21.4-21.6
		c0-14.1,8.8-21.7,21.7-21.7c14,0,20.8,9.6,20.8,20.8C319.3,286.7,319.1,288,319,288.9"/>
	<rect x="242.9" y="269.1" class="st1" width="9.9" height="38.9"/>
</g>
</svg>
