<?xml version="1.0" encoding="utf-8"?>
<!-- Generator: Adobe Illustrator 24.0.3, SVG Export Plug-In . SVG Version: 6.00 Build 0)  -->
<svg version="1.1" id="Layer_1" xmlns="http://www.w3.org/2000/svg" xmlns:xlink="http://www.w3.org/1999/xlink" x="0px" y="0px"
	 viewBox="0 0 500 500" style="enable-background:new 0 0 500 500;" xml:space="preserve">
<style type="text/css">
	.st0{display:none;}
	.st1{fill:#5B5B5B;}
	.st2{clip-path:url(#SVGID_2_);fill:#231F20;}
	.st3{clip-path:url(#SVGID_2_);fill:#0075C9;}
	.st4{clip-path:url(#SVGID_2_);fill:#FF4D00;}
	.st5{clip-path:url(#SVGID_2_);fill:#FFFFFF;}
	.st6{fill:#FFFFFF;}
</style>
<rect x="-171.7" y="-192.6" class="st0" width="1391.5" height="2478.2"/>
<g>
	<path class="st1" d="M381.8,289.5c15.5-1,28.7-6.8,39.2-17.3c11.7-11.6,17.6-26.3,17.6-44.1c0-16.2-4.6-30.1-14.5-41.1
		c-0.3-0.3-0.8-0.6-1.2-0.6c-0.9,0-1.6,0.7-1.6,1.6c0,0.2,0,0.3,0.1,0.4c7.3,19.6,3,39.2-9.8,44.4c-9,3.6-19.9-0.8-28.5-10.3
		c-0.6-0.6-1.7-0.7-2.4,0c-0.6,0.6-0.6,1.5-0.2,2.1c0,0,0.2,0.2,0.2,0.2c7.4,8.4,11.2,18.8,11.2,31c0,12.2-3.7,22.4-11.2,30.7
		c-0.3,0.3-0.5,0.7-0.5,1.2C380.2,288.8,381,289.5,381.8,289.5z"/>
	<path class="st1" d="M261.4,284.1c-1.3-1.9-3-4.7-5.2-8.4c-3.4-5.9-6.1-10.1-8-12.5c-1.9-2.4-3.8-4.3-5.8-5.6
		c3.4-1.4,6.5-3.5,8.3-6.2c1.8-2.8,2.7-6.1,2.7-9.9c0-5.6-1.8-10.1-5.5-13.3c-3.7-3.3-9.2-4.9-15.5-4.9h-15.5v65.7h9.6v-28.6h0.7
		c2.9,0,4.9,0.4,6.2,1.1c1.2,0.7,2.6,1.9,4.1,3.5c1.5,1.6,3.2,3.7,5,6.4l3,5.1l2.7,4.8l1.7,2.6c0.3,0.4,0.4,0.6,0.5,0.8l2.7,4.3
		h11.3L261.4,284.1z M238.8,249.8c-1.5,0.7-4.9,1.1-9,1.1h-3.1V232h2.4c3.9,0,7.4,0.3,9.1,0.9c1.7,0.6,3,1.7,4,3.2
		c0.9,1.5,1.4,3.2,1.4,5.1c0,1.9-0.4,3.6-1.3,5.1C241.5,247.9,240.3,249.1,238.8,249.8z"/>
	<path class="st1" d="M272.7,223.1h32.9v9.3h-23.2v16.6h23.2v9.2h-23.2v30.6h-9.8V223.1z"/>
	<path class="st1" d="M197.3,231.8c-6.3-6.4-14.3-9.6-23.8-9.6c-9.5,0-17.4,3.2-23.7,9.6c-6.2,6.4-9.4,14.5-9.4,24.4
		c0,9.6,3.1,17.5,9.3,23.9c6.2,6.3,14,9.5,23.3,9.5c9.7,0,17.8-3.2,24.2-9.5c6.4-6.3,9.6-14.4,9.6-24
		C206.9,246.3,203.7,238.2,197.3,231.8z M190.2,273.7c-4.4,4.8-10,7.2-16.6,7.2c-6.6,0-12.1-2.4-16.5-7.1
		c-4.4-4.7-6.6-10.6-6.6-17.7c0-7.3,2.2-13.3,6.6-18.1c4.4-4.7,10-7.1,16.7-7.1c6.4,0,11.9,2.4,16.3,7.1c4.4,4.8,6.6,10.6,6.6,17.6
		C196.8,262.9,194.6,268.9,190.2,273.7z"/>
	<path class="st1" d="M371.4,231.8c-6.3-6.4-14.3-9.6-23.8-9.6s-17.4,3.2-23.7,9.6c-6.2,6.4-9.4,14.5-9.4,24.4
		c0,9.6,3.1,17.5,9.3,23.9c6.2,6.3,14,9.5,23.3,9.5c9.8,0,17.8-3.2,24.2-9.5c6.4-6.3,9.6-14.4,9.6-24
		C380.9,246.3,377.8,238.2,371.4,231.8z M364.2,273.7c-4.4,4.8-10,7.2-16.6,7.2c-6.6,0-12.1-2.4-16.5-7.1
		c-4.4-4.7-6.6-10.6-6.6-17.7c0-7.3,2.2-13.3,6.6-18.1c4.4-4.7,10-7.1,16.7-7.1c6.4,0,11.9,2.4,16.3,7.1c4.4,4.8,6.6,10.6,6.6,17.6
		C370.9,262.9,368.7,268.9,364.2,273.7z"/>
	<path class="st1" d="M131.4,273.7c-5,4.8-11.3,7.2-18.8,7.2c-7.5,0-13.7-2.4-18.7-7.1c-5-4.7-7.5-10.6-7.5-17.7
		c0-7.3,2.5-13.3,7.5-18.1c5-4.7,11.3-7.1,19-7.1c7.3,0,13.5,2.4,18.5,7.1c0.1,0.1,0.1,0.1,0.2,0.2v-0.5v-9.2v-0.9
		c-7.9-3.6-15.1-5.4-21.6-5.4c-9.4,0-17.3,3.3-23.7,9.8c-6.4,6.5-9.6,14.6-9.6,24.1c0,6,1.4,11.6,4.2,16.8
		c2.8,5.2,6.6,9.2,11.4,12.2c4.8,2.9,10.7,4.4,17.6,4.4c8.5,0,16-1.9,22.5-5.6V283v-9.4V273c0,0-0.1,0-0.1,0
		C131.9,273.3,131.7,273.5,131.4,273.7z"/>
	<path class="st1" d="M413.9,208.3c-2.3-2.3-5.1-3.4-8.5-3.4c-3.4,0-6.2,1.1-8.4,3.4c-2.2,2.3-3.3,5.2-3.3,8.7
		c0,3.4,1.1,6.2,3.3,8.5c2.2,2.3,5,3.4,8.3,3.4c3.5,0,6.3-1.1,8.6-3.4c2.3-2.3,3.4-5.1,3.4-8.6C417.3,213.4,416.2,210.6,413.9,208.3
		z"/>
</g>
</svg>
