<?xml version="1.0" encoding="utf-8"?>
<!-- Generator: Adobe Illustrator 24.0.3, SVG Export Plug-In . SVG Version: 6.00 Build 0)  -->
<svg version="1.1" id="Layer_1" xmlns="http://www.w3.org/2000/svg" xmlns:xlink="http://www.w3.org/1999/xlink" x="0px" y="0px"
	 viewBox="0 0 500 500" style="enable-background:new 0 0 500 500;" xml:space="preserve">
<style type="text/css">
	.st0{display:none;}
	.st1{fill:#5B5B5B;}
	.st2{clip-path:url(#SVGID_2_);fill:#231F20;}
	.st3{clip-path:url(#SVGID_2_);fill:#0075C9;}
	.st4{clip-path:url(#SVGID_2_);fill:#FF4D00;}
	.st5{clip-path:url(#SVGID_2_);fill:#FFFFFF;}
	.st6{fill:#FFFFFF;}
</style>
<rect x="-691.7" y="-1232.6" class="st0" width="1391.5" height="2478.2"/>
<g>
	<path d="M473.5,291.1c-0.4,0.2-0.9,0.3-1.4,0.4c1.2,0.2,2.3,0.6,3.4,1.4c0-0.4,0-0.7,0-1.1C474.6,292.2,474.1,291.7,473.5,291.1z"
		/>
	<path class="st1" d="M473.2,290.4c-10.5-26.1-20.1-52.6-30.1-78.9c-1.4-3.8-2.5-7.8-4.8-10.9c-3-1.5-5.7-1.5-8.6-0.2
		c-2.9,3-3.6,7.2-5,11c-9.1,24.1-18.2,48.1-27.2,72.2c-0.9,2.3-2.7,4.6-1.3,7.4c4,0.7,8,1.1,11.9-0.5c3.3-3.6,3.9-8.5,5.6-12.7
		c1.8-4.6,4.7-6.8,9.7-6.6c7.1,0.2,14.2,0.2,21.3,0c4.9-0.1,7.5,2.1,9.2,6.4c1.8,4.5,2.3,9.8,6.4,13.1c0.5-0.1,1-0.2,1.4-0.2
		C465.6,290.2,469.4,289.5,473.2,290.4z M422.7,259.1c3.6-11.1,7.1-21.7,11.2-34c4.1,12.2,7.6,22.9,11.3,34
		C437.5,259.1,430.5,259.1,422.7,259.1z"/>
	<path d="M472.2,291.6c-3.8-0.8-7.9,0.5-11.7-0.8c-0.1,0-0.1-0.1-0.2-0.1c-0.9,0.3-1.6,0.8-1.6,2.2c0,0,0,0,0,0
		C463,290.6,467.8,292.7,472.2,291.6z"/>
	<path d="M473.4,290.9c0.1,0.1,0.1,0.2,0.2,0.2c0.3-0.1,0.5-0.2,0.8-0.4c-0.4-0.1-0.8-0.2-1.2-0.3
		C473.2,290.6,473.3,290.8,473.4,290.9z"/>
	<path d="M167.9,237.7C168,237.7,168,237.8,167.9,237.7c0-0.1-0.1-0.2-0.2-0.3C167.8,237.5,167.9,237.6,167.9,237.7z"/>
	<path d="M393.6,292.8c5.2-0.8,10.4-0.7,15.6-0.1C403.9,291.3,398.7,291.2,393.6,292.8z"/>
	<path d="M129.4,292.8c2.2-0.7,4.4-0.7,6.6,0C133.8,291.3,131.6,291.4,129.4,292.8z"/>
	<path d="M167.6,237C167.6,237,167.6,237,167.6,237C167.6,237,167.6,237,167.6,237L167.6,237C167.5,237,167.6,237,167.6,237
		C167.6,237,167.6,237,167.6,237c0,0.1,0.1,0.2,0.2,0.4C167.7,237.3,167.7,237.2,167.6,237z"/>
	<g>
		<path d="M177.1,244.4c-0.2-0.1-0.4-0.2-0.6-0.3c0,0.2,0,0.5,0.1,0.8c0,0,0,0,0,0C176.7,244.7,176.9,244.5,177.1,244.4z"/>
		<path d="M172.2,241.3c0,0-0.1-0.1-0.1-0.1c-0.1,0.1-0.1,0.2-0.1,0.4c0,0,0,0,0,0C172,241.5,172.1,241.4,172.2,241.3z"/>
		<path d="M231.5,217.9C231.5,217.9,231.5,218,231.5,217.9c2.9-2.3,6.3-3.9,9.5-5.8c0.1-0.1,0.2-0.1,0.3-0.2
			c-0.1-0.1-0.1-0.1-0.2-0.2C237.9,213.8,234.2,215.2,231.5,217.9z"/>
		<path d="M173.2,240.4c-0.3,0.2-0.6,0.3-0.8,0.5c0.1,0,0.1,0.1,0.2,0.1C172.7,240.9,172.9,240.7,173.2,240.4z"/>
		<path d="M241.2,211.6c0.1,0,0.2,0.1,0.3,0.1c1-0.5,2.1-0.6,3-1c0,0,0.1,0,0.1,0c-0.1,0-0.3-0.1-0.4-0.2
			C243.3,210.9,242.2,211.2,241.2,211.6z"/>
		<path d="M251.3,208.4c2.1-0.7,4.3-0.6,6.4-1.4c-2.1-0.4-4.2,0.5-6.4,0.8c-0.2,0.1-0.4,0.1-0.6,0.2c0,0.2,0,0.3,0,0.5
			C250.9,208.5,251.1,208.4,251.3,208.4z"/>
		<polygon points="167.5,237 167.5,237 167.5,237 		"/>
		<path d="M250.5,208.3c0-0.1,0.1-0.2,0.1-0.3c-1.6,0.5-3.2,1.1-4.8,1.8c-0.4,0.2-0.8,0.4-1.3,0.6c0.1,0.1,0.2,0.1,0.4,0.2
			c1.8-0.8,3.6-1.5,5.5-2C250.5,208.5,250.5,208.4,250.5,208.3z"/>
		<path d="M192.4,252.6L192.4,252.6c0.3-0.3,0.6-0.6,0.9-0.9c-0.3-0.1-0.6-0.1-0.9-0.2C192.2,251.7,192.2,252.1,192.4,252.6z"/>
		<path d="M183.4,248c-0.1,0-0.1-0.1-0.2-0.1c-0.1,0.1-0.2,0.3-0.2,0.4c0,0,0,0,0,0C183.2,248.2,183.3,248.1,183.4,248z"/>
		<path class="st6" d="M206.3,242.4c-3.6,3.5-7.3,6.8-12,8.9c-0.3,0-0.5,0-0.8,0.1c-0.1,0.1-0.2,0.2-0.3,0.3c0.1,0,0.2,0,0.2,0.1
			c10.4,3,20.8,5.9,30.6,10.9c4.1,2.1,7.2,4.8,9.5,8.1c-6.7-14.7-8.8-30-5.4-46c0.4-1.8,1-3.6,2-5.2c0.2-0.3,0.5-0.6,0.7-0.8
			c0,0,0,0,0,0C221.7,225.8,214.5,234.6,206.3,242.4z"/>
		<path d="M239,289c0.4,2-0.2,4.2,0.4,6.1c1.1-4.1-0.4-8.3-1.2-12.3c-0.8-4.5-2.3-8.6-4.7-12.1c0,0.1,0.1,0.2,0.1,0.2
			C236.3,276.8,237.8,282.8,239,289z"/>
		<path d="M192.4,251.5c0-0.1,0.1-0.1,0.1-0.1c-0.3,0-0.6,0-1-0.1C191.8,251.3,192.1,251.4,192.4,251.5z"/>
		<path d="M241.2,211.6C241.2,211.6,241.2,211.6,241.2,211.6c-0.2-0.1-0.4-0.2-0.5-0.3c0.1,0.1,0.3,0.2,0.4,0.3
			C241.1,211.7,241.2,211.7,241.2,211.6z"/>
		<path d="M231,218.4c0.2-0.2,0.3-0.3,0.5-0.5c-0.2-0.2-0.6-0.2-1.1-0.1c0,0,0,0,0,0C230.6,218,230.8,218.2,231,218.4z"/>
		<path d="M176.5,243.9c0.2,0.1,0.4,0.3,0.6,0.4c0.2-0.2,0.5-0.5,0.7-0.7C177.1,243.3,176.7,243.5,176.5,243.9z"/>
		<path d="M172.5,241.1C172.5,241.1,172.5,241.1,172.5,241.1c-0.1,0.1-0.2,0.2-0.3,0.2c0.1,0.1,0.2,0.1,0.3,0.2
			c1.3,0.8,2.6,1.7,4,2.5c0-0.1,0-0.1,0-0.1C175.1,243,173.8,242.1,172.5,241.1z"/>
		<path d="M194.5,250.4c-0.1,0.1-0.3,0.3-0.4,0.4C194.3,250.7,194.5,250.6,194.5,250.4z"/>
		<path d="M250.6,208.1c0.1,0,0.1,0,0.2-0.1c0,0,0,0,0-0.1C250.7,208,250.7,208,250.6,208.1z"/>
		<path d="M183.7,247.8c0.3-0.2,0.5-0.5,0.8-0.7c-0.3,0.2-0.7,0.4-0.9,0.6C183.6,247.7,183.6,247.8,183.7,247.8z"/>
		<path d="M183.7,247.8c-0.1,0.1-0.2,0.1-0.2,0.2c0.3,0.2,0.6,0.4,0.9,0.5c2.4,0.8,4.7,2.2,7.2,2.7c-2.7-0.9-5.1-2.3-7.7-3.4
			C183.8,247.8,183.7,247.8,183.7,247.8z"/>
		<path d="M244.3,210.5c0.1,0,0.2-0.1,0.3-0.1c-0.2-0.1-0.4-0.2-0.7-0.3C244,210.3,244.1,210.4,244.3,210.5z"/>
		<path d="M177.2,244.4C177.2,244.3,177.2,244.3,177.2,244.4c-0.1,0-0.1,0-0.2,0c0.2,0.1,0.4,0.2,0.6,0.3c2,0.9,3.8,2.1,5.6,3.2
			c0.1-0.1,0.1-0.2,0.2-0.2C181.5,246.5,179.4,245.4,177.2,244.4z"/>
		<path d="M193.6,251.4c0.2-0.2,0.4-0.4,0.6-0.6c-0.5,0.2-1.3,0.2-1.7,0.6C192.8,251.4,193.2,251.4,193.6,251.4z"/>
		<path d="M250.8,208.5c-0.1,0-0.2,0-0.3,0.1c0,0.2,0.1,0.3,0.3,0.5c0,0,0,0,0,0C250.8,208.9,250.8,208.7,250.8,208.5z"/>
		<path d="M223.7,190.1c-2.9,0-5.9,0-8.8,0c0,0,0,0,0,0C217.8,190.8,220.8,190.8,223.7,190.1z"/>
		<path class="st1" d="M54.5,232.7c-5.7-3-8.6-7.3-6.5-13.7c1.8-5.4,8.5-7.8,15.1-6.1c3.9,1,5.9,4.4,9.8,6.4c2.4-3.5,4.7-7,7.1-10.5
			c-9.1-8.7-19.2-12.2-31.1-9.4c-10,2.3-16.8,10.8-18.3,22.3c-1.2,9,4.7,19.9,13.2,24.8c5.5,3.2,11.9,4.5,17,8.5
			c5.2,4,7.5,12,4.4,17c-3.6,5.8-8.9,7.4-15.5,5.6c-6.1-1.7-9.4-6.4-13.3-11.4c-3.2,3.4-6.2,6.6-9.4,10.1c1.8,4.3,5.4,7.3,8.8,10.4
			c11,9.6,29.6,8.2,39.6-2.9c9.9-10.9,9.4-29-0.9-39.1C68.9,238.9,61.4,236.4,54.5,232.7z"/>
		<path d="M259.7,207.8c-0.4-0.4-0.9-0.7-1.3-1.1c0,0,0,0,0,0c-0.2,0.1-0.5,0.2-0.7,0.3C258.4,207.1,259,207.4,259.7,207.8z"/>
		<path class="st1" d="M177.9,243.6c2.2,1.2,4.4,2.3,6.6,3.5c3.4,0.9,6.4,3.3,10.1,3.3c11.6-7.8,19.7-19.1,30.1-28.3
			c1.8-1.6,3.3-3.6,5.8-4.3c0,0,0,0,0,0c2.8-3.1,6.6-4.8,10.3-6.5c0,0,0,0,0,0c0,0,0,0,0,0c1.1-0.4,2.2-0.9,3.2-1.3
			c2-1.5,4.3-2.2,6.8-2.1c2.4-1.5,5-1.2,7.6-1.3c0,0,0,0,0,0c-9.2-10.5-21-15.5-34.7-16.5c-2.9,1.5-5.9,1.5-8.8,0c0,0,0,0,0,0
			c-22.2,0-43.9,18.7-49.5,42.7c0.7,1.3,1.5,2.7,2.2,4.1c2.6,0,3.7,2.3,5.6,3.5C174.7,241.5,176.3,242.6,177.9,243.6z"/>
		<path class="st1" d="M213.1,259.4c-6.9-2.3-13.8-4.5-20.7-6.8c0,0,0,0,0,0c-3.4-0.7-6.4-2.3-9.3-4.3c0,0,0,0,0,0
			c-2.2-1.2-4.3-2.3-6.5-3.5c0,0,0,0,0,0c-1.5-1.1-3.1-2.2-4.6-3.3c0,0,0,0,0,0c-1.6-1-3-2.2-3.9-3.8c1.2,1.3,2.6,2.4,4.1,3.4
			c0.1-0.1,0.2-0.2,0.3-0.3c-1.6-1.2-3-2.9-4.7-3.9c0,0,0,0,0,0c0,0,0,0,0,0c0,0,0,0,0,0.1c-6.7,1.8-4.3,7.6-4.1,11.4
			c0.9,26.7,20,48.8,46.5,53c9.5,1.5,19.7,2.4,28.5-3.9c-0.2-3.2-0.3-6.3-0.5-9.5C237.2,272,227,264,213.1,259.4z"/>
		<path class="st1" d="M259.7,207.8C259.7,207.8,259.7,207.8,259.7,207.8C259.7,207.8,259.7,207.8,259.7,207.8c-3,0.4-6,0.9-9,1.3
			c0,0,0,0,0,0c-1.5,0.7-3,1.4-4.5,2.1c-0.1-0.1-0.3-0.2-0.5-0.2c0.2,0.1,0.3,0.1,0.5,0.2c-1.4,0.5-2.8,0.9-4.2,1.4c0,0,0,0,0,0
			c-3.5,2.2-6.9,4.4-10.4,6.6c-6.2,16.8-4.1,33.5,2.6,49.3c4,9.5,6.4,18.8,6.6,28.9c0,0,0,0,0,0c10.5-3.4,18.2-10.3,25-18.8
			C281.9,258.4,278.9,223.2,259.7,207.8z"/>
		<path class="st1" d="M342.2,198.2c0,5.5,0,10.6,0,16.5c6.4,0,12.4,0,19.2,0c0,26.4,0,52,0,77.9c6.3,0,11.9,0,18.6,0
			c0-26.2,0-51.9,0-78.3c6.7,0,12.6,0,18.6,0c0-5.7,0-10.8,0-16.1C379.7,198.2,361.1,198.2,342.2,198.2z"/>
		<path d="M238.5,297.4c0.8,0,1.6-0.1,2.4-0.1c0,0,0,0,0,0c-0.8-0.7-1.2-1.5-1.5-2.3C239.2,295.9,238.9,296.7,238.5,297.4z"/>
		<path class="st1" d="M278,214.6c6.3,0,12.4,0,19.2,0c0,26.6,0,52.3,0,77.9c6.3,0,11.9,0,18,0c0-26.1,0-51.7,0-77.4
			c6.7-1.4,13.2,0.5,19.4-1.3c0-5.3,0-10.3,0-15.5c-19,0-37.6,0-56.6,0C278,203.8,278,208.8,278,214.6z"/>
		<path d="M244.7,210.7c0.4,0.1,0.7,0.1,1.1,0.2c-0.3-0.1-0.5-0.3-0.8-0.4C244.8,210.6,244.7,210.7,244.7,210.7z"/>
		<path class="st1" d="M112.1,204.5c-21.1,13.7-27.9,46.1-14.1,67.7c7.4,11.6,17.2,19.6,31.5,20.6c2.2,0,4.4,0,6.6,0c0,0,0,0,0,0
			c0,0,0,0,0,0c6.5-0.2,12.4-1.9,17.5-5.6c0-6.3,0-12.1,0-18.2c-14.8,10.8-26.3,11-36.5,1.1c-11.5-11.2-13.2-30.6-3.6-44.1
			c4.6-6.5,10.7-10.8,19-11.5c8.4-0.8,14.9,3.2,21.1,8.7c0-6.8,0-12.7,0-18.3C141.2,196.4,124.6,196.3,112.1,204.5z"/>
		<path d="M241.5,211.8c-0.1,0-0.2,0.1-0.2,0.1c0.2,0.2,0.5,0.4,0.7,0.6c0,0,0,0,0,0C242,212.2,241.8,211.9,241.5,211.8z"/>
		<path d="M231.6,218c-0.2,0.2-0.4,0.3-0.5,0.5c0.2,0.2,0.4,0.4,0.6,0.6C231.8,218.6,231.7,218.2,231.6,218z"/>
		<path d="M230.7,218.7c0.1-0.1,0.2-0.2,0.3-0.3c0,0,0,0,0,0C230.9,218.5,230.8,218.6,230.7,218.7z"/>
	</g>
</g>
</svg>
