<svg id="Layer_1" data-name="Layer 1" xmlns="http://www.w3.org/2000/svg" viewBox="0 0 500 500"><defs><style>.cls-1{fill:#fff;}</style></defs><title>footer-logos</title><path class="cls-1" d="M429.45,414.71h-357V77.55h357Zm-349-8h341V85.54h-341Z"/><path class="cls-1" d="M274.06,156.73a84,84,0,0,1,19,8.59l6.78-7.45L305,172.63a119.88,119.88,0,0,1,17.42,14.05l-15.14-1,1.39,23.69-12.39-23.21-20.14,1.89L288,173.65a69.5,69.5,0,0,0-13.9-16.92"/><path class="cls-1" d="M336.55,229.67l-9.44,2.19-7.63-12.57a79.53,79.53,0,0,1,.63,14.41l-10.76,3.77,10.51,5.89-1.44,14.44,7.91-10.54,8.69,7.22-4.73-14.09Z"/><polygon class="cls-1" points="335.61 204.11 329.2 205.93 337.25 209.32 340.2 218.58 341.41 213.11 346.71 217.5 342.4 208.1 344 201.82 338.48 203.25 331.8 196.37 335.61 204.11"/><path class="cls-1" d="M357.74,261.5l6.47-8.88-6.75-3.92c-.47-8.42-1.76-15.6-4-21.32.32,6.36-1.8,19-1.8,19a32.63,32.63,0,0,0-11.58-3.28,38.07,38.07,0,0,1,8.7,14.69c-1.92,7.19-4.39,13-7.46,17.22l11-7.77s2.77,9.07,2.89,14.15a69.17,69.17,0,0,0,2.49-19.84"/><path class="cls-1" d="M343.48,293.62c-1.22,1.89-3.5,3.73-6.64,5.67a13.81,13.81,0,0,1,5.38-.27,43.28,43.28,0,0,1-2.24,8.45l5.15-8.7,4.34-.74L348,292.4l4.08-9a37.62,37.62,0,0,1-5.15,6.4l-2.7-4.65Z"/><path class="cls-1" d="M294.25,217.2l3.63,9.28,1.89-5.76a57.27,57.27,0,0,1,8.53,5.8l-7.6-8.9.94-4.85h-5.49l-8.68-7.5,4.75,7.46L285,213Z"/><path class="cls-1" d="M165,308.9c-17.29,0-28.28-12-28.28-29s11-29,28.28-29c10.9,0,18.18,3.71,22.77,10.52l-8.9,4.66c-3.44-4.57-7-6.75-13.87-6.75-11.65,0-18,7.95-18,20.55s6.31,20.54,18,20.54c7,0,11.29-2.42,14.73-7l8.32,4.66c-4.79,6.91-12.9,10.76-23.05,10.76"/><path class="cls-1" d="M225,308V284.19c0-8.51-3.81-11.57-10.31-11.57s-10.32,3.95-10.32,10.76V308h-9.86V253.85l9.86-4.33v20.37c2.47-3,7.46-4.89,12.6-4.89,11.68,0,17.89,6.43,17.89,18.85V308Z"/><polygon class="cls-1" points="260.6 308.02 260.6 253.85 270.44 249.52 270.44 308.02 260.6 308.02"/><polygon class="cls-1" points="242.89 266.1 242.89 261.97 252.73 257.65 252.73 266.1 242.89 266.1"/><path class="cls-1" d="M297.84,271.76c-6.51,0-10.46,3.78-11.32,10.43h23c-.47-5.71-3.68-10.43-11.68-10.43m21.21,17.16H286.34c1,8,6.41,11.39,12.44,11.39A19.51,19.51,0,0,0,309.52,297l5.75,5.22c-4.33,3.5-9.52,5.47-17,5.47-11.61,0-21.41-7.83-21.41-21.61,0-14.07,8.85-21.68,21.69-21.68,14,0,20.83,9.58,20.83,20.82a33.55,33.55,0,0,1-.28,3.72"/><rect class="cls-1" x="242.9" y="269.11" width="9.86" height="38.9"/></svg>