<?xml version="1.0" encoding="utf-8"?>
<!-- Generator: Adobe Illustrator 24.0.3, SVG Export Plug-In . SVG Version: 6.00 Build 0)  -->
<svg version="1.1" id="Layer_1" xmlns="http://www.w3.org/2000/svg" xmlns:xlink="http://www.w3.org/1999/xlink" x="0px" y="0px"
	 viewBox="0 0 500 500" style="enable-background:new 0 0 500 500;" xml:space="preserve">
<style type="text/css">
	.st0{display:none;}
	.st1{fill:#5B5B5B;}
	.st2{clip-path:url(#SVGID_2_);fill:#231F20;}
	.st3{clip-path:url(#SVGID_2_);fill:#0075C9;}
	.st4{clip-path:url(#SVGID_2_);fill:#FF4D00;}
	.st5{clip-path:url(#SVGID_2_);fill:#FFFFFF;}
	.st6{fill:#FFFFFF;}
</style>
<rect x="-691.7" y="-192.6" class="st0" width="1391.5" height="2478.2"/>
<g>
	<path class="st1" d="M57.3,250.9c-6.7-19.8-4.1-37.9,10.9-53.2c6.4-6.6,14.2-11.2,22.7-14.5c21.5-8.5,43.8-9.3,66.3-6.5
		c20.7,2.6,40.3,8.8,59.1,17.7c2.8,1.3,5.3,0.6,6.4-1.7c1.2-2.3,0.2-4.8-2.5-6.2c-30.5-15.3-62.7-23.6-96.8-24
		c-5.9,0.2-11.8,0.3-17.6,0.9c-17,1.8-33.4,5.9-48.4,14.3c-16,9-28,21.5-33.3,39.4c-5,16.9-2.4,33.2,4.5,49.1
		c6.9,15.8,17.5,29,29.8,40.9c4.5,4.3,10.1,5.1,15.9,2.6c5.9-2.5,8.9-7.1,9.2-13.5c0.2-5.1-2.3-9-5.6-12.6
		C69,274,61.6,263.4,57.3,250.9z"/>
	<path class="st1" d="M151.1,301.9c-11-5.1-21.2-11.4-30.5-19.3c-10.7-9.2-19.8-19.7-25.1-33c-8.8-21.9-1.1-42,20.3-52.1
		c13.5-6.4,28-7.5,42.7-6.5c6.2,0.4,12.3,1.5,18.4,2.8c2.7,0.6,4.4-0.3,5-2.4c0.6-2.2-0.6-3.7-3.4-4.6c-0.2,0-0.3-0.1-0.5-0.1
		c-12.4-3.1-25-4.9-39-4.9c-2.9-0.1-7.1,0.2-11.2,0.6c-12.3,1.2-24.1,4.1-34.9,10.4c-16.9,9.9-25.9,24.3-24.9,44.2
		c0.6,11.5,4.8,22,11,31.6c15.9,24.8,38.7,41.2,65.1,53c6,2.7,12.7-1.2,14.1-7.7C159.1,309,156.6,304.5,151.1,301.9z"/>
	<path class="st1" d="M337.3,260.2c0-0.8,0-1.2,0-1.6c0-9,0-18.1,0-27.1c0-1.8-0.4-2.5-2.3-2.3c-1.8,0.2-3.6,0.2-5.4,0
		c-2.2-0.2-2.9,0.4-2.9,2.8c0.1,24.4,0.1,48.7,0.1,73.1c0,0.5,0,1,0,1.5c0,0.5,0.1,0.9,0.8,1.1c4.3,1.4,8.3-0.5,10-4.6
		c13.4,10.2,29.6,5.1,36.6-3.3c8.5-10.3,8.4-26.8-0.3-36.7C365.8,253.9,349.5,251,337.3,260.2z M353.9,298.2
		c-9.9,0-16.6-6.9-16.5-16.9c0.1-9.4,7.2-16.3,16.7-16.3c9.5,0,16.1,6.8,16.1,16.4C370.1,291.1,363.2,298.2,353.9,298.2z"/>
	<path class="st1" d="M245,294.9c-1.6-1-3.2-2.1-4.6-3.3c-1.6-1.4-2.6-1.3-4.2,0.1c-12.8,11.1-32,8-40-6.4c-3.2-5.8-4.1-12-3.6-18.5
		c1.6-20,23.1-31.2,40.1-20.9c2,1.2,3.5,4.3,6,3.7c2.3-0.6,4.2-2.9,6.4-4.3c1.3-0.8,1.4-1.3,0.3-2.4c-9.7-9.5-21.3-13.1-34.6-10.3
		c-17.1,3.6-28.5,18.8-28.6,38.3c-0.1,4.4,0.8,9.5,2.8,14.3c9.9,25,41.6,31.6,60.4,12.5C246.3,296.5,246.6,295.8,245,294.9z"/>
	<path class="st1" d="M198.7,211.5c0.9-2.1-0.4-3.2-2.2-3.9c-13.4-5.4-27.2-8.6-41.7-8.7c-12-0.1-22.9,2.2-31.2,6.6
		c-8.6,4.6-15,11.1-17.6,20.8c-3.5,12.8,4,34.3,14.7,42.3c2.3,1.7,5,2,7.6,0.7c2.7-1.3,4-3.6,4-6.7c0-2.2-1.1-3.9-2.4-5.6
		c-3.2-4.3-5.8-9-7.3-14.1c-3.9-13,0.7-24.5,12.5-31.2c7.2-4,15.1-5.6,23.3-5.8c12.5-0.4,24.5,2.1,36,6.7
		C196.1,213.3,197.8,213.5,198.7,211.5z"/>
	<path class="st1" d="M274.6,254.5c-15.7-0.1-27.3,11.2-27.4,26.7c-0.1,15.6,11.5,27.4,27.1,27.5c15.5,0,27.1-11.5,27.2-27
		C301.6,266,290.3,254.6,274.6,254.5z M274.4,298.3c-9.6,0-16.7-7.2-16.7-16.9c0-9.5,7.1-16.5,16.7-16.6c9.7,0,16.9,7.1,16.8,16.7
		C291.1,291.3,284,298.3,274.4,298.3z"/>
	<path class="st1" d="M428.5,255.5c-2.1,0.1-4.3,0.1-6.5,0c-1.9-0.1-2.3,0.6-2.2,2.3c0.1,8.8,0.1,17.6,0,26.3
		c-0.1,8.9-6,14.5-14.8,14.1c-4.1-0.2-6.9-2.2-8.4-6.1c-0.9-2.3-1-4.7-1-7.1c0-9-0.1-18.1,0.1-27.1c0-2.1-0.6-2.7-2.6-2.5
		c-2.1,0.2-4.1,0.1-6.2,0c-1.1,0-1.8,0.2-1.8,1.5c0.2,11-0.5,22.1,0.3,33c0.9,12.2,10.1,19.6,22.2,18.5c4.5-0.4,8.5-2,12.3-5.2
		c1,3.6,3.5,4.5,6.6,4.3c0.8-0.1,1.6-0.1,2.3,0c1.3,0.1,1.6-0.5,1.6-1.6c0-16.3,0-32.5,0-48.8C430.4,255.8,429.8,255.5,428.5,255.5z
		"/>
	<path class="st1" d="M482.8,272.8c-0.7-8.3-4.9-14.7-13.3-17.3c-7.6-2.3-14.6-0.9-21.1,4.3c-1-3.8-3.9-4.2-7.3-4.3
		c-2.8-0.1-3.3,0.9-3.3,3.4c0.1,13.6,0,27.2,0.1,40.8c0,2.6-0.9,6,0.4,7.5c1.5,1.7,5,0.3,7.7,0.6c2,0.2,2.4-0.5,2.4-2.4
		c-0.1-8.9-0.2-17.9,0-26.9c0.2-8.9,7.2-14.7,15.9-13.4c3.6,0.5,6,2.5,7.3,5.8c0.9,2.4,1.1,4.8,1.1,7.4c0,9.1,0,18.2,0,27.4
		c0,1.7,0.5,2.3,2.2,2.1c2.2-0.1,4.5-0.1,6.7,0c1,0,1.6,0,1.6-1.3C483,295.2,483.7,283.9,482.8,272.8z"/>
	<path class="st1" d="M315,229.2c-4.8,0.6-7.9,4.1-7.9,9.2c0,20.5,0,41,0,61.4c0,2.5-1.1,6,0.5,7.4c1.6,1.3,4.9,0.3,7.5,0.5
		c2,0.2,2.4-0.5,2.4-2.4c-0.1-12.2,0-24.4,0-36.6c0-12.4-0.1-24.8,0.1-37.2C317.6,229.3,316.8,229,315,229.2z"/>
	<path class="st1" d="M399.9,249.9c2.8,0,5.5,0,8.3,0c0.8,0,1.3-0.2,1.7-0.9c3.3-5.4,6.7-10.7,10.3-16.5c-4.3,0-8.1,0-11.9,0
		c-0.9,0-1.1,0.6-1.5,1.2c-2.5,4.9-5.1,9.8-7.6,14.6C398.6,249.3,398.4,249.9,399.9,249.9z"/>
</g>
</svg>
