<?xml version="1.0" encoding="utf-8"?>
<!-- Generator: Adobe Illustrator 24.0.3, SVG Export Plug-In . SVG Version: 6.00 Build 0)  -->
<svg version="1.1" id="Layer_1" xmlns="http://www.w3.org/2000/svg" xmlns:xlink="http://www.w3.org/1999/xlink" x="0px" y="0px"
	 viewBox="0 0 500 500" style="enable-background:new 0 0 500 500;" xml:space="preserve">
<style type="text/css">
	.st0{display:none;}
	.st1{fill:#5B5B5B;}
	.st2{clip-path:url(#SVGID_2_);fill:#231F20;}
	.st3{clip-path:url(#SVGID_2_);fill:#0075C9;}
	.st4{clip-path:url(#SVGID_2_);fill:#FF4D00;}
	.st5{clip-path:url(#SVGID_2_);fill:#FFFFFF;}
	.st6{fill:#FFFFFF;}
</style>
<rect x="-171.7" y="-1232.6" class="st0" width="1391.5" height="2478.2"/>
<g>
	<g>
		<defs>
			<rect id="SVGID_1_" x="66.2" y="122.3" width="369.5" height="250.9"/>
		</defs>
		<clipPath id="SVGID_2_">
			<use xlink:href="#SVGID_1_"  style="overflow:visible;"/>
		</clipPath>
		<path class="st2" d="M216.7,423.3c-0.5,0-0.9-0.4-0.9-1.1c0-0.7,0.4-1.1,1-1.1c0.6,0,0.9,0.4,0.9,1.1
			C217.7,423,217.2,423.3,216.7,423.3L216.7,423.3z M216.7,423.1c0.4,0,0.7-0.4,0.7-0.9c0-0.4-0.2-0.8-0.7-0.8s-0.7,0.4-0.7,0.9
			C216,422.7,216.3,423.1,216.7,423.1L216.7,423.1z"/>
		<path class="st2" d="M218,422.3c0-0.2,0-0.3,0-0.5h0.2l0,0.3h0c0.1-0.2,0.2-0.3,0.4-0.3c0,0,0,0,0.1,0v0.3c0,0-0.1,0-0.1,0
			c-0.2,0-0.3,0.1-0.4,0.3c0,0,0,0.1,0,0.1v0.8H218L218,422.3z"/>
		<path class="st2" d="M220,422.9c0,0.1,0,0.3,0,0.4h-0.2l0-0.2h0c-0.1,0.1-0.2,0.2-0.5,0.2c-0.3,0-0.5-0.2-0.5-0.4
			c0-0.4,0.3-0.6,0.9-0.6v0c0-0.1,0-0.3-0.3-0.3c-0.1,0-0.3,0-0.4,0.1l-0.1-0.2c0.1-0.1,0.3-0.1,0.5-0.1c0.5,0,0.6,0.3,0.6,0.6
			V422.9z M219.8,422.5c-0.3,0-0.6,0-0.6,0.3c0,0.2,0.1,0.3,0.3,0.3c0.2,0,0.3-0.1,0.4-0.3c0,0,0-0.1,0-0.1V422.5z"/>
		<path class="st2" d="M220.5,422.2c0-0.2,0-0.3,0-0.4h0.2l0,0.2h0c0.1-0.1,0.2-0.3,0.5-0.3c0.2,0,0.5,0.1,0.5,0.6v0.9h-0.3v-0.9
			c0-0.2-0.1-0.4-0.3-0.4c-0.2,0-0.3,0.1-0.4,0.3c0,0,0,0.1,0,0.1v0.9h-0.3V422.2z"/>
		<path class="st2" d="M223.5,423.1c0,0.3-0.1,0.6-0.2,0.7c-0.1,0.1-0.4,0.2-0.5,0.2c-0.2,0-0.4,0-0.5-0.1l0.1-0.2
			c0.1,0.1,0.3,0.1,0.4,0.1c0.3,0,0.5-0.1,0.5-0.5v-0.2h0c-0.1,0.1-0.2,0.3-0.5,0.3c-0.4,0-0.6-0.3-0.6-0.7c0-0.5,0.3-0.8,0.7-0.8
			c0.3,0,0.4,0.1,0.5,0.3h0l0-0.2h0.2c0,0.1,0,0.2,0,0.4V423.1z M223.2,422.4c0,0,0-0.1,0-0.1c-0.1-0.2-0.2-0.3-0.4-0.3
			c-0.3,0-0.4,0.2-0.4,0.6c0,0.3,0.2,0.5,0.4,0.5c0.2,0,0.3-0.1,0.4-0.3c0,0,0-0.1,0-0.1V422.4z"/>
		<path class="st2" d="M224.1,422.6c0,0.4,0.2,0.5,0.5,0.5c0.2,0,0.3,0,0.4-0.1l0,0.2c-0.1,0-0.3,0.1-0.5,0.1
			c-0.5,0-0.7-0.3-0.7-0.8c0-0.5,0.3-0.8,0.7-0.8c0.5,0,0.6,0.4,0.6,0.7c0,0.1,0,0.1,0,0.1L224.1,422.6z M224.8,422.4
			c0-0.2-0.1-0.4-0.4-0.4c-0.3,0-0.4,0.3-0.4,0.4H224.8z"/>
		<rect x="226" y="422.4" class="st2" width="0.8" height="0.2"/>
		<path class="st2" d="M227.7,421.3c0.1,0,0.3,0,0.5,0c0.3,0,0.5,0.1,0.6,0.2c0.1,0.1,0.2,0.3,0.2,0.4s-0.1,0.3-0.2,0.4
			c-0.1,0.2-0.4,0.2-0.6,0.2c-0.1,0-0.2,0-0.2,0v0.8h-0.3V421.3z M228,422.3c0.1,0,0.1,0,0.2,0c0.3,0,0.5-0.2,0.5-0.4
			c0-0.3-0.2-0.4-0.5-0.4c-0.1,0-0.2,0-0.3,0V422.3z"/>
		<path class="st2" d="M230.3,422.9c0,0.1,0,0.3,0,0.4h-0.2l0-0.2h0c-0.1,0.1-0.2,0.2-0.5,0.2c-0.3,0-0.5-0.2-0.5-0.4
			c0-0.4,0.3-0.6,0.9-0.6v0c0-0.1,0-0.3-0.3-0.3c-0.1,0-0.3,0-0.4,0.1l-0.1-0.2c0.1-0.1,0.3-0.1,0.5-0.1c0.5,0,0.6,0.3,0.6,0.6
			V422.9z M230,422.5c-0.3,0-0.6,0-0.6,0.3c0,0.2,0.1,0.3,0.3,0.3c0.2,0,0.3-0.1,0.4-0.3c0,0,0-0.1,0-0.1V422.5z"/>
		<path class="st2" d="M230.7,422.2c0-0.2,0-0.3,0-0.4h0.2l0,0.2h0c0.1-0.1,0.2-0.3,0.5-0.3c0.2,0,0.5,0.1,0.5,0.6v0.9h-0.3v-0.9
			c0-0.2-0.1-0.4-0.3-0.4c-0.2,0-0.3,0.1-0.4,0.3c0,0,0,0.1,0,0.1v0.9h-0.3V422.2z"/>
		<path class="st2" d="M232.8,421.5v0.4h0.4v0.2h-0.4v0.8c0,0.2,0.1,0.3,0.2,0.3c0.1,0,0.1,0,0.2,0l0,0.2c-0.1,0-0.1,0-0.2,0
			c-0.1,0-0.2,0-0.3-0.1c-0.1-0.1-0.1-0.2-0.1-0.4V422h-0.2v-0.2h0.2v-0.3L232.8,421.5z"/>
		<path class="st2" d="M234,423.3c-0.4,0-0.7-0.3-0.7-0.8c0-0.5,0.3-0.8,0.7-0.8c0.4,0,0.7,0.3,0.7,0.8
			C234.8,423.1,234.4,423.3,234,423.3L234,423.3z M234.1,423.1c0.3,0,0.5-0.2,0.5-0.6c0-0.3-0.1-0.6-0.4-0.6c-0.3,0-0.5,0.3-0.5,0.6
			C233.6,422.9,233.8,423.1,234.1,423.1L234.1,423.1z"/>
		<path class="st2" d="M235.1,422.2c0-0.2,0-0.3,0-0.4h0.2l0,0.2h0c0.1-0.1,0.2-0.3,0.5-0.3c0.2,0,0.5,0.1,0.5,0.6v0.9h-0.3v-0.9
			c0-0.2-0.1-0.4-0.3-0.4c-0.2,0-0.3,0.1-0.4,0.3c0,0,0,0.1,0,0.1v0.9h-0.3V422.2z"/>
		<path class="st2" d="M237,422.6c0,0.4,0.2,0.5,0.5,0.5c0.2,0,0.3,0,0.4-0.1l0,0.2c-0.1,0-0.3,0.1-0.5,0.1c-0.5,0-0.7-0.3-0.7-0.8
			c0-0.5,0.3-0.8,0.7-0.8c0.5,0,0.6,0.4,0.6,0.7c0,0.1,0,0.1,0,0.1L237,422.6z M237.8,422.4c0-0.2-0.1-0.4-0.4-0.4
			c-0.3,0-0.4,0.3-0.4,0.4H237.8z"/>
		<polygon class="st2" points="239.5,421.6 239.5,421.6 239.2,421.7 239.1,421.5 239.6,421.3 239.8,421.3 239.8,423.3 239.5,423.3 
					"/>
		<path class="st2" d="M241.7,421.5c-0.1,0-0.1,0-0.2,0c-0.4,0.1-0.6,0.4-0.7,0.7h0c0.1-0.1,0.3-0.2,0.5-0.2c0.4,0,0.6,0.3,0.6,0.6
			c0,0.4-0.3,0.7-0.7,0.7c-0.4,0-0.7-0.3-0.7-0.9c0-0.4,0.1-0.7,0.3-0.9c0.2-0.2,0.4-0.3,0.6-0.3c0.1,0,0.1,0,0.2,0V421.5z
			 M241.2,423.1c0.2,0,0.4-0.2,0.4-0.5c0-0.3-0.2-0.5-0.4-0.5c-0.2,0-0.3,0.1-0.4,0.2c0,0,0,0.1,0,0.1
			C240.8,422.9,240.9,423.1,241.2,423.1L241.2,423.1z"/>
		<path class="st2" d="M243.3,421.5h-0.8l-0.1,0.5c0,0,0.1,0,0.2,0c0.2,0,0.3,0,0.4,0.1c0.2,0.1,0.3,0.3,0.3,0.5
			c0,0.4-0.3,0.7-0.7,0.7c-0.2,0-0.4-0.1-0.5-0.1l0.1-0.2c0.1,0,0.2,0.1,0.4,0.1c0.3,0,0.5-0.2,0.5-0.4c0-0.3-0.2-0.4-0.6-0.4
			c-0.1,0-0.2,0-0.3,0l0.1-1h1V421.5z"/>
		<path class="st2" d="M244.9,421.5h-0.8L244,422c0,0,0.1,0,0.2,0c0.2,0,0.3,0,0.4,0.1c0.2,0.1,0.3,0.3,0.3,0.5
			c0,0.4-0.3,0.7-0.7,0.7c-0.2,0-0.4-0.1-0.5-0.1l0.1-0.2c0.1,0,0.2,0.1,0.4,0.1c0.3,0,0.5-0.2,0.5-0.4c0-0.3-0.2-0.4-0.6-0.4
			c-0.1,0-0.2,0-0.3,0l0.1-1h1V421.5z"/>
		<path class="st2" d="M247.5,423.2c-0.1,0-0.3,0.1-0.5,0.1c-0.6,0-1-0.4-1-1.1c0-0.7,0.4-1.1,1.1-1.1c0.3,0,0.4,0.1,0.5,0.1
			l-0.1,0.2c-0.1,0-0.2-0.1-0.4-0.1c-0.5,0-0.8,0.3-0.8,0.9c0,0.5,0.3,0.8,0.8,0.8c0.2,0,0.3,0,0.4-0.1L247.5,423.2z"/>
		<path class="st2" d="M219.4,436.9c0.1,0,0.3,0,0.5,0c0.3,0,0.4,0,0.6,0.2c0.1,0.1,0.2,0.2,0.2,0.4c0,0.2-0.1,0.4-0.4,0.5v0
			c0.2,0,0.4,0.2,0.4,0.5c0,0.2-0.1,0.3-0.2,0.4c-0.1,0.1-0.4,0.2-0.7,0.2c-0.2,0-0.3,0-0.4,0V436.9z M219.7,437.8h0.2
			c0.3,0,0.4-0.2,0.4-0.4c0-0.2-0.2-0.3-0.5-0.3c-0.1,0-0.2,0-0.2,0V437.8z M219.7,438.8c0.1,0,0.1,0,0.2,0c0.3,0,0.5-0.1,0.5-0.4
			c0-0.3-0.2-0.4-0.5-0.4h-0.2V438.8z"/>
		<rect x="221.1" y="436.8" class="st2" width="0.3" height="2.2"/>
		<path class="st2" d="M223.1,438.6c0,0.2,0,0.3,0,0.4h-0.2l0-0.2h0c-0.1,0.1-0.2,0.3-0.5,0.3c-0.2,0-0.5-0.1-0.5-0.7v-0.9h0.3v0.8
			c0,0.3,0.1,0.5,0.3,0.5c0.2,0,0.3-0.1,0.4-0.3c0,0,0-0.1,0-0.1v-0.9h0.3V438.6z"/>
		<path class="st2" d="M223.7,438.3c0,0.4,0.2,0.5,0.5,0.5c0.2,0,0.3,0,0.4-0.1l0,0.2c-0.1,0-0.3,0.1-0.5,0.1
			c-0.5,0-0.7-0.3-0.7-0.8c0-0.5,0.3-0.8,0.7-0.8c0.5,0,0.6,0.4,0.6,0.7c0,0.1,0,0.1,0,0.1L223.7,438.3z M224.5,438.1
			c0-0.2-0.1-0.4-0.4-0.4c-0.3,0-0.4,0.3-0.4,0.4H224.5z"/>
		<rect x="225.6" y="438" class="st2" width="0.8" height="0.2"/>
		<path class="st2" d="M227.3,436.9c0.1,0,0.3,0,0.5,0c0.3,0,0.5,0.1,0.6,0.2c0.1,0.1,0.2,0.3,0.2,0.4s-0.1,0.3-0.2,0.4
			c-0.1,0.2-0.4,0.2-0.6,0.2c-0.1,0-0.2,0-0.2,0v0.8h-0.3V436.9z M227.6,437.9c0.1,0,0.1,0,0.2,0c0.3,0,0.5-0.2,0.5-0.4
			c0-0.3-0.2-0.4-0.5-0.4c-0.1,0-0.2,0-0.3,0V437.9z"/>
		<path class="st2" d="M229.9,438.6c0,0.1,0,0.3,0,0.4h-0.2l0-0.2h0c-0.1,0.1-0.2,0.2-0.5,0.2c-0.3,0-0.5-0.2-0.5-0.4
			c0-0.4,0.3-0.6,0.9-0.6v0c0-0.1,0-0.3-0.3-0.3c-0.1,0-0.3,0-0.4,0.1l-0.1-0.2c0.1-0.1,0.3-0.1,0.5-0.1c0.5,0,0.6,0.3,0.6,0.6
			V438.6z M229.6,438.2c-0.3,0-0.6,0-0.6,0.3c0,0.2,0.1,0.3,0.3,0.3c0.2,0,0.3-0.1,0.4-0.3c0,0,0-0.1,0-0.1V438.2z"/>
		<path class="st2" d="M230.3,437.9c0-0.2,0-0.3,0-0.4h0.2l0,0.2h0c0.1-0.1,0.2-0.3,0.5-0.3c0.2,0,0.5,0.1,0.5,0.6v0.9h-0.3v-0.9
			c0-0.2-0.1-0.4-0.3-0.4c-0.2,0-0.3,0.1-0.4,0.3c0,0,0,0.1,0,0.1v0.9h-0.3V437.9z"/>
		<path class="st2" d="M232.4,437.1v0.4h0.4v0.2h-0.4v0.8c0,0.2,0.1,0.3,0.2,0.3c0.1,0,0.1,0,0.2,0l0,0.2c-0.1,0-0.1,0-0.2,0
			c-0.1,0-0.2,0-0.3-0.1c-0.1-0.1-0.1-0.2-0.1-0.4v-0.8h-0.2v-0.2h0.2v-0.3L232.4,437.1z"/>
		<path class="st2" d="M233.7,439c-0.4,0-0.7-0.3-0.7-0.8c0-0.5,0.3-0.8,0.7-0.8c0.4,0,0.7,0.3,0.7,0.8
			C234.4,438.8,234,439,233.7,439L233.7,439z M233.7,438.8c0.3,0,0.5-0.2,0.5-0.6c0-0.3-0.1-0.6-0.4-0.6c-0.3,0-0.5,0.3-0.5,0.6
			C233.2,438.5,233.4,438.8,233.7,438.8L233.7,438.8z"/>
		<path class="st2" d="M234.7,437.9c0-0.2,0-0.3,0-0.4h0.2l0,0.2h0c0.1-0.1,0.2-0.3,0.5-0.3c0.2,0,0.5,0.1,0.5,0.6v0.9h-0.3v-0.9
			c0-0.2-0.1-0.4-0.3-0.4c-0.2,0-0.3,0.1-0.4,0.3c0,0,0,0.1,0,0.1v0.9h-0.3V437.9z"/>
		<path class="st2" d="M236.6,438.3c0,0.4,0.2,0.5,0.5,0.5c0.2,0,0.3,0,0.4-0.1l0,0.2c-0.1,0-0.3,0.1-0.5,0.1
			c-0.5,0-0.7-0.3-0.7-0.8c0-0.5,0.3-0.8,0.7-0.8c0.5,0,0.6,0.4,0.6,0.7c0,0.1,0,0.1,0,0.1L236.6,438.3z M237.4,438.1
			c0-0.2-0.1-0.4-0.4-0.4c-0.3,0-0.4,0.3-0.4,0.4H237.4z"/>
		<path class="st2" d="M238.6,438.7c0.1,0,0.3,0.1,0.4,0.1c0.3,0,0.5-0.2,0.5-0.4c0-0.3-0.3-0.4-0.5-0.4h-0.2v-0.2h0.2
			c0.2,0,0.4-0.1,0.4-0.3c0-0.2-0.1-0.3-0.4-0.3c-0.2,0-0.3,0.1-0.4,0.1l-0.1-0.2c0.1-0.1,0.3-0.2,0.5-0.2c0.4,0,0.6,0.2,0.6,0.5
			c0,0.2-0.1,0.4-0.4,0.5v0c0.2,0,0.4,0.2,0.4,0.5c0,0.3-0.3,0.6-0.7,0.6c-0.2,0-0.4-0.1-0.5-0.1L238.6,438.7z"/>
		<path class="st2" d="M240.8,439c-0.4,0-0.7-0.4-0.7-1c0-0.7,0.3-1,0.7-1c0.4,0,0.7,0.4,0.7,1C241.5,438.6,241.2,439,240.8,439
			L240.8,439z M240.8,438.8c0.3,0,0.4-0.3,0.4-0.8c0-0.5-0.1-0.8-0.4-0.8c-0.2,0-0.4,0.3-0.4,0.8
			C240.4,438.5,240.5,438.8,240.8,438.8L240.8,438.8z"/>
		<path class="st2" d="M242.4,439c-0.4,0-0.7-0.4-0.7-1c0-0.7,0.3-1,0.7-1c0.4,0,0.7,0.4,0.7,1C243.1,438.6,242.8,439,242.4,439
			L242.4,439z M242.4,438.8c0.3,0,0.4-0.3,0.4-0.8c0-0.5-0.1-0.8-0.4-0.8c-0.2,0-0.4,0.3-0.4,0.8C242,438.5,242.1,438.8,242.4,438.8
			L242.4,438.8z"/>
		<path class="st2" d="M244.5,437.2h-0.8l-0.1,0.5c0,0,0.1,0,0.2,0c0.2,0,0.3,0,0.4,0.1c0.2,0.1,0.3,0.3,0.3,0.5
			c0,0.4-0.3,0.7-0.7,0.7c-0.2,0-0.4-0.1-0.5-0.1l0.1-0.2c0.1,0,0.2,0.1,0.4,0.1c0.3,0,0.5-0.2,0.5-0.4c0-0.3-0.2-0.4-0.6-0.4
			c-0.1,0-0.2,0-0.3,0l0.1-1h1V437.2z"/>
		<path class="st2" d="M247.1,438.9c-0.1,0-0.3,0.1-0.5,0.1c-0.6,0-1-0.4-1-1.1c0-0.7,0.4-1.1,1.1-1.1c0.3,0,0.4,0.1,0.5,0.1
			l-0.1,0.2c-0.1,0-0.2-0.1-0.4-0.1c-0.5,0-0.8,0.3-0.8,0.9c0,0.5,0.3,0.8,0.8,0.8c0.2,0,0.3,0,0.4-0.1L247.1,438.9z"/>
		<path class="st2" d="M266.7,423.5c-0.1,0-0.3,0.1-0.5,0.1c-0.6,0-1-0.4-1-1.1c0-0.7,0.4-1.1,1.1-1.1c0.3,0,0.4,0.1,0.5,0.1
			l-0.1,0.2c-0.1-0.1-0.2-0.1-0.4-0.1c-0.5,0-0.8,0.3-0.8,0.9c0,0.5,0.3,0.8,0.8,0.8c0.2,0,0.3,0,0.4-0.1L266.7,423.5z"/>
		<path class="st2" d="M267,422.3h1.6v0.2H267V422.3z M267,422.9h1.6v0.2H267V422.9z"/>
		<path class="st2" d="M269.5,423.6c-0.4,0-0.7-0.4-0.7-1c0-0.7,0.3-1,0.7-1c0.4,0,0.7,0.4,0.7,1
			C270.1,423.2,269.9,423.6,269.5,423.6L269.5,423.6z M269.5,423.4c0.3,0,0.4-0.3,0.4-0.8c0-0.5-0.1-0.8-0.4-0.8
			c-0.2,0-0.4,0.3-0.4,0.8C269.1,423.1,269.2,423.4,269.5,423.4L269.5,423.4z"/>
		<path class="st2" d="M273.5,422.7c0-0.3,0-0.6,0-0.9h0c-0.1,0.2-0.2,0.5-0.3,0.8l-0.4,1h-0.2l-0.3-1c-0.1-0.3-0.2-0.6-0.2-0.8h0
			c0,0.3,0,0.6,0,0.9l-0.1,0.9h-0.3l0.1-2.1h0.3l0.4,1c0.1,0.3,0.2,0.5,0.2,0.7h0c0.1-0.2,0.1-0.4,0.2-0.7l0.4-1h0.3l0.1,2.1h-0.3
			L273.5,422.7z"/>
		<path class="st2" d="M274.2,422.3h1.6v0.2h-1.6V422.3z M274.2,422.9h1.6v0.2h-1.6V422.9z"/>
		<path class="st2" d="M276.7,421.5c0.4,0,0.6,0.2,0.6,0.5c0,0.2-0.1,0.4-0.3,0.5v0c0.3,0.1,0.4,0.3,0.4,0.5c0,0.4-0.3,0.6-0.7,0.6
			c-0.4,0-0.7-0.2-0.7-0.5c0-0.3,0.2-0.4,0.4-0.5v0c-0.2-0.1-0.3-0.3-0.3-0.4C276.1,421.7,276.3,421.5,276.7,421.5L276.7,421.5z
			 M276.7,423.4c0.2,0,0.4-0.2,0.4-0.4c0-0.2-0.2-0.4-0.4-0.4c-0.2,0.1-0.4,0.2-0.4,0.4C276.3,423.2,276.4,423.4,276.7,423.4
			L276.7,423.4z M276.7,421.7c-0.2,0-0.3,0.1-0.3,0.3c0,0.2,0.2,0.3,0.4,0.4c0.2-0.1,0.3-0.2,0.3-0.4
			C277,421.9,276.9,421.7,276.7,421.7L276.7,421.7z"/>
		<path class="st2" d="M278.2,423.6c-0.4,0-0.7-0.4-0.7-1c0-0.7,0.3-1,0.7-1c0.4,0,0.7,0.4,0.7,1
			C278.9,423.2,278.7,423.6,278.2,423.6L278.2,423.6z M278.2,423.4c0.3,0,0.4-0.3,0.4-0.8c0-0.5-0.1-0.8-0.4-0.8
			c-0.2,0-0.4,0.3-0.4,0.8C277.8,423.1,278,423.4,278.2,423.4L278.2,423.4z"/>
		<path class="st2" d="M280.9,423.6v-0.9l-0.7-1.2h0.3l0.3,0.6c0.1,0.2,0.1,0.3,0.2,0.4h0c0.1-0.1,0.1-0.3,0.2-0.4l0.3-0.6h0.3
			l-0.7,1.2v0.9H280.9z"/>
		<path class="st2" d="M282,422.3h1.6v0.2H282V422.3z M282,422.9h1.6v0.2H282V422.9z"/>
		<polygon class="st2" points="285.1,421.8 285.1,421.8 284.7,422 284.7,421.8 285.1,421.6 285.3,421.6 285.3,423.6 285.1,423.6 		
			"/>
		<path class="st2" d="M286.7,423.6c-0.4,0-0.7-0.4-0.7-1c0-0.7,0.3-1,0.7-1c0.4,0,0.7,0.4,0.7,1
			C287.4,423.2,287.2,423.6,286.7,423.6L286.7,423.6z M286.7,423.4c0.3,0,0.4-0.3,0.4-0.8c0-0.5-0.1-0.8-0.4-0.8
			c-0.2,0-0.4,0.3-0.4,0.8C286.3,423.1,286.5,423.4,286.7,423.4L286.7,423.4z"/>
		<path class="st2" d="M288.3,423.6c-0.4,0-0.7-0.4-0.7-1c0-0.7,0.3-1,0.7-1c0.4,0,0.7,0.4,0.7,1C289,423.2,288.7,423.6,288.3,423.6
			L288.3,423.6z M288.3,423.4c0.3,0,0.4-0.3,0.4-0.8c0-0.5-0.1-0.8-0.4-0.8c-0.2,0-0.4,0.3-0.4,0.8
			C287.9,423.1,288.1,423.4,288.3,423.4L288.3,423.4z"/>
		<path class="st2" d="M290.6,421.5h0.3v1h0c0.1-0.1,0.1-0.2,0.2-0.2l0.6-0.8h0.3l-0.7,0.9l0.8,1.2h-0.3l-0.7-1l-0.2,0.2v0.8h-0.3
			V421.5z"/>
		<path class="st2" d="M292.2,422.3h1.6v0.2h-1.6V422.3z M292.2,422.9h1.6v0.2h-1.6V422.9z"/>
		<path class="st2" d="M294.7,423.6c-0.4,0-0.7-0.4-0.7-1c0-0.7,0.3-1,0.7-1c0.4,0,0.7,0.4,0.7,1
			C295.4,423.2,295.1,423.6,294.7,423.6L294.7,423.6z M294.7,423.4c0.3,0,0.4-0.3,0.4-0.8c0-0.5-0.1-0.8-0.4-0.8
			c-0.2,0-0.4,0.3-0.4,0.8C294.3,423.1,294.4,423.4,294.7,423.4L294.7,423.4z"/>
		<path class="st2" d="M296.9,421.4c-0.2,0.3-0.4,0.7-0.4,1.3c0,0.6,0.2,0.9,0.4,1.2h-0.2c-0.2-0.3-0.4-0.6-0.4-1.3
			c0-0.6,0.2-1,0.4-1.3H296.9z"/>
		<polygon class="st2" points="298,421.6 297.7,421.9 297.7,422 298.2,421.9 298.2,422.1 297.7,422 297.7,422.1 298,422.4 
			297.8,422.5 297.6,422.1 297.6,422.1 297.4,422.5 297.3,422.4 297.6,422 297.6,422 297.1,422.1 297.1,421.9 297.6,421.9 
			297.6,421.9 297.3,421.6 297.5,421.5 297.6,421.9 297.7,421.9 297.8,421.5 		"/>
		<path class="st2" d="M298.4,423.9c0.2-0.3,0.4-0.7,0.4-1.3c0-0.6-0.2-0.9-0.4-1.3h0.2c0.2,0.3,0.4,0.6,0.4,1.3
			c0,0.6-0.2,1-0.4,1.3H298.4z"/>
		<path class="st2" d="M266.7,439.2c-0.1,0-0.3,0.1-0.5,0.1c-0.6,0-1-0.4-1-1.1c0-0.7,0.4-1.1,1.1-1.1c0.3,0,0.4,0.1,0.5,0.1
			l-0.1,0.2c-0.1-0.1-0.2-0.1-0.4-0.1c-0.5,0-0.8,0.3-0.8,0.9c0,0.5,0.3,0.8,0.8,0.8c0.2,0,0.3,0,0.4-0.1L266.7,439.2z"/>
		<path class="st2" d="M267,438h1.6v0.2H267V438z M267,438.6h1.6v0.2H267V438.6z"/>
		<polygon class="st2" points="269.4,437.5 269.4,437.5 269,437.7 269,437.5 269.4,437.2 269.7,437.2 269.7,439.2 269.4,439.2 		"/>
		<path class="st2" d="M271,439.3c-0.4,0-0.7-0.4-0.7-1c0-0.7,0.3-1,0.7-1c0.4,0,0.7,0.4,0.7,1C271.7,438.9,271.5,439.3,271,439.3
			L271,439.3z M271,439c0.3,0,0.4-0.3,0.4-0.8c0-0.5-0.1-0.8-0.4-0.8c-0.2,0-0.4,0.3-0.4,0.8C270.6,438.7,270.8,439,271,439L271,439
			z"/>
		<path class="st2" d="M272.6,439.3c-0.4,0-0.7-0.4-0.7-1c0-0.7,0.3-1,0.7-1c0.4,0,0.7,0.4,0.7,1
			C273.3,438.9,273.1,439.3,272.6,439.3L272.6,439.3z M272.6,439c0.3,0,0.4-0.3,0.4-0.8c0-0.5-0.1-0.8-0.4-0.8
			c-0.2,0-0.4,0.3-0.4,0.8C272.2,438.7,272.4,439,272.6,439L272.6,439z"/>
		<path class="st2" d="M276.7,438.3c0-0.3,0-0.6,0-0.9h0c-0.1,0.2-0.2,0.5-0.3,0.8l-0.4,1h-0.2l-0.3-1c-0.1-0.3-0.2-0.6-0.2-0.8h0
			c0,0.3,0,0.6,0,0.9l-0.1,0.9h-0.3l0.1-2.1h0.3l0.4,1c0.1,0.3,0.2,0.5,0.2,0.7h0c0.1-0.2,0.1-0.4,0.2-0.7l0.4-1h0.3l0.1,2.1h-0.3
			L276.7,438.3z"/>
		<path class="st2" d="M277.3,438h1.6v0.2h-1.6V438z M277.3,438.6h1.6v0.2h-1.6V438.6z"/>
		<path class="st2" d="M279.8,439.3c-0.4,0-0.7-0.4-0.7-1c0-0.7,0.3-1,0.7-1c0.4,0,0.7,0.4,0.7,1
			C280.5,438.9,280.2,439.3,279.8,439.3L279.8,439.3z M279.8,439c0.3,0,0.4-0.3,0.4-0.8c0-0.5-0.1-0.8-0.4-0.8
			c-0.2,0-0.4,0.3-0.4,0.8C279.4,438.7,279.6,439,279.8,439L279.8,439z"/>
		<path class="st2" d="M282.5,439.2v-0.9l-0.7-1.2h0.3l0.3,0.6c0.1,0.2,0.1,0.3,0.2,0.4h0c0.1-0.1,0.1-0.3,0.2-0.4l0.3-0.6h0.3
			l-0.7,1.2v0.9H282.5z"/>
		<path class="st2" d="M283.6,438h1.6v0.2h-1.6V438z M283.6,438.6h1.6v0.2h-1.6V438.6z"/>
		<path class="st2" d="M286.7,439.3c-0.4,0-0.7-0.4-0.7-1c0-0.7,0.3-1,0.7-1c0.4,0,0.7,0.4,0.7,1
			C287.4,438.9,287.1,439.3,286.7,439.3L286.7,439.3z M286.7,439c0.3,0,0.4-0.3,0.4-0.8c0-0.5-0.1-0.8-0.4-0.8
			c-0.2,0-0.4,0.3-0.4,0.8C286.3,438.7,286.5,439,286.7,439L286.7,439z"/>
		<path class="st2" d="M289.1,437.1h0.3v1h0c0.1-0.1,0.1-0.2,0.2-0.2l0.6-0.8h0.3l-0.7,0.9l0.8,1.2h-0.3l-0.7-1l-0.2,0.2v0.8h-0.3
			V437.1z"/>
		<path class="st2" d="M290.6,438h1.6v0.2h-1.6V438z M290.6,438.6h1.6v0.2h-1.6V438.6z"/>
		<polygon class="st2" points="293.1,437.5 293,437.5 292.7,437.7 292.6,437.5 293.1,437.2 293.3,437.2 293.3,439.2 293.1,439.2 		
			"/>
		<path class="st2" d="M294.7,439.3c-0.4,0-0.7-0.4-0.7-1c0-0.7,0.3-1,0.7-1c0.4,0,0.7,0.4,0.7,1
			C295.4,438.9,295.1,439.3,294.7,439.3L294.7,439.3z M294.7,439c0.3,0,0.4-0.3,0.4-0.8c0-0.5-0.1-0.8-0.4-0.8
			c-0.2,0-0.4,0.3-0.4,0.8C294.3,438.7,294.4,439,294.7,439L294.7,439z"/>
		<path class="st2" d="M296.9,437.1c-0.2,0.3-0.4,0.7-0.4,1.3c0,0.6,0.2,0.9,0.4,1.2h-0.2c-0.2-0.3-0.4-0.6-0.4-1.3
			c0-0.6,0.2-1,0.4-1.3H296.9z"/>
		<polygon class="st2" points="298,437.2 297.7,437.6 297.7,437.6 298.2,437.5 298.2,437.8 297.7,437.7 297.7,437.7 298,438.1 
			297.8,438.2 297.6,437.8 297.6,437.8 297.4,438.2 297.3,438.1 297.6,437.7 297.6,437.7 297.1,437.8 297.1,437.5 297.6,437.6 
			297.6,437.6 297.3,437.2 297.5,437.1 297.6,437.5 297.7,437.5 297.8,437.1 		"/>
		<path class="st2" d="M298.4,439.6c0.2-0.3,0.4-0.7,0.4-1.3c0-0.6-0.2-0.9-0.4-1.3h0.2c0.2,0.3,0.4,0.6,0.4,1.3
			c0,0.6-0.2,1-0.4,1.3H298.4z"/>
		<polygon class="st2" points="202.3,454.9 203.6,454.9 203.6,455.3 202.8,455.3 202.8,455.7 203.5,455.7 203.5,456.1 202.8,456.1 
			202.8,456.9 202.3,456.9 		"/>
		<path class="st2" d="M204.5,457c-0.4,0-0.8-0.3-0.8-0.8c0-0.5,0.3-0.8,0.8-0.8c0.5,0,0.8,0.3,0.8,0.8
			C205.3,456.7,204.9,457,204.5,457L204.5,457z M204.5,456.6c0.2,0,0.3-0.2,0.3-0.5c0-0.2-0.1-0.4-0.3-0.4c-0.2,0-0.3,0.2-0.3,0.5
			C204.2,456.5,204.3,456.6,204.5,456.6L204.5,456.6z"/>
		<path class="st2" d="M205.6,455.9c0-0.2,0-0.3,0-0.5h0.4l0,0.2h0c0.1-0.1,0.2-0.2,0.5-0.2c0.3,0,0.5,0.2,0.5,0.6v0.9h-0.5v-0.8
			c0-0.2-0.1-0.3-0.2-0.3c-0.1,0-0.2,0.1-0.2,0.2c0,0,0,0.1,0,0.1v0.9h-0.5V455.9z"/>
		<path class="st2" d="M207.9,455v0.4h0.3v0.3h-0.3v0.5c0,0.2,0,0.3,0.2,0.3c0.1,0,0.1,0,0.1,0l0,0.4c-0.1,0-0.2,0-0.3,0
			c-0.2,0-0.3-0.1-0.4-0.1c-0.1-0.1-0.1-0.2-0.1-0.4v-0.6h-0.2v-0.3h0.2v-0.3L207.9,455z"/>
		<path class="st2" d="M208.5,456.5c0.1,0.1,0.3,0.1,0.4,0.1c0.1,0,0.2,0,0.2-0.1s0-0.1-0.2-0.2c-0.3-0.1-0.4-0.3-0.4-0.4
			c0-0.3,0.2-0.5,0.6-0.5c0.2,0,0.3,0,0.4,0.1l-0.1,0.3c-0.1,0-0.2-0.1-0.3-0.1c-0.1,0-0.2,0-0.2,0.1c0,0.1,0.1,0.1,0.2,0.2
			c0.3,0.1,0.4,0.2,0.4,0.5c0,0.3-0.2,0.5-0.6,0.5c-0.2,0-0.4,0-0.5-0.1L208.5,456.5z"/>
		<path class="st2" d="M210.1,457c-0.2,0-0.3-0.1-0.3-0.3c0-0.2,0.1-0.3,0.3-0.3c0.2,0,0.3,0.1,0.3,0.3
			C210.4,456.9,210.3,457,210.1,457L210.1,457z M210.1,456c-0.2,0-0.3-0.1-0.3-0.3c0-0.2,0.1-0.3,0.3-0.3c0.2,0,0.3,0.1,0.3,0.3
			C210.4,455.9,210.3,456,210.1,456L210.1,456z"/>
		<path class="st3" d="M202.3,462.3c0.1,0,0.3,0,0.5,0c0.3,0,0.5,0.1,0.6,0.2c0.1,0.1,0.2,0.2,0.2,0.4c0,0.3-0.2,0.5-0.4,0.5v0
			c0.2,0.1,0.3,0.2,0.3,0.4c0.1,0.3,0.1,0.5,0.2,0.6h-0.3c0-0.1-0.1-0.2-0.1-0.5c-0.1-0.3-0.2-0.4-0.4-0.4h-0.3v0.9h-0.3V462.3z
			 M202.6,463.2h0.3c0.3,0,0.5-0.2,0.5-0.4c0-0.3-0.2-0.4-0.5-0.4c-0.1,0-0.2,0-0.3,0V463.2z"/>
		<polygon class="st3" points="205.1,463.4 204.3,463.4 204.3,464.1 205.2,464.1 205.2,464.3 204,464.3 204,462.3 205.1,462.3 
			205.1,462.5 204.3,462.5 204.3,463.1 205.1,463.1 		"/>
		<path class="st3" d="M205.5,464c0.1,0.1,0.3,0.1,0.5,0.1c0.3,0,0.4-0.1,0.4-0.4c0-0.2-0.1-0.3-0.4-0.4c-0.3-0.1-0.5-0.3-0.5-0.6
			c0-0.3,0.3-0.6,0.7-0.6c0.2,0,0.4,0.1,0.5,0.1l-0.1,0.2c-0.1,0-0.2-0.1-0.4-0.1c-0.3,0-0.4,0.2-0.4,0.3c0,0.2,0.1,0.3,0.4,0.4
			c0.4,0.1,0.5,0.3,0.5,0.6c0,0.3-0.2,0.6-0.7,0.6c-0.2,0-0.4-0.1-0.5-0.1L205.5,464z"/>
		<path class="st3" d="M207.8,464.4c-0.5,0-0.9-0.4-0.9-1.1c0-0.7,0.4-1.1,1-1.1c0.6,0,0.9,0.4,0.9,1.1
			C208.8,464,208.4,464.4,207.8,464.4L207.8,464.4z M207.9,464.2c0.4,0,0.7-0.4,0.7-0.9c0-0.4-0.2-0.8-0.7-0.8s-0.7,0.4-0.7,0.9
			C207.2,463.8,207.4,464.2,207.9,464.2L207.9,464.2z"/>
		<polygon class="st3" points="209.2,462.3 209.4,462.3 209.4,464.1 210.3,464.1 210.3,464.3 209.2,464.3 		"/>
		<path class="st3" d="M210.8,464.3l-0.7-2.1h0.3l0.3,1c0.1,0.3,0.2,0.5,0.2,0.8h0c0.1-0.2,0.1-0.5,0.2-0.8l0.4-1h0.3l-0.7,2.1
			H210.8z"/>
		<polygon class="st3" points="213.2,463.4 212.4,463.4 212.4,464.1 213.3,464.1 213.3,464.3 212.1,464.3 212.1,462.3 213.2,462.3 
			213.2,462.5 212.4,462.5 212.4,463.1 213.2,463.1 		"/>
		<rect x="214.1" y="463.4" class="st2" width="0.8" height="0.2"/>
		<polygon class="st2" points="215.9,462.3 217,462.3 217,462.5 216.1,462.5 216.1,463.2 216.9,463.2 216.9,463.4 216.1,463.4 
			216.1,464.3 215.9,464.3 		"/>
		<path class="st2" d="M218.5,463.9c0,0.2,0,0.3,0,0.4h-0.2l0-0.2h0c-0.1,0.1-0.2,0.3-0.5,0.3c-0.2,0-0.5-0.1-0.5-0.7v-0.9h0.3v0.8
			c0,0.3,0.1,0.5,0.3,0.5c0.2,0,0.3-0.1,0.4-0.3c0,0,0-0.1,0-0.1v-0.9h0.3V463.9z"/>
		<path class="st2" d="M219.3,462.5v0.4h0.4v0.2h-0.4v0.8c0,0.2,0.1,0.3,0.2,0.3c0.1,0,0.1,0,0.2,0l0,0.2c-0.1,0-0.1,0-0.2,0
			c-0.1,0-0.2,0-0.3-0.1c-0.1-0.1-0.1-0.2-0.1-0.4v-0.8h-0.2v-0.2h0.2v-0.3L219.3,462.5z"/>
		<path class="st2" d="M221.2,463.9c0,0.2,0,0.3,0,0.4H221l0-0.2h0c-0.1,0.1-0.2,0.3-0.5,0.3c-0.2,0-0.5-0.1-0.5-0.7v-0.9h0.3v0.8
			c0,0.3,0.1,0.5,0.3,0.5c0.2,0,0.3-0.1,0.4-0.3c0,0,0-0.1,0-0.1v-0.9h0.3V463.9z"/>
		<path class="st2" d="M221.7,463.3c0-0.2,0-0.3,0-0.5h0.2l0,0.3h0c0.1-0.2,0.2-0.3,0.4-0.3c0,0,0,0,0.1,0v0.3c0,0-0.1,0-0.1,0
			c-0.2,0-0.3,0.1-0.4,0.3c0,0,0,0.1,0,0.1v0.8h-0.3L221.7,463.3z"/>
		<path class="st2" d="M223.7,464c0,0.1,0,0.3,0,0.4h-0.2l0-0.2h0c-0.1,0.1-0.2,0.2-0.5,0.2c-0.3,0-0.5-0.2-0.5-0.4
			c0-0.4,0.3-0.6,0.9-0.6v0c0-0.1,0-0.3-0.3-0.3c-0.1,0-0.3,0-0.4,0.1l-0.1-0.2c0.1-0.1,0.3-0.1,0.5-0.1c0.5,0,0.6,0.3,0.6,0.6V464z
			 M223.4,463.6c-0.3,0-0.6,0-0.6,0.3c0,0.2,0.1,0.3,0.3,0.3c0.2,0,0.3-0.1,0.4-0.3c0,0,0-0.1,0-0.1V463.6z"/>
		<polygon class="st2" points="225.1,462.5 224.4,462.5 224.4,462.3 226,462.3 226,462.5 225.3,462.5 225.3,464.3 225.1,464.3 		"/>
		<rect x="226.7" y="463.4" class="st2" width="0.8" height="0.2"/>
		<path class="st2" d="M228.5,462.3c0.2,0,0.4,0,0.6,0c0.4,0,0.7,0.1,0.8,0.3c0.2,0.2,0.3,0.4,0.3,0.7c0,0.3-0.1,0.6-0.3,0.8
			c-0.2,0.2-0.5,0.3-0.9,0.3c-0.2,0-0.4,0-0.5,0V462.3z M228.7,464.1c0.1,0,0.2,0,0.3,0c0.6,0,0.9-0.3,0.9-0.9
			c0-0.5-0.3-0.8-0.8-0.8c-0.1,0-0.2,0-0.3,0V464.1z"/>
		<path class="st2" d="M230.7,463.6c0,0.4,0.2,0.5,0.5,0.5c0.2,0,0.3,0,0.4-0.1l0,0.2c-0.1,0-0.3,0.1-0.5,0.1
			c-0.5,0-0.7-0.3-0.7-0.8c0-0.5,0.3-0.8,0.7-0.8c0.5,0,0.6,0.4,0.6,0.7c0,0.1,0,0.1,0,0.1L230.7,463.6z M231.5,463.4
			c0-0.2-0.1-0.4-0.4-0.4c-0.3,0-0.4,0.3-0.4,0.4H231.5z"/>
		<path class="st2" d="M232.1,463.3c0-0.2,0-0.3,0-0.4h0.2l0,0.2h0c0.1-0.1,0.2-0.3,0.5-0.3c0.2,0,0.4,0.1,0.4,0.3h0
			c0-0.1,0.1-0.1,0.2-0.2c0.1-0.1,0.2-0.1,0.3-0.1c0.2,0,0.5,0.1,0.5,0.6v0.9h-0.3v-0.8c0-0.3-0.1-0.5-0.3-0.5
			c-0.2,0-0.3,0.1-0.3,0.2c0,0,0,0.1,0,0.1v0.9H233v-0.9c0-0.2-0.1-0.4-0.3-0.4c-0.2,0-0.3,0.1-0.3,0.3c0,0,0,0.1,0,0.1v0.9h-0.3
			V463.3z"/>
		<path class="st2" d="M234.8,462.6c-0.1,0-0.2-0.1-0.2-0.2c0-0.1,0.1-0.2,0.2-0.2s0.2,0.1,0.2,0.2
			C234.9,462.5,234.9,462.6,234.8,462.6L234.8,462.6z M234.6,462.9h0.3v1.5h-0.3V462.9z"/>
		<path class="st4" d="M204.1,467.1c0-0.3,0-0.6,0-0.9h0c-0.1,0.2-0.2,0.5-0.3,0.8l-0.4,1h-0.2l-0.3-1c-0.1-0.3-0.2-0.6-0.2-0.8h0
			c0,0.3,0,0.6,0,0.9l-0.1,0.9h-0.3l0.1-2.1h0.3l0.4,1c0.1,0.3,0.2,0.5,0.2,0.7h0c0.1-0.2,0.1-0.4,0.2-0.7l0.4-1h0.3l0.1,2.1h-0.3
			L204.1,467.1z"/>
		<path class="st4" d="M205.2,467.4l-0.2,0.7h-0.3l0.7-2.1h0.3l0.7,2.1h-0.3l-0.2-0.7H205.2z M205.8,467.2l-0.2-0.6
			c0-0.1-0.1-0.3-0.1-0.4h0c0,0.1-0.1,0.3-0.1,0.4l-0.2,0.6H205.8z"/>
		<path class="st4" d="M206.7,466c0.1,0,0.3,0,0.5,0c0.3,0,0.5,0.1,0.6,0.2c0.1,0.1,0.2,0.2,0.2,0.4c0,0.3-0.2,0.5-0.4,0.5v0
			c0.2,0.1,0.3,0.2,0.3,0.4c0.1,0.3,0.1,0.5,0.2,0.6h-0.3c0-0.1-0.1-0.2-0.1-0.5c-0.1-0.3-0.2-0.4-0.4-0.4H207v0.9h-0.3V466z
			 M207,466.9h0.3c0.3,0,0.5-0.2,0.5-0.4c0-0.3-0.2-0.4-0.5-0.4c-0.1,0-0.2,0-0.3,0V466.9z"/>
		<rect x="208.4" y="466" class="st4" width="0.3" height="2.1"/>
		<path class="st4" d="M209.1,468V466h0.3l0.7,1.1c0.1,0.2,0.3,0.5,0.4,0.7l0,0c0-0.3,0-0.5,0-0.8V466h0.3v2.1h-0.3l-0.7-1.1
			c-0.1-0.2-0.3-0.5-0.4-0.7l0,0c0,0.3,0,0.5,0,0.9v0.9H209.1z"/>
		<polygon class="st4" points="212.2,467.1 211.4,467.1 211.4,467.8 212.3,467.8 212.3,468 211.1,468 211.1,466 212.2,466 
			212.2,466.2 211.4,466.2 211.4,466.8 212.2,466.8 		"/>
		<path class="st4" d="M214.9,467.9c-0.1,0-0.4,0.1-0.6,0.1c-0.3,0-0.6-0.1-0.8-0.3c-0.2-0.2-0.3-0.4-0.3-0.8c0-0.6,0.4-1.1,1.1-1.1
			c0.2,0,0.4,0.1,0.5,0.1l-0.1,0.2c-0.1-0.1-0.2-0.1-0.5-0.1c-0.5,0-0.8,0.3-0.8,0.8c0,0.5,0.3,0.8,0.8,0.8c0.2,0,0.3,0,0.4-0.1
			v-0.6h-0.4v-0.2h0.7V467.9z"/>
		<path class="st4" d="M215.3,466c0.1,0,0.3,0,0.5,0c0.3,0,0.5,0.1,0.6,0.2c0.1,0.1,0.2,0.2,0.2,0.4c0,0.3-0.2,0.5-0.4,0.5v0
			c0.2,0.1,0.3,0.2,0.3,0.4c0.1,0.3,0.1,0.5,0.2,0.6h-0.3c0-0.1-0.1-0.2-0.1-0.5c-0.1-0.3-0.2-0.4-0.4-0.4h-0.3v0.9h-0.3V466z
			 M215.5,466.9h0.3c0.3,0,0.5-0.2,0.5-0.4c0-0.3-0.2-0.4-0.5-0.4c-0.1,0-0.2,0-0.3,0V466.9z"/>
		<path class="st4" d="M217.8,468.1c-0.5,0-0.9-0.4-0.9-1.1c0-0.7,0.4-1.1,1-1.1c0.6,0,0.9,0.4,0.9,1.1
			C218.7,467.7,218.3,468.1,217.8,468.1L217.8,468.1z M217.8,467.9c0.4,0,0.7-0.4,0.7-0.9c0-0.4-0.2-0.8-0.7-0.8s-0.7,0.4-0.7,0.9
			C217.1,467.4,217.3,467.9,217.8,467.9L217.8,467.9z"/>
		<path class="st4" d="M219.3,466v1.2c0,0.5,0.2,0.7,0.5,0.7c0.3,0,0.5-0.2,0.5-0.7V466h0.3v1.2c0,0.6-0.3,0.9-0.8,0.9
			c-0.4,0-0.7-0.2-0.7-0.9V466H219.3z"/>
		<path class="st4" d="M221.1,466c0.1,0,0.3,0,0.5,0c0.3,0,0.5,0.1,0.6,0.2c0.1,0.1,0.2,0.3,0.2,0.4c0,0.2-0.1,0.3-0.2,0.4
			c-0.1,0.2-0.4,0.2-0.6,0.2c-0.1,0-0.2,0-0.2,0v0.8h-0.3V466z M221.3,467c0.1,0,0.1,0,0.2,0c0.3,0,0.5-0.2,0.5-0.4
			c0-0.3-0.2-0.4-0.5-0.4c-0.1,0-0.2,0-0.3,0V467z"/>
		<rect x="223.4" y="466" class="st4" width="0.3" height="2.1"/>
		<path class="st4" d="M224.1,468V466h0.3l0.7,1.1c0.1,0.2,0.3,0.5,0.4,0.7l0,0c0-0.3,0-0.5,0-0.8V466h0.3v2.1h-0.3l-0.7-1.1
			c-0.1-0.2-0.3-0.5-0.4-0.7l0,0c0,0.3,0,0.5,0,0.9v0.9H224.1z"/>
		<path class="st4" d="M227.6,468c-0.1,0-0.3,0.1-0.5,0.1c-0.6,0-1-0.4-1-1.1c0-0.7,0.4-1.1,1.1-1.1c0.3,0,0.4,0.1,0.5,0.1l-0.1,0.2
			c-0.1-0.1-0.2-0.1-0.4-0.1c-0.5,0-0.8,0.3-0.8,0.9c0,0.5,0.3,0.8,0.8,0.8c0.2,0,0.3,0,0.4-0.1L227.6,468z"/>
		<path class="st4" d="M228,468.1c-0.1,0-0.2-0.1-0.2-0.2c0-0.1,0.1-0.2,0.2-0.2c0.1,0,0.2,0.1,0.2,0.2
			C228.2,468,228.1,468.1,228,468.1L228,468.1z"/>
		<rect x="228.8" y="467.1" class="st2" width="0.8" height="0.2"/>
		<polygon class="st2" points="230.6,466 231.7,466 231.7,466.2 230.8,466.2 230.8,466.9 231.6,466.9 231.6,467.1 230.8,467.1 
			230.8,468 230.6,468 		"/>
		<path class="st2" d="M233.2,467.6c0,0.2,0,0.3,0,0.4H233l0-0.2h0c-0.1,0.1-0.2,0.3-0.5,0.3c-0.2,0-0.5-0.1-0.5-0.7v-0.9h0.3v0.8
			c0,0.3,0.1,0.5,0.3,0.5c0.2,0,0.3-0.1,0.4-0.3c0,0,0-0.1,0-0.1v-0.9h0.3V467.6z"/>
		<path class="st2" d="M234,466.2v0.4h0.4v0.2H234v0.8c0,0.2,0.1,0.3,0.2,0.3c0.1,0,0.1,0,0.2,0l0,0.2c-0.1,0-0.1,0-0.2,0
			c-0.1,0-0.2,0-0.3-0.1c-0.1-0.1-0.1-0.2-0.1-0.4v-0.8h-0.2v-0.2h0.2v-0.3L234,466.2z"/>
		<path class="st2" d="M235.9,467.6c0,0.2,0,0.3,0,0.4h-0.2l0-0.2h0c-0.1,0.1-0.2,0.3-0.5,0.3c-0.2,0-0.5-0.1-0.5-0.7v-0.9h0.3v0.8
			c0,0.3,0.1,0.5,0.3,0.5c0.2,0,0.3-0.1,0.4-0.3c0,0,0-0.1,0-0.1v-0.9h0.3V467.6z"/>
		<path class="st2" d="M236.4,467c0-0.2,0-0.3,0-0.5h0.2l0,0.3h0c0.1-0.2,0.2-0.3,0.4-0.3c0,0,0,0,0.1,0v0.3c0,0-0.1,0-0.1,0
			c-0.2,0-0.3,0.1-0.4,0.3c0,0,0,0.1,0,0.1v0.8h-0.3L236.4,467z"/>
		<path class="st2" d="M238.4,467.7c0,0.1,0,0.3,0,0.4h-0.2l0-0.2h0c-0.1,0.1-0.2,0.2-0.5,0.2c-0.3,0-0.5-0.2-0.5-0.4
			c0-0.4,0.3-0.6,0.9-0.6v0c0-0.1,0-0.3-0.3-0.3c-0.1,0-0.3,0-0.4,0.1l-0.1-0.2c0.1-0.1,0.3-0.1,0.5-0.1c0.5,0,0.6,0.3,0.6,0.6
			V467.7z M238.1,467.3c-0.3,0-0.6,0-0.6,0.3c0,0.2,0.1,0.3,0.3,0.3c0.2,0,0.3-0.1,0.4-0.3c0,0,0-0.1,0-0.1V467.3z"/>
		<polygon class="st2" points="239.8,466.2 239.1,466.2 239.1,466 240.7,466 240.7,466.2 240,466.2 240,468 239.8,468 		"/>
		<rect x="241.4" y="467.1" class="st2" width="0.8" height="0.2"/>
		<path class="st2" d="M243.1,466c0.2,0,0.4,0,0.6,0c0.4,0,0.7,0.1,0.8,0.3c0.2,0.2,0.3,0.4,0.3,0.7c0,0.3-0.1,0.6-0.3,0.8
			c-0.2,0.2-0.5,0.3-0.9,0.3c-0.2,0-0.4,0-0.5,0V466z M243.4,467.8c0.1,0,0.2,0,0.3,0c0.6,0,0.9-0.3,0.9-0.9c0-0.5-0.3-0.8-0.8-0.8
			c-0.1,0-0.2,0-0.3,0V467.8z"/>
		<path class="st2" d="M245.4,467.3c0,0.4,0.2,0.5,0.5,0.5c0.2,0,0.3,0,0.4-0.1l0,0.2c-0.1,0-0.3,0.1-0.5,0.1
			c-0.5,0-0.7-0.3-0.7-0.8c0-0.5,0.3-0.8,0.7-0.8c0.5,0,0.6,0.4,0.6,0.7c0,0.1,0,0.1,0,0.1L245.4,467.3z M246.2,467.1
			c0-0.2-0.1-0.4-0.4-0.4c-0.3,0-0.4,0.3-0.4,0.4H246.2z"/>
		<path class="st2" d="M246.8,466.9c0-0.2,0-0.3,0-0.4h0.2l0,0.2h0c0.1-0.1,0.2-0.3,0.5-0.3c0.2,0,0.4,0.1,0.4,0.3h0
			c0-0.1,0.1-0.1,0.2-0.2c0.1-0.1,0.2-0.1,0.3-0.1c0.2,0,0.5,0.1,0.5,0.6v0.9h-0.3v-0.8c0-0.3-0.1-0.5-0.3-0.5
			c-0.2,0-0.3,0.1-0.3,0.2c0,0,0,0.1,0,0.1v0.9h-0.3v-0.9c0-0.2-0.1-0.4-0.3-0.4c-0.2,0-0.3,0.1-0.3,0.3c0,0,0,0.1,0,0.1v0.9h-0.3
			V466.9z"/>
		<path class="st2" d="M249.5,466.3c-0.1,0-0.2-0.1-0.2-0.2c0-0.1,0.1-0.2,0.2-0.2c0.1,0,0.2,0.1,0.2,0.2
			C249.6,466.2,249.6,466.3,249.5,466.3L249.5,466.3z M249.3,466.5h0.3v1.5h-0.3V466.5z"/>
		<path class="st2" d="M265.7,462.3c-0.2,0.3-0.4,0.7-0.4,1.3c0,0.6,0.2,0.9,0.4,1.2h-0.2c-0.2-0.3-0.4-0.6-0.4-1.3
			c0-0.6,0.2-1,0.4-1.3H265.7z"/>
		<polygon class="st2" points="266.8,462.4 266.5,462.8 266.5,462.8 267,462.8 267,463 266.5,462.9 266.5,462.9 266.8,463.3 
			266.6,463.4 266.4,463 266.4,463 266.2,463.4 266.1,463.3 266.4,462.9 266.4,462.9 265.9,463 265.9,462.8 266.3,462.8 
			266.3,462.8 266.1,462.4 266.2,462.3 266.4,462.8 266.4,462.8 266.6,462.3 		"/>
		<path class="st2" d="M267.1,464.8c0.2-0.3,0.4-0.7,0.4-1.3c0-0.6-0.2-0.9-0.4-1.3h0.2c0.2,0.3,0.4,0.6,0.4,1.3
			c0,0.6-0.2,1-0.4,1.3H267.1z"/>
		<path class="st2" d="M268.8,464.4v-2.1h0.3l0.7,1.1c0.1,0.2,0.3,0.5,0.4,0.7l0,0c0-0.3,0-0.5,0-0.9v-0.9h0.3v2.1h-0.3l-0.7-1.1
			c-0.1-0.2-0.3-0.5-0.4-0.7l0,0c0,0.3,0,0.5,0,0.9v0.9H268.8z"/>
		<path class="st2" d="M272.2,463.7c0,0.6-0.4,0.8-0.7,0.8c-0.4,0-0.7-0.3-0.7-0.8c0-0.5,0.3-0.8,0.7-0.8
			C271.9,462.9,272.2,463.2,272.2,463.7 M271,463.7c0,0.3,0.2,0.6,0.5,0.6c0.3,0,0.5-0.2,0.5-0.6c0-0.3-0.1-0.6-0.4-0.6
			C271.2,463.1,271,463.4,271,463.7"/>
		<path class="st2" d="M272.9,462.6v0.4h0.4v0.2h-0.4v0.8c0,0.2,0.1,0.3,0.2,0.3c0.1,0,0.1,0,0.2,0l0,0.2c-0.1,0-0.1,0-0.2,0
			c-0.1,0-0.2,0-0.3-0.1c-0.1-0.1-0.1-0.2-0.1-0.4v-0.8h-0.2V463h0.2v-0.3L272.9,462.6z"/>
		<path class="st2" d="M274.3,464.4v-1.3H274V463h0.2v-0.1c0-0.2,0-0.4,0.2-0.5c0.1-0.1,0.2-0.1,0.4-0.1c0.1,0,0.2,0,0.2,0l0,0.2
			c0,0-0.1,0-0.2,0c-0.2,0-0.3,0.2-0.3,0.4v0.1h0.4v0.2h-0.4v1.3H274.3z"/>
		<path class="st2" d="M275.1,463.4c0-0.2,0-0.3,0-0.5h0.2l0,0.3h0c0.1-0.2,0.2-0.3,0.4-0.3c0,0,0,0,0.1,0v0.3c0,0-0.1,0-0.1,0
			c-0.2,0-0.3,0.1-0.4,0.3c0,0,0,0.1,0,0.1v0.8h-0.3V463.4z"/>
		<path class="st2" d="M277.4,463.7c0,0.6-0.4,0.8-0.7,0.8c-0.4,0-0.7-0.3-0.7-0.8c0-0.5,0.3-0.8,0.7-0.8
			C277.2,462.9,277.4,463.2,277.4,463.7 M276.3,463.7c0,0.3,0.2,0.6,0.5,0.6c0.3,0,0.5-0.2,0.5-0.6c0-0.3-0.1-0.6-0.4-0.6
			C276.4,463.1,276.3,463.4,276.3,463.7"/>
		<path class="st2" d="M277.8,463.4c0-0.2,0-0.3,0-0.4h0.2l0,0.2h0c0.1-0.1,0.2-0.3,0.5-0.3c0.2,0,0.4,0.1,0.4,0.3h0
			c0-0.1,0.1-0.1,0.2-0.2c0.1-0.1,0.2-0.1,0.3-0.1c0.2,0,0.5,0.1,0.5,0.6v0.9h-0.3v-0.8c0-0.3-0.1-0.5-0.3-0.5
			c-0.2,0-0.3,0.1-0.3,0.2c0,0,0,0.1,0,0.1v0.9h-0.3v-0.9c0-0.2-0.1-0.4-0.3-0.4c-0.2,0-0.3,0.1-0.3,0.3c0,0,0,0.1,0,0.1v0.9h-0.3
			V463.4z"/>
		<path class="st2" d="M281,462.4c0.1,0,0.3,0,0.5,0c0.3,0,0.5,0.1,0.6,0.2c0.1,0.1,0.2,0.3,0.2,0.4s-0.1,0.3-0.2,0.4
			c-0.1,0.2-0.4,0.2-0.6,0.2c-0.1,0-0.2,0-0.2,0v0.8H281V462.4z M281.3,463.4c0.1,0,0.1,0,0.2,0c0.3,0,0.5-0.2,0.5-0.4
			c0-0.3-0.2-0.4-0.5-0.4c-0.1,0-0.2,0-0.3,0V463.4z"/>
		<path class="st2" d="M283.6,464.1c0,0.1,0,0.3,0,0.4h-0.2l0-0.2h0c-0.1,0.1-0.2,0.2-0.5,0.2c-0.3,0-0.5-0.2-0.5-0.4
			c0-0.4,0.3-0.6,0.9-0.6v0c0-0.1,0-0.3-0.3-0.3c-0.1,0-0.3,0-0.4,0.1l-0.1-0.2c0.1-0.1,0.3-0.1,0.5-0.1c0.5,0,0.6,0.3,0.6,0.6
			V464.1z M283.4,463.7c-0.3,0-0.6,0-0.6,0.3c0,0.2,0.1,0.3,0.3,0.3c0.2,0,0.3-0.1,0.4-0.3c0,0,0-0.1,0-0.1V463.7z"/>
		<path class="st2" d="M284.1,463.4c0-0.2,0-0.3,0-0.4h0.2l0,0.2h0c0.1-0.1,0.2-0.3,0.5-0.3c0.2,0,0.5,0.1,0.5,0.6v0.9h-0.3v-0.9
			c0-0.2-0.1-0.4-0.3-0.4c-0.2,0-0.3,0.1-0.4,0.3c0,0,0,0.1,0,0.1v0.9h-0.3V463.4z"/>
		<path class="st2" d="M286.1,462.6v0.4h0.4v0.2h-0.4v0.8c0,0.2,0.1,0.3,0.2,0.3c0.1,0,0.1,0,0.2,0l0,0.2c-0.1,0-0.1,0-0.2,0
			c-0.1,0-0.2,0-0.3-0.1c-0.1-0.1-0.1-0.2-0.1-0.4v-0.8h-0.2V463h0.2v-0.3L286.1,462.6z"/>
		<path class="st2" d="M288.1,463.7c0,0.6-0.4,0.8-0.7,0.8c-0.4,0-0.7-0.3-0.7-0.8c0-0.5,0.3-0.8,0.7-0.8
			C287.8,462.9,288.1,463.2,288.1,463.7 M286.9,463.7c0,0.3,0.2,0.6,0.5,0.6c0.3,0,0.5-0.2,0.5-0.6c0-0.3-0.1-0.6-0.4-0.6
			C287.1,463.1,286.9,463.4,286.9,463.7"/>
		<path class="st2" d="M288.4,463.4c0-0.2,0-0.3,0-0.4h0.2l0,0.2h0c0.1-0.1,0.2-0.3,0.5-0.3c0.2,0,0.5,0.1,0.5,0.6v0.9h-0.3v-0.9
			c0-0.2-0.1-0.4-0.3-0.4c-0.2,0-0.3,0.1-0.4,0.3c0,0,0,0.1,0,0.1v0.9h-0.3V463.4z"/>
		<path class="st2" d="M290.3,463.8c0,0.4,0.2,0.5,0.5,0.5c0.2,0,0.3,0,0.4-0.1l0,0.2c-0.1,0-0.3,0.1-0.5,0.1
			c-0.5,0-0.7-0.3-0.7-0.8c0-0.5,0.3-0.8,0.7-0.8c0.5,0,0.6,0.4,0.6,0.7c0,0.1,0,0.1,0,0.1H290.3z M291.1,463.6
			c0-0.2-0.1-0.4-0.4-0.4c-0.3,0-0.4,0.2-0.4,0.4H291.1z"/>
		<path class="st2" d="M292.4,462.3h0.3v0.9h0c0.1-0.2,0.3-0.3,0.5-0.3c0.4,0,0.6,0.3,0.6,0.8c0,0.5-0.3,0.8-0.7,0.8
			c-0.2,0-0.4-0.1-0.5-0.3h0l0,0.2h-0.2c0-0.1,0-0.3,0-0.4V462.3z M292.6,463.8C292.6,463.9,292.6,463.9,292.6,463.8
			c0.1,0.3,0.2,0.4,0.4,0.4c0.3,0,0.5-0.2,0.5-0.6c0-0.3-0.2-0.6-0.4-0.6c-0.2,0-0.4,0.1-0.4,0.3c0,0,0,0.1,0,0.1V463.8z"/>
		<path class="st2" d="M294.1,463.4c0-0.2,0-0.3,0-0.5h0.2l0,0.3h0c0.1-0.2,0.2-0.3,0.4-0.3c0,0,0,0,0.1,0v0.3c0,0-0.1,0-0.1,0
			c-0.2,0-0.3,0.1-0.4,0.3c0,0,0,0.1,0,0.1v0.8h-0.3V463.4z"/>
		<path class="st2" d="M295.2,463.8c0,0.4,0.2,0.5,0.5,0.5c0.2,0,0.3,0,0.4-0.1l0,0.2c-0.1,0-0.3,0.1-0.5,0.1
			c-0.5,0-0.7-0.3-0.7-0.8c0-0.5,0.3-0.8,0.7-0.8c0.5,0,0.6,0.4,0.6,0.7c0,0.1,0,0.1,0,0.1H295.2z M296,463.6c0-0.2-0.1-0.4-0.4-0.4
			c-0.3,0-0.4,0.2-0.4,0.4H296z"/>
		<path class="st2" d="M297.7,464.1c0,0.1,0,0.3,0,0.4h-0.2l0-0.2h0c-0.1,0.1-0.2,0.2-0.5,0.2c-0.3,0-0.5-0.2-0.5-0.4
			c0-0.4,0.3-0.6,0.9-0.6v0c0-0.1,0-0.3-0.3-0.3c-0.1,0-0.3,0-0.4,0.1l-0.1-0.2c0.1-0.1,0.3-0.1,0.5-0.1c0.5,0,0.6,0.3,0.6,0.6
			V464.1z M297.4,463.7c-0.3,0-0.6,0-0.6,0.3c0,0.2,0.1,0.3,0.3,0.3c0.2,0,0.3-0.1,0.4-0.3c0,0,0-0.1,0-0.1V463.7z"/>
		<path class="st2" d="M298.4,463.6L298.4,463.6c0-0.1,0.1-0.1,0.1-0.2l0.4-0.5h0.3l-0.6,0.6l0.7,0.9H299l-0.5-0.7l-0.1,0.2v0.6
			h-0.3v-2.2h0.3V463.6z"/>
		<path class="st2" d="M300.8,462.3v1.8c0,0.1,0,0.3,0,0.4h-0.2l0-0.3h0c-0.1,0.2-0.3,0.3-0.5,0.3c-0.4,0-0.6-0.3-0.6-0.8
			c0-0.5,0.3-0.8,0.7-0.8c0.2,0,0.4,0.1,0.4,0.2h0v-0.9H300.8z M300.6,463.6c0,0,0-0.1,0-0.1c0-0.2-0.2-0.3-0.4-0.3
			c-0.3,0-0.4,0.2-0.4,0.6c0,0.3,0.2,0.5,0.4,0.5c0.2,0,0.3-0.1,0.4-0.3c0,0,0-0.1,0-0.1V463.6z"/>
		<path class="st2" d="M302.6,463.7c0,0.6-0.4,0.8-0.7,0.8c-0.4,0-0.7-0.3-0.7-0.8c0-0.5,0.3-0.8,0.7-0.8
			C302.3,462.9,302.6,463.2,302.6,463.7 M301.5,463.7c0,0.3,0.2,0.6,0.5,0.6c0.3,0,0.5-0.2,0.5-0.6c0-0.3-0.1-0.6-0.4-0.6
			C301.6,463.1,301.5,463.4,301.5,463.7"/>
		<path class="st2" d="M303.1,463l0.2,0.8c0,0.2,0.1,0.3,0.1,0.5h0c0-0.2,0.1-0.3,0.1-0.5l0.2-0.8h0.2l0.2,0.7
			c0.1,0.2,0.1,0.3,0.1,0.5h0c0-0.2,0.1-0.3,0.1-0.5l0.2-0.7h0.3l-0.5,1.5h-0.2l-0.2-0.7c-0.1-0.2-0.1-0.3-0.1-0.5h0
			c0,0.2-0.1,0.3-0.1,0.5l-0.2,0.7h-0.2l-0.5-1.5H303.1z"/>
		<path class="st2" d="M305.2,463.4c0-0.2,0-0.3,0-0.4h0.2l0,0.2h0c0.1-0.1,0.2-0.3,0.5-0.3c0.2,0,0.5,0.1,0.5,0.6v0.9h-0.3v-0.9
			c0-0.2-0.1-0.4-0.3-0.4c-0.2,0-0.3,0.1-0.4,0.3c0,0,0,0.1,0,0.1v0.9h-0.3V463.4z"/>
		<path class="st2" d="M306.9,464.3c0-0.1,0.1-0.2,0.2-0.2c0.1,0,0.2,0.1,0.2,0.2c0,0.1-0.1,0.2-0.2,0.2
			C306.9,464.5,306.9,464.4,306.9,464.3"/>
		<path class="st2" d="M308.2,462.4c0.1,0,0.3,0,0.5,0c0.3,0,0.5,0.1,0.6,0.2c0.1,0.1,0.2,0.3,0.2,0.4s-0.1,0.3-0.2,0.4
			c-0.1,0.2-0.4,0.2-0.6,0.2c-0.1,0-0.2,0-0.2,0v0.8h-0.3V462.4z M308.5,463.4c0.1,0,0.1,0,0.2,0c0.3,0,0.5-0.2,0.5-0.4
			c0-0.3-0.2-0.4-0.5-0.4c-0.1,0-0.2,0-0.3,0V463.4z"/>
		<rect x="309.8" y="462.3" class="st2" width="0.3" height="2.2"/>
		<path class="st2" d="M310.7,463.8c0,0.4,0.2,0.5,0.5,0.5c0.2,0,0.3,0,0.4-0.1l0,0.2c-0.1,0-0.3,0.1-0.5,0.1
			c-0.5,0-0.7-0.3-0.7-0.8c0-0.5,0.3-0.8,0.7-0.8c0.5,0,0.6,0.4,0.6,0.7c0,0.1,0,0.1,0,0.1H310.7z M311.5,463.6
			c0-0.2-0.1-0.4-0.4-0.4c-0.3,0-0.4,0.2-0.4,0.4H311.5z"/>
		<path class="st2" d="M313.2,464.1c0,0.1,0,0.3,0,0.4h-0.2l0-0.2h0c-0.1,0.1-0.2,0.2-0.5,0.2c-0.3,0-0.5-0.2-0.5-0.4
			c0-0.4,0.3-0.6,0.9-0.6v0c0-0.1,0-0.3-0.3-0.3c-0.1,0-0.3,0-0.4,0.1l-0.1-0.2c0.1-0.1,0.3-0.1,0.5-0.1c0.5,0,0.6,0.3,0.6,0.6
			V464.1z M312.9,463.7c-0.3,0-0.6,0-0.6,0.3c0,0.2,0.1,0.3,0.3,0.3c0.2,0,0.3-0.1,0.4-0.3c0,0,0-0.1,0-0.1V463.7z"/>
		<path class="st2" d="M313.6,464.2c0.1,0,0.2,0.1,0.4,0.1c0.2,0,0.3-0.1,0.3-0.2c0-0.1-0.1-0.2-0.3-0.3c-0.3-0.1-0.4-0.2-0.4-0.4
			c0-0.2,0.2-0.4,0.5-0.4c0.2,0,0.3,0,0.4,0.1l-0.1,0.2c-0.1,0-0.2-0.1-0.3-0.1c-0.2,0-0.2,0.1-0.2,0.2c0,0.1,0.1,0.2,0.3,0.3
			c0.3,0.1,0.4,0.2,0.4,0.4c0,0.3-0.2,0.5-0.6,0.5c-0.2,0-0.3,0-0.4-0.1L313.6,464.2z"/>
		<path class="st2" d="M315,463.8c0,0.4,0.2,0.5,0.5,0.5c0.2,0,0.3,0,0.4-0.1l0,0.2c-0.1,0-0.3,0.1-0.5,0.1c-0.5,0-0.7-0.3-0.7-0.8
			c0-0.5,0.3-0.8,0.7-0.8c0.5,0,0.6,0.4,0.6,0.7c0,0.1,0,0.1,0,0.1H315z M315.8,463.6c0-0.2-0.1-0.4-0.4-0.4c-0.3,0-0.4,0.2-0.4,0.4
			H315.8z"/>
		<path class="st2" d="M265.2,468.1v-1.3H265v-0.2h0.2v-0.1c0-0.2,0-0.4,0.2-0.5c0.1-0.1,0.2-0.1,0.4-0.1c0.1,0,0.2,0,0.2,0l0,0.2
			c0,0-0.1,0-0.2,0c-0.2,0-0.3,0.2-0.3,0.4v0.1h0.4v0.2h-0.4v1.3H265.2z"/>
		<path class="st2" d="M267.4,467.4c0,0.5-0.4,0.8-0.7,0.8c-0.4,0-0.7-0.3-0.7-0.8c0-0.5,0.3-0.8,0.7-0.8
			C267.1,466.6,267.4,466.9,267.4,467.4 M266.2,467.4c0,0.3,0.2,0.6,0.5,0.6c0.3,0,0.5-0.2,0.5-0.6c0-0.3-0.1-0.6-0.4-0.6
			C266.3,466.8,266.2,467.1,266.2,467.4"/>
		<rect x="267.7" y="466" class="st2" width="0.3" height="2.2"/>
		<rect x="268.4" y="466" class="st2" width="0.3" height="2.2"/>
		<path class="st2" d="M270.5,467.4c0,0.5-0.4,0.8-0.7,0.8c-0.4,0-0.7-0.3-0.7-0.8c0-0.5,0.3-0.8,0.7-0.8
			C270.2,466.6,270.5,466.9,270.5,467.4 M269.3,467.4c0,0.3,0.2,0.6,0.5,0.6c0.3,0,0.5-0.2,0.5-0.6c0-0.3-0.1-0.6-0.4-0.6
			C269.5,466.8,269.3,467.1,269.3,467.4"/>
		<path class="st2" d="M270.9,466.7l0.2,0.8c0,0.2,0.1,0.3,0.1,0.5h0c0-0.2,0.1-0.3,0.1-0.5l0.2-0.8h0.2l0.2,0.7
			c0.1,0.2,0.1,0.3,0.1,0.5h0c0-0.2,0.1-0.3,0.1-0.5l0.2-0.7h0.3l-0.5,1.5h-0.2l-0.2-0.7c-0.1-0.2-0.1-0.3-0.1-0.5h0
			c0,0.2-0.1,0.3-0.1,0.5l-0.2,0.7h-0.2l-0.5-1.5H270.9z"/>
		<path class="st2" d="M274.1,466.3v0.4h0.4v0.2h-0.4v0.8c0,0.2,0.1,0.3,0.2,0.3c0.1,0,0.1,0,0.2,0l0,0.2c-0.1,0-0.1,0-0.2,0
			c-0.1,0-0.2,0-0.3-0.1c-0.1-0.1-0.1-0.2-0.1-0.4v-0.8h-0.2v-0.2h0.2v-0.3L274.1,466.3z"/>
		<path class="st2" d="M274.8,466h0.3v0.9h0c0-0.1,0.1-0.1,0.2-0.2c0.1,0,0.2-0.1,0.3-0.1c0.2,0,0.5,0.1,0.5,0.6v0.9h-0.3v-0.9
			c0-0.2-0.1-0.4-0.3-0.4c-0.2,0-0.3,0.1-0.4,0.3c0,0,0,0.1,0,0.1v0.9h-0.3V466z"/>
		<path class="st2" d="M276.6,467.4c0,0.4,0.2,0.5,0.5,0.5c0.2,0,0.3,0,0.4-0.1l0,0.2c-0.1,0-0.3,0.1-0.5,0.1
			c-0.5,0-0.7-0.3-0.7-0.8c0-0.5,0.3-0.8,0.7-0.8c0.5,0,0.6,0.4,0.6,0.7c0,0.1,0,0.1,0,0.1H276.6z M277.4,467.3
			c0-0.2-0.1-0.4-0.4-0.4c-0.3,0-0.4,0.2-0.4,0.4H277.4z"/>
		<path class="st2" d="M278,467.9c0.1,0,0.2,0.1,0.4,0.1c0.2,0,0.3-0.1,0.3-0.2c0-0.1-0.1-0.2-0.3-0.3c-0.3-0.1-0.4-0.2-0.4-0.4
			c0-0.2,0.2-0.4,0.5-0.4c0.2,0,0.3,0,0.4,0.1l-0.1,0.2c-0.1,0-0.2-0.1-0.3-0.1c-0.2,0-0.2,0.1-0.2,0.2c0,0.1,0.1,0.2,0.3,0.3
			c0.3,0.1,0.4,0.2,0.4,0.4c0,0.3-0.2,0.5-0.6,0.5c-0.2,0-0.3,0-0.4-0.1L278,467.9z"/>
		<path class="st2" d="M279.4,467.4c0,0.4,0.2,0.5,0.5,0.5c0.2,0,0.3,0,0.4-0.1l0,0.2c-0.1,0-0.3,0.1-0.5,0.1
			c-0.5,0-0.7-0.3-0.7-0.8c0-0.5,0.3-0.8,0.7-0.8c0.5,0,0.6,0.4,0.6,0.7c0,0.1,0,0.1,0,0.1H279.4z M280.2,467.3
			c0-0.2-0.1-0.4-0.4-0.4c-0.3,0-0.4,0.2-0.4,0.4H280.2z"/>
		<path class="st2" d="M281.4,467.1c0-0.2,0-0.3,0-0.4h0.2l0,0.2h0c0.1-0.1,0.2-0.3,0.5-0.3c0.2,0,0.5,0.1,0.5,0.6v0.9h-0.3v-0.9
			c0-0.2-0.1-0.4-0.3-0.4c-0.2,0-0.3,0.1-0.4,0.3c0,0,0,0.1,0,0.1v0.9h-0.3V467.1z"/>
		<path class="st2" d="M284.4,467.7c0,0.2,0,0.3,0,0.4h-0.2l0-0.2h0c-0.1,0.1-0.2,0.3-0.5,0.3c-0.2,0-0.5-0.1-0.5-0.7v-0.9h0.3v0.8
			c0,0.3,0.1,0.5,0.3,0.5c0.2,0,0.3-0.1,0.4-0.3c0,0,0-0.1,0-0.1v-0.9h0.3V467.7z"/>
		<path class="st2" d="M284.8,467.1c0-0.2,0-0.3,0-0.4h0.2l0,0.2h0c0.1-0.1,0.2-0.3,0.5-0.3c0.2,0,0.4,0.1,0.4,0.3h0
			c0-0.1,0.1-0.1,0.2-0.2c0.1-0.1,0.2-0.1,0.3-0.1c0.2,0,0.5,0.1,0.5,0.6v0.9h-0.3v-0.8c0-0.3-0.1-0.5-0.3-0.5
			c-0.2,0-0.3,0.1-0.3,0.2c0,0,0,0.1,0,0.1v0.9h-0.3v-0.9c0-0.2-0.1-0.4-0.3-0.4c-0.2,0-0.3,0.1-0.3,0.3c0,0,0,0.1,0,0.1v0.9h-0.3
			V467.1z"/>
		<path class="st2" d="M287.4,466h0.3v0.9h0c0.1-0.2,0.3-0.3,0.5-0.3c0.4,0,0.6,0.3,0.6,0.8c0,0.5-0.3,0.8-0.7,0.8
			c-0.2,0-0.4-0.1-0.5-0.3h0l0,0.2h-0.2c0-0.1,0-0.3,0-0.4V466z M287.7,467.5C287.7,467.6,287.7,467.6,287.7,467.5
			c0.1,0.3,0.2,0.4,0.4,0.4c0.3,0,0.5-0.2,0.5-0.6c0-0.3-0.2-0.6-0.4-0.6c-0.2,0-0.4,0.1-0.4,0.3c0,0,0,0.1,0,0.1V467.5z"/>
		<path class="st2" d="M289.3,467.4c0,0.4,0.2,0.5,0.5,0.5c0.2,0,0.3,0,0.4-0.1l0,0.2c-0.1,0-0.3,0.1-0.5,0.1
			c-0.5,0-0.7-0.3-0.7-0.8c0-0.5,0.3-0.8,0.7-0.8c0.5,0,0.6,0.4,0.6,0.7c0,0.1,0,0.1,0,0.1H289.3z M290.1,467.3
			c0-0.2-0.1-0.4-0.4-0.4c-0.3,0-0.4,0.2-0.4,0.4H290.1z"/>
		<path class="st2" d="M290.7,467.1c0-0.2,0-0.3,0-0.5h0.2l0,0.3h0c0.1-0.2,0.2-0.3,0.4-0.3c0,0,0,0,0.1,0v0.3c0,0-0.1,0-0.1,0
			c-0.2,0-0.3,0.1-0.4,0.3c0,0,0,0.1,0,0.1v0.8h-0.3V467.1z"/>
		<path class="st2" d="M291.7,467.9c0.1,0,0.2,0.1,0.4,0.1c0.2,0,0.3-0.1,0.3-0.2c0-0.1-0.1-0.2-0.3-0.3c-0.3-0.1-0.4-0.2-0.4-0.4
			c0-0.2,0.2-0.4,0.5-0.4c0.2,0,0.3,0,0.4,0.1l-0.1,0.2c-0.1,0-0.2-0.1-0.3-0.1c-0.2,0-0.2,0.1-0.2,0.2c0,0.1,0.1,0.2,0.3,0.3
			c0.3,0.1,0.4,0.2,0.4,0.4c0,0.3-0.2,0.5-0.6,0.5c-0.2,0-0.3,0-0.4-0.1L291.7,467.9z"/>
		<path class="st2" d="M293.9,466.3v0.4h0.4v0.2h-0.4v0.8c0,0.2,0.1,0.3,0.2,0.3c0.1,0,0.1,0,0.2,0l0,0.2c-0.1,0-0.1,0-0.2,0
			c-0.1,0-0.2,0-0.3-0.1c-0.1-0.1-0.1-0.2-0.1-0.4v-0.8h-0.2v-0.2h0.2v-0.3L293.9,466.3z"/>
		<path class="st2" d="M295.9,467.4c0,0.5-0.4,0.8-0.7,0.8c-0.4,0-0.7-0.3-0.7-0.8c0-0.5,0.3-0.8,0.7-0.8
			C295.6,466.6,295.9,466.9,295.9,467.4 M294.8,467.4c0,0.3,0.2,0.6,0.5,0.6c0.3,0,0.5-0.2,0.5-0.6c0-0.3-0.1-0.6-0.4-0.6
			C294.9,466.8,294.8,467.1,294.8,467.4"/>
		<path class="st2" d="M296.9,467.1c0-0.2,0-0.3,0-0.5h0.2l0,0.3h0c0.1-0.2,0.3-0.3,0.5-0.3c0.4,0,0.6,0.3,0.6,0.8
			c0,0.5-0.3,0.8-0.7,0.8c-0.2,0-0.4-0.1-0.5-0.2h0v0.8h-0.3V467.1z M297.2,467.5c0,0,0,0.1,0,0.1c0,0.2,0.2,0.3,0.4,0.3
			c0.3,0,0.5-0.2,0.5-0.6c0-0.3-0.2-0.5-0.4-0.5c-0.2,0-0.4,0.1-0.4,0.3c0,0,0,0.1,0,0.1V467.5z"/>
		<path class="st2" d="M298.7,467.1c0-0.2,0-0.3,0-0.5h0.2l0,0.3h0c0.1-0.2,0.2-0.3,0.4-0.3c0,0,0,0,0.1,0v0.3c0,0-0.1,0-0.1,0
			c-0.2,0-0.3,0.1-0.4,0.3c0,0,0,0.1,0,0.1v0.8h-0.3V467.1z"/>
		<path class="st2" d="M300,466.2c0,0.1-0.1,0.2-0.2,0.2c-0.1,0-0.2-0.1-0.2-0.2c0-0.1,0.1-0.2,0.2-0.2
			C299.9,466.1,300,466.1,300,466.2 M299.7,466.7h0.3v1.5h-0.3V466.7z"/>
		<path class="st2" d="M300.4,467.1c0-0.2,0-0.3,0-0.4h0.2l0,0.2h0c0.1-0.1,0.2-0.3,0.5-0.3c0.2,0,0.5,0.1,0.5,0.6v0.9h-0.3v-0.9
			c0-0.2-0.1-0.4-0.3-0.4c-0.2,0-0.3,0.1-0.4,0.3c0,0,0,0.1,0,0.1v0.9h-0.3V467.1z"/>
		<path class="st2" d="M302.4,466.3v0.4h0.4v0.2h-0.4v0.8c0,0.2,0.1,0.3,0.2,0.3c0.1,0,0.1,0,0.2,0l0,0.2c-0.1,0-0.1,0-0.2,0
			c-0.1,0-0.2,0-0.3-0.1c-0.1-0.1-0.1-0.2-0.1-0.4v-0.8H302v-0.2h0.2v-0.3L302.4,466.3z"/>
		<path class="st2" d="M304.1,466.2c0,0.1-0.1,0.2-0.2,0.2c-0.1,0-0.2-0.1-0.2-0.2c0-0.1,0.1-0.2,0.2-0.2
			C304,466.1,304.1,466.1,304.1,466.2 M303.8,466.7h0.3v1.5h-0.3V466.7z"/>
		<path class="st2" d="M304.5,467.1c0-0.2,0-0.3,0-0.4h0.2l0,0.2h0c0.1-0.1,0.2-0.3,0.5-0.3c0.2,0,0.5,0.1,0.5,0.6v0.9h-0.3v-0.9
			c0-0.2-0.1-0.4-0.3-0.4c-0.2,0-0.3,0.1-0.4,0.3c0,0,0,0.1,0,0.1v0.9h-0.3V467.1z"/>
		<path class="st2" d="M307.6,468.1v-0.5h-0.9v-0.2l0.9-1.3h0.3v1.2h0.3v0.2h-0.3v0.5H307.6z M307.6,467.4v-0.7c0-0.1,0-0.2,0-0.3h0
			c-0.1,0.1-0.1,0.2-0.2,0.3l-0.5,0.7v0H307.6z"/>
		<path class="st2" d="M310.2,468.1c-0.1,0-0.2,0.1-0.4,0.1c-0.4,0-0.7-0.3-0.7-0.8c0-0.5,0.3-0.8,0.8-0.8c0.2,0,0.3,0,0.4,0.1
			l-0.1,0.2c-0.1,0-0.2-0.1-0.3-0.1c-0.3,0-0.5,0.3-0.5,0.6c0,0.3,0.2,0.6,0.5,0.6c0.2,0,0.3,0,0.3-0.1L310.2,468.1z"/>
		<path class="st2" d="M311.8,467.4c0,0.5-0.4,0.8-0.7,0.8c-0.4,0-0.7-0.3-0.7-0.8c0-0.5,0.3-0.8,0.7-0.8
			C311.5,466.6,311.8,466.9,311.8,467.4 M310.6,467.4c0,0.3,0.2,0.6,0.5,0.6c0.3,0,0.5-0.2,0.5-0.6c0-0.3-0.1-0.6-0.4-0.6
			C310.8,466.8,310.6,467.1,310.6,467.4"/>
		<rect x="312.2" y="466" class="st2" width="0.3" height="2.2"/>
		<path class="st2" d="M314.2,467.4c0,0.5-0.4,0.8-0.7,0.8c-0.4,0-0.7-0.3-0.7-0.8c0-0.5,0.3-0.8,0.7-0.8
			C313.9,466.6,314.2,466.9,314.2,467.4 M313.1,467.4c0,0.3,0.2,0.6,0.5,0.6c0.3,0,0.5-0.2,0.5-0.6c0-0.3-0.1-0.6-0.4-0.6
			C313.2,466.8,313.1,467.1,313.1,467.4"/>
		<path class="st2" d="M314.6,467.1c0-0.2,0-0.3,0-0.5h0.2l0,0.3h0c0.1-0.2,0.2-0.3,0.4-0.3c0,0,0,0,0.1,0v0.3c0,0-0.1,0-0.1,0
			c-0.2,0-0.3,0.1-0.4,0.3c0,0,0,0.1,0,0.1v0.8h-0.3V467.1z"/>
		<path class="st2" d="M315.5,467.9c0.1,0,0.2,0.1,0.4,0.1c0.2,0,0.3-0.1,0.3-0.2c0-0.1-0.1-0.2-0.3-0.3c-0.3-0.1-0.4-0.2-0.4-0.4
			c0-0.2,0.2-0.4,0.5-0.4c0.2,0,0.3,0,0.4,0.1l-0.1,0.2c-0.1,0-0.2-0.1-0.3-0.1c-0.2,0-0.2,0.1-0.2,0.2c0,0.1,0.1,0.2,0.3,0.3
			c0.3,0.1,0.4,0.2,0.4,0.4c0,0.3-0.2,0.5-0.6,0.5c-0.2,0-0.3,0-0.4-0.1L315.5,467.9z"/>
		<path class="st2" d="M316.7,468c0-0.1,0.1-0.2,0.2-0.2c0.1,0,0.2,0.1,0.2,0.2c0,0.1-0.1,0.2-0.2,0.2
			C316.8,468.2,316.7,468.1,316.7,468"/>
		<path class="st5" d="M363.3,160.4c-0.9-0.9-2.3-1-3.3-0.1c-0.7,0.6-3.4,1.2-5.8,1.7c-1.8,0.3-3.5,0.4-5.1,1.3
			c-2.9-2.9-6.2-5.7-9.8-8.4c-6.6-4.9-13.7-10-21.3-13.5c0.4-0.3,0.9-0.5,1.3-0.7c2.5-1.3,5.4-2,10-2.7c4.4-0.7,9.5-0.3,9.5-0.3
			c1.3,0.2,2.4-0.8,2.6-2.2c0.1-1.3-0.8-2.6-2-2.7c0,0-6.2-0.7-11.2,0c-5.1,0.8-8.4,1.6-11.4,3.2c-1.9,1-3.6,2.3-5.4,3.6
			c-0.9-2.3-2.7-4.1-4.8-5.3c-2-1.1-6.6-2.9-9.8-3.9c-9.6-3-15.3-8.1-25.3-6.9c-3.7,0.4-8.4,1.4-13,4.7
			c-6.5,4.7-14.3,11.5-22.6,12.1c-5.4,0.4-11.6-3.6-15.7-6.2c-1.2-0.8-2.3-1.5-3.1-1.9l0,0c-5.1-2.8-6.9,3.4-7.5,6.9
			c-3.6-0.2-11-0.6-14.6-1c-2-0.2-5.8-1.1-10.2-2.2c-13.7-3.2-27.7-7.3-41.3-0.8c-1.2,0.5-1.6,1.9-1.1,3.1c0.5,1.2,1.9,1.6,3.1,1.1
			c12.5-5.9,25.8-1.8,38.3,1.2c4.6,1.1,8.4,2,10.8,2.2c3.3,0.4,9.6,0.8,13.6,1c-0.2,1.6-0.5,4.2-0.5,7.3c0,3.3,0.1,5.9,0.3,7.5
			c-2.1-0.3-4.2-0.3-6.2-0.3c-6.5,0-13,2.3-19.7,5.1c-8.8,3.6-18.9,11.7-21.6,14.3l-23.9-0.5c-1.3-0.1-2.4,0.9-2.4,2.2
			c-0.1,1.3,0.9,2.4,2.2,2.4l25.3,1.2c0.7,0,1.3-0.2,1.7-0.6c0.3-0.3,11.3-10.6,20.7-14.4c6.2-2.6,12.1-4.4,17.9-4.4
			c4.6,0,8.6,0.6,12.8,2.9c-8.3,4.9-16.5,11.4-16.6,11.4c-1,0.8-1.1,2.3-0.3,3.3c0.8,1,2.8,1.7,3.8,0.9c0,0,2.1-1.7,5-4
			c1.1,0,3.4,0.3,6.9,1.7c5.1,2.1,23.1,10.4,33.5,16.4c10.4,6,11,6.4,11,6.4c0.2,2.8-0.9,4.5-3.1,5.9c-4.9,1.6-6.9,2.5-12.7,0
			c-1.4-0.6-4.3-0.6-5.4,0.7c-0.8,1-1.1,2.3-1.2,3.8c-0.2,3.8-2.3,8.6-7.8,8.3c-1.5-0.2-2.5,0.1-3.6,0.8c-1.7,0.9-1.7,2.6-1.8,4.3
			c-0.1,3-1.3,5.7-4.6,7.1c-1.3,0.2-1.9,1.8-1.8,3.1c0.2,1.3,1.4,2.1,2.6,2c4.9-0.5,7.3-4.2,8.1-7.3c0.4-1.4,0.5-2.5,0.5-3.4
			c0-1.5,0-1.5,1.2-1.3c2.3,0.4,4.4-0.4,6.2-1.9c2.9-2.4,5.2-6.5,5.5-10.1c0.1-0.9,0.7-0.7,2.4-0.2c2.6,0.9,6.4,1.4,10.2,0.5
			c4.2-0.9,8.5-3.4,9.6-6.8c1.1,3,3.6,4.9,10.6,3.4c2.9-0.6,5.2-2.1,6.6-4.2c1.2,0.9,2.8,1.5,5.1,1.4c3.3-0.2,6.6-3.5,8.6-6
			c1.1,1.1,2.9,2.2,5.8,2.1c3.7-0.2,6.8-2.7,8.7-4.9c0.3-0.3,0.5-0.6,0.7-0.9c3.1,2.3,6.4,1.4,9.3-0.3c3.6-2.1,7.7-6,8.1-7.4
			c0.3-3.9,0.4-9.9,0.3-15.8c2.3,0.2,6.9,0.5,9.9,0.1l0,0h0c3.6-0.5,7.7-2,10.4-4.2h0l0,0c0,0,0.1-0.1,0.1-0.1
			c1.7-1.4,3.5-3.1,5.7-3.7l0,0v0c3.4-0.9,8.1-1.1,10.7-3.5C364.1,162.8,364.1,161.3,363.3,160.4 M212.9,159.3
			c-1.5-4.2-0.7-23.1,1.9-23.2c1,0.5,1.9,1.1,2.8,1.7c4.6,3,11.6,7.5,18.5,7c9.4-0.7,17.7-7.6,25-12.9c4.9-3.6,11.3-5.3,17.3-4l0,0
			c1.7,0.4,7.5,3,11,4.5l0,0c1.2,0.5,2.1,0.9,2.6,1.2v0l0,0l0,0v0c0.5,0.2,1.7,0.6,3.2,1c3,0.9,7.5,2.3,9.1,3.2
			c5.9,3.3,1.1,9.7-4.3,9.9c-8,0.2-19.1-3.6-19.1-3.6c-1.2-0.4-2.5,0.2-2.9,1.4c0,0.1-0.2,1.1-0.2,1.1c-7.4,0.6-13.9,6.2-16.3,8.5
			c-0.4-0.1-0.9-0.2-1.3-0.3c-1.3-0.3-2.6-0.4-3.9-0.5c-1.3-0.1-2.6-0.1-3.9,0l0,0c-7.5,0.6-14.1,6.4-16.4,8.6
			c-2.2-0.8-7.2-3.1-15.5-0.1C220.5,162.8,215.5,160,212.9,159.3 M276.7,201.5c-0.3,2.9-1.7,4.5-4.6,5.1c-4.3,0.9-5.2,0-5.5-1.4h0
			c-0.1-0.5-0.2-1.2-0.3-1.9c-0.3-2.7-0.2-5.3-0.1-8c0.3-5.4,0.1-9.9,0.5-13.8c0.5-4.5,5.4-8.5,9.9-7
			C276.8,183.5,276.6,192.4,276.7,201.5 M291,198.5c-1,1.5-4.2,5.2-6.5,5.3c-2.3,0.1-3-1.6-3-1.7c0,0,0.8-25.6,0.9-27.6
			c0-0.7,2.8-2.8,3.2-3.1c2.3-1.5,5.4-2.4,5.9-0.8l0,0C292,172,291.2,194.5,291,198.5 M306.6,189.2c-0.1,4.3-1.3,10.2-7.5,10.6
			c-1.8,0.1-3-1-3.5-1.5c0.1-2.6,0.8-22.4,0.5-27.9c0.7-0.7,2.4-2.2,4.3-3.3c2.5-1.4,5.7-1.7,6.2-0.4c0.2,0.4,0.2,4.5,0.2,10
			C306.8,181.2,306.7,185.8,306.6,189.2 M321.6,189.5c-0.3,1-2.2,2.9-4.2,4.3c-0.9,0.6-5,3.1-6.1,0.9c-0.2,0.1,0.4-26.4,0.1-29.3
			c1-0.6,3-1.9,6-3.2c2-0.9,3.5-0.4,4.3,0.1C321.8,167.4,321.9,188.5,321.6,189.5"/>
	</g>
	<g>
		<path class="st1" d="M291.2,165.8L291.2,165.8c-1.8-0.4-3.9-0.3-5.4,0.2l0,0c-1,0.3-2.1,1.1-3.2,1.9c-0.7-0.8-1.9-2-3.7-3.5
			c-0.4-0.4-0.9-0.8-1.4-1.2l0,0c-0.5-0.4-1-0.8-1.7-1.3h0l0,0l0,0c-2.1-1.7-5.4-3.6-9.2-5.1c5.7-4.7,11.2-6.4,18.1-5.1
			c6.6,1.3,11.8,4.3,16.6,8.5c0.6,0.5,1.1,1,1.5,1.4c-3.5,0.5-6.1,2.8-8.9,5.3C293.1,166.3,292.2,166,291.2,165.8"/>
		<path class="st1" d="M262.7,179.1c0,0-3.7-3.7-6.6-5.8c-4.6-3.3-9.2-6.2-15.2-8.6c5.7-4.9,11.4-6.8,18.4-5.3
			c5.7,1.1,10.9,3.9,13.7,6.1h0l0,0l0,0c1.7,1.3,3.3,2.7,4.9,4.2C270.7,168.1,264.4,172.1,262.7,179.1"/>
		<path class="st1" d="M261.3,191.6l-0.9,0.2L253,193c0,0-14.1-9.4-24-13.4c-8.4-3.4-16.9-6.3-16.9-6.3c11.8-9.7,20.8-6.9,25.2-5.2
			c3.1,1.2,20.1,8.7,24.3,17.4C261.7,185.6,261.6,189.8,261.3,191.6"/>
		<path class="st1" d="M114.5,297.4H98.9l-17.5-26.1h-1.7v26.1H67v-65h18.8c14.6,0,23,7,23,19.2c0,9.9-5.3,16.5-14.8,18.4
			L114.5,297.4z M83.4,262.3c8.1,0,12.4-3.5,12.4-10c0-6.3-4.3-9.6-12.2-9.6h-3.9v19.7H83.4z"/>
		<polygon class="st1" points="135.7,243.4 135.7,257.8 158.1,257.8 158.1,268.8 135.7,268.8 135.7,286.4 159,286.4 159,297.4 
			123,297.4 123,232.4 159,232.4 159,243.4 		"/>
		<path class="st1" d="M203,247.2c-3.3-3.7-6.4-5.3-10.2-5.3c-5.5,0-9.4,3.1-9.4,7.2c0,3.5,2.2,5.4,9.8,8.2
			c14.4,5.3,18.7,9.9,18.7,20.3c0,12.6-9.3,21.3-22.4,21.3c-9.6,0-16.7-3.8-22.5-12.4l8.2-7.9c2.9,5.7,7.8,8.7,13.8,8.7
			c5.7,0,9.8-3.9,9.8-9.2c0-2.7-1.3-5.1-3.8-6.7c-1.3-0.8-3.8-1.9-8.8-3.7c-11.9-4.3-16-8.9-16-17.8c0-10.6,8.8-18.6,20.3-18.6
			c7.1,0,13.6,2.4,19.1,7.2L203,247.2z"/>
		<path class="st1" d="M289.2,264.8c0,19.1-15.3,34-34.7,34c-19.7,0-34.8-14.7-34.8-33.8c0-19.1,15.3-34.1,34.8-34.1
			C274,230.9,289.2,245.8,289.2,264.8 M232.8,264.8c0,12.4,9.7,22.4,21.7,22.4c11.9,0,21.6-10,21.6-22.4c0-12.3-9.6-22.3-21.6-22.3
			C242.5,242.5,232.8,252.6,232.8,264.8"/>
		<polygon class="st1" points="313.5,286.4 333.5,286.4 333.5,297.4 300.9,297.4 300.9,232.4 313.5,232.4 		"/>
		<polygon class="st1" points="71.3,313.5 75,313.5 82.5,331.5 90.3,313.5 94,313.5 98.6,341.5 93.2,341.5 90.7,324.5 83.2,341.9 
			81.7,341.9 74.4,324.5 71.6,341.5 66.2,341.5 		"/>
		<path class="st1" d="M113.4,335.7l-2.5,5.8h-5.7l11.9-28.1h4l11.6,28.1H127l-2.4-5.8H113.4z M119.1,321.5l-4,9.9h7.8L119.1,321.5z
			"/>
		<path class="st1" d="M160.9,341.5h-6.6l-7.4-11.1h-0.7v11.1h-5.4V314h8c6.2,0,9.7,3,9.7,8.1c0,4.2-2.2,7-6.3,7.8L160.9,341.5z
			 M147.8,326.7c3.4,0,5.2-1.5,5.2-4.3c0-2.7-1.8-4.1-5.2-4.1h-1.6v8.3H147.8z"/>
		<rect x="169.4" y="314" class="st1" width="5.4" height="27.5"/>
		<polygon class="st1" points="185.9,313.4 189.6,313.4 206.3,332.5 206.3,314 211.7,314 211.7,342 208,342 191.2,322.9 
			191.2,341.5 185.9,341.5 		"/>
		<polygon class="st1" points="228.2,318.6 228.2,324.8 237.7,324.8 237.7,329.4 228.2,329.4 228.2,336.8 238.1,336.8 238.1,341.5 
			222.9,341.5 222.9,314 238.1,314 238.1,318.6 		"/>
		<path class="st1" d="M289.7,326.8v0.9c0,8.9-5.2,14.5-13.4,14.5c-8.3,0-14.4-6-14.4-14.2c0-8.4,6.1-14.5,14.6-14.5
			c5.1,0,9.2,2.2,11.8,6.5l-4.7,2.5c-1.6-2.7-4-4.1-7.2-4.1c-5.1,0-9,4.1-9,9.6c0,5.4,3.8,9.4,9,9.4c3.9,0,6.8-2.3,7.2-5.8h-6.5
			v-4.7H289.7z"/>
		<path class="st1" d="M319.6,341.5H313l-7.4-11.1h-0.7v11.1h-5.4V314h8c6.2,0,9.7,3,9.7,8.1c0,4.2-2.2,7-6.3,7.8L319.6,341.5z
			 M306.5,326.7c3.4,0,5.2-1.5,5.2-4.3c0-2.7-1.8-4.1-5.2-4.1h-1.6v8.3H306.5z"/>
		<path class="st1" d="M355.6,327.7c0,8.1-6.5,14.4-14.7,14.4c-8.3,0-14.7-6.2-14.7-14.3c0-8.1,6.5-14.4,14.7-14.4
			C349.2,313.4,355.6,319.7,355.6,327.7 M331.8,327.7c0,5.2,4.1,9.5,9.2,9.5c5,0,9.2-4.3,9.2-9.5c0-5.2-4.1-9.4-9.2-9.4
			C335.9,318.3,331.8,322.5,331.8,327.7"/>
		<path class="st1" d="M370.8,329.7c0,2.8,0.2,3.7,0.9,4.9c0.9,1.6,2.8,2.6,4.8,2.6c2.1,0,3.9-1,4.8-2.6c0.7-1.2,0.9-2.1,0.9-4.9
			V314h5.4v16.8c0,3.2-0.6,5.5-2,7.3c-1.9,2.5-5.3,4-9,4c-3.8,0-7.1-1.5-9-4c-1.4-1.9-2-4.1-2-7.3V314h5.4V329.7z"/>
		<path class="st1" d="M404,341.5h-5.4V314h8c3.6,0,5.5,0.6,7.3,2.1c1.8,1.6,2.8,4,2.8,6.5c0,5.6-3.3,8.7-9.3,8.7H404V341.5z
			 M406.2,326.7c3.4,0,5-1.3,5-4c0-2.7-1.7-4-5.4-4H404v8H406.2z"/>
		<rect x="425.2" y="339.6" class="st1" width="10.2" height="2"/>
		<polygon class="st1" points="425,337.3 425,335.9 432.1,329.7 425.2,329.7 425.2,327.7 435.6,327.7 435.6,329.1 428.5,335.3 
			435.4,335.3 435.4,337.3 		"/>
		<path class="st1" d="M427.9,317.8c-0.8,0.8-1.2,1.6-1.2,2.5c0,1.9,1.6,3.3,3.5,3.3c2.1,0,3.5-1.4,3.5-3.4c0-0.9-0.3-1.6-1.1-2.4
			h2.4c0.4,0.9,0.6,1.6,0.6,2.5c0,3-2.3,5.4-5.3,5.4c-3,0-5.4-2.4-5.4-5.5c0-0.9,0.2-1.6,0.6-2.5H427.9z"/>
		<path class="st1" d="M434.4,314c0.7,0,1.2,0.5,1.2,1.2c0,0.7-0.5,1.2-1.2,1.2c-0.7,0-1.2-0.5-1.2-1.2
			C433.2,314.6,433.8,314,434.4,314"/>
		<polygon class="st1" points="360.8,271.1 378.3,232.4 392,232.4 360.7,302.7 329.6,232.4 343.4,232.4 		"/>
		<polygon class="st1" points="71.3,313.5 75,313.5 82.5,331.5 90.3,313.5 94,313.5 98.6,341.5 93.2,341.5 90.7,324.5 83.2,341.9 
			81.7,341.9 74.4,324.5 71.6,341.5 66.2,341.5 		"/>
		<path class="st1" d="M113.4,335.7l-2.5,5.8h-5.7l11.9-28.1h4l11.6,28.1H127l-2.4-5.8H113.4z M119.1,321.5l-4,9.9h7.8L119.1,321.5z
			"/>
		<path class="st1" d="M160.9,341.5h-6.6l-7.4-11.1h-0.7v11.1h-5.4V314h8c6.2,0,9.7,3,9.7,8.1c0,4.2-2.2,7-6.3,7.8L160.9,341.5z
			 M147.8,326.7c3.4,0,5.2-1.5,5.2-4.3c0-2.7-1.8-4.1-5.2-4.1h-1.6v8.3H147.8z"/>
		<rect x="169.4" y="314" class="st1" width="5.4" height="27.5"/>
		<polygon class="st1" points="185.9,313.4 189.6,313.4 206.3,332.5 206.3,314 211.7,314 211.7,342 208,342 191.2,322.9 
			191.2,341.5 185.9,341.5 		"/>
		<polygon class="st1" points="228.2,318.6 228.2,324.8 237.7,324.8 237.7,329.4 228.2,329.4 228.2,336.8 238.1,336.8 238.1,341.5 
			222.9,341.5 222.9,314 238.1,314 238.1,318.6 		"/>
		<path class="st1" d="M289.7,326.8v0.9c0,8.9-5.2,14.5-13.4,14.5c-8.3,0-14.4-6-14.4-14.2c0-8.4,6.1-14.5,14.6-14.5
			c5.1,0,9.2,2.2,11.8,6.5l-4.7,2.5c-1.6-2.7-4-4.1-7.2-4.1c-5.1,0-9,4.1-9,9.6c0,5.4,3.8,9.4,9,9.4c3.9,0,6.8-2.3,7.2-5.8h-6.5
			v-4.7H289.7z"/>
		<path class="st1" d="M319.6,341.5H313l-7.4-11.1h-0.7v11.1h-5.4V314h8c6.2,0,9.7,3,9.7,8.1c0,4.2-2.2,7-6.3,7.8L319.6,341.5z
			 M306.5,326.7c3.4,0,5.2-1.5,5.2-4.3c0-2.7-1.8-4.1-5.2-4.1h-1.6v8.3H306.5z"/>
		<path class="st1" d="M355.6,327.7c0,8.1-6.5,14.4-14.7,14.4c-8.3,0-14.7-6.2-14.7-14.3c0-8.1,6.5-14.4,14.7-14.4
			C349.2,313.4,355.6,319.7,355.6,327.7 M331.8,327.7c0,5.2,4.1,9.5,9.2,9.5c5,0,9.2-4.3,9.2-9.5c0-5.2-4.1-9.4-9.2-9.4
			C335.9,318.3,331.8,322.5,331.8,327.7"/>
		<path class="st1" d="M370.8,329.7c0,2.8,0.2,3.7,0.9,4.9c0.9,1.6,2.8,2.6,4.8,2.6c2.1,0,3.9-1,4.8-2.6c0.7-1.2,0.9-2.1,0.9-4.9
			V314h5.4v16.8c0,3.2-0.6,5.5-2,7.3c-1.9,2.5-5.3,4-9,4c-3.8,0-7.1-1.5-9-4c-1.4-1.9-2-4.1-2-7.3V314h5.4V329.7z"/>
		<path class="st1" d="M404,341.5h-5.4V314h8c3.6,0,5.5,0.6,7.3,2.1c1.8,1.6,2.8,4,2.8,6.5c0,5.6-3.3,8.7-9.3,8.7H404V341.5z
			 M406.2,326.7c3.4,0,5-1.3,5-4c0-2.7-1.7-4-5.4-4H404v8H406.2z"/>
		<rect x="425.2" y="339.6" class="st1" width="10.2" height="2"/>
		<polygon class="st1" points="425,337.3 425,335.9 432.1,329.7 425.2,329.7 425.2,327.7 435.6,327.7 435.6,329.1 428.5,335.3 
			435.4,335.3 435.4,337.3 		"/>
		<path class="st1" d="M427.9,317.8c-0.8,0.8-1.2,1.6-1.2,2.5c0,1.9,1.6,3.3,3.5,3.3c2.1,0,3.5-1.4,3.5-3.4c0-0.9-0.3-1.6-1.1-2.4
			h2.4c0.4,0.9,0.6,1.6,0.6,2.5c0,3-2.3,5.4-5.3,5.4c-3,0-5.4-2.4-5.4-5.5c0-0.9,0.2-1.6,0.6-2.5H427.9z"/>
		<path class="st1" d="M434.4,314c0.7,0,1.2,0.5,1.2,1.2c0,0.7-0.5,1.2-1.2,1.2c-0.7,0-1.2-0.5-1.2-1.2
			C433.2,314.6,433.8,314,434.4,314"/>
		<polygon class="st1" points="412.4,243.4 412.4,257.8 434.8,257.8 434.8,268.8 412.4,268.8 412.4,286.4 435.7,286.4 435.7,297.4 
			399.7,297.4 399.7,232.4 435.7,232.4 435.7,243.4 		"/>
	</g>
</g>
</svg>
