<svg id="Layer_1" data-name="Layer 1" xmlns="http://www.w3.org/2000/svg" viewBox="0 0 500 500"><defs><style>.cls-1{fill:#fff;}</style></defs><title>footer-logosb-01</title><path d="M473.54,291.15a8.29,8.29,0,0,1-1.36.44,8.91,8.91,0,0,1,3.36,1.38v-1.12A1.71,1.71,0,0,1,473.54,291.15Z"/><path d="M473.16,290.42c-10.47-26.12-20.11-52.57-30.12-78.88-1.44-3.81-2.53-7.79-4.78-10.95a9.49,9.49,0,0,0-8.58-.22c-2.91,3-3.58,7.21-5,11q-13.68,36.08-27.2,72.22c-.87,2.31-2.75,4.6-1.3,7.35,4,.67,8,1.09,11.92-.47,3.28-3.64,3.85-8.46,5.57-12.73,1.84-4.6,4.72-6.75,9.74-6.63q10.65.27,21.3,0c4.86-.13,7.49,2.05,9.24,6.42s2.26,9.76,6.42,13.13a6.62,6.62,0,0,1,1.44-.22C465.59,290.17,469.4,289.51,473.16,290.42ZM422.69,259.1c3.64-11.06,7.13-21.71,11.16-34l11.32,34Z"/><path d="M472.18,291.59c-3.81-.75-7.93.55-11.66-.82l-.16-.13a2,2,0,0,0-1.59,2.19h0C463,290.58,467.8,292.67,472.18,291.59Z"/><path d="M473.36,290.92l.18.23a8.86,8.86,0,0,0,.82-.4c-.4-.13-.8-.23-1.2-.33Z"/><path d="M167.93,237.72l.08.08c-.08-.14-.16-.27-.23-.41C167.83,237.5,167.87,237.61,167.93,237.72Z"/><path d="M393.56,292.85a58.74,58.74,0,0,1,15.56-.06A26.45,26.45,0,0,0,393.56,292.85Z"/><path d="M129.45,292.82a10.82,10.82,0,0,1,6.59,0A5.45,5.45,0,0,0,129.45,292.82Z"/><path d="M167.61,237v0l-.06,0h0l.07.06h0a4,4,0,0,0,.2.35Z"/><path d="M177.08,244.37l-.58-.32a2.68,2.68,0,0,0,.05.82h0Z"/><path d="M172.21,241.31l-.15-.1a1,1,0,0,0-.14.37h0Z"/><path d="M231.48,217.92a.27.27,0,0,1,.07.08c2.85-2.4,6.26-3.95,9.41-5.88.11-.08.22-.14.33-.21l-.21-.18C237.85,213.75,234.23,215.24,231.48,217.92Z"/><path d="M173.17,240.44c-.27.18-.59.3-.85.5l.16.13Z"/><path d="M241.24,211.64a2.64,2.64,0,0,1,.29.15c1-.46,2.08-.55,3-1l.08,0a1.24,1.24,0,0,1-.36-.19C243.27,210.9,242.23,211.23,241.24,211.64Z"/><path d="M251.31,208.38c2.07-.69,4.34-.59,6.39-1.39-2.12-.39-4.24.46-6.36.84l-.57.2v.5Z"/><polygon points="167.54 236.97 167.54 236.97 167.54 236.97 167.54 236.97"/><path d="M250.49,208.33a.83.83,0,0,1,.13-.25c-1.61.54-3.2,1.11-4.77,1.76-.41.21-.84.39-1.27.56l.36.17a31.28,31.28,0,0,1,5.55-2A.53.53,0,0,1,250.49,208.33Z"/><path d="M192.36,252.6h0l.87-.89c-.3-.06-.59-.13-.88-.21A1.32,1.32,0,0,0,192.36,252.6Z"/><path d="M183.43,248l-.16-.1a1,1,0,0,0-.19.43h0Z"/><path class="cls-1" d="M206.34,242.41c-3.64,3.46-7.32,6.85-12,8.9a6.44,6.44,0,0,1-.75.05l-.34.35.24.06c10.43,3,20.8,5.94,30.56,10.91a25.18,25.18,0,0,1,9.45,8.05c-6.68-14.65-8.78-30-5.44-46a15.43,15.43,0,0,1,2-5.17,9.65,9.65,0,0,1,.72-.84l0,0C221.75,225.82,214.54,234.62,206.34,242.41Z"/><path d="M239,289c.36,2-.16,4.18.42,6.11,1.07-4.14-.44-8.28-1.15-12.3a29.74,29.74,0,0,0-4.75-12.06,2.29,2.29,0,0,1,.1.23A74.52,74.52,0,0,1,239,289Z"/><path d="M192.35,251.5l.12-.14c-.32,0-.64-.05-.95-.1C191.8,251.34,192.07,251.43,192.35,251.5Z"/><path d="M241.22,211.65h0a5.69,5.69,0,0,1-.56-.26l.4.35Z"/><path d="M231,218.43c.16-.18.34-.35.51-.51-.21-.19-.57-.23-1.12-.08h0Z"/><path d="M176.53,243.9l.62.4.7-.67C177.05,243.35,176.66,243.49,176.53,243.9Z"/><path d="M172.49,241.07h0l-.27.24.31.22c1.32.85,2.63,1.73,4,2.52l0-.15A45,45,0,0,1,172.49,241.07Z"/><path d="M194.54,250.37l-.4.41A.73.73,0,0,0,194.54,250.37Z"/><path d="M250.62,208.08l.15-.05V208C250.72,208,250.67,208,250.62,208.08Z"/><path d="M183.68,247.79l.76-.69c-.3.21-.66.36-.94.59Z"/><path d="M183.68,247.79l-.25.22.89.54c2.43.79,4.68,2.24,7.2,2.71-2.68-.86-5.12-2.28-7.69-3.39Z"/><path d="M244.29,210.51l.29-.11-.66-.31A1.18,1.18,0,0,0,244.29,210.51Z"/><path d="M177.23,244.36l-.08-.06-.07.07.56.32a53.12,53.12,0,0,1,5.63,3.22,1.21,1.21,0,0,1,.23-.22C181.45,246.49,179.35,245.41,177.23,244.36Z"/><path d="M193.57,251.36l.57-.58c-.5.25-1.28.23-1.67.58A8.08,8.08,0,0,0,193.57,251.36Z"/><path d="M250.77,208.53l-.28.08a.76.76,0,0,0,.27.49h0Z"/><path d="M223.71,190.13h-8.84A19.13,19.13,0,0,0,223.71,190.13Z"/><path d="M54.47,232.71c-5.67-3-8.58-7.29-6.48-13.67,1.79-5.44,8.55-7.76,15.14-6.14,3.9,1,5.93,4.38,9.81,6.43l7.14-10.55C71,200.1,60.88,196.61,49,199.35c-10,2.3-16.78,10.82-18.3,22.35-1.19,9,4.69,19.92,13.23,24.82,5.51,3.16,11.9,4.54,17,8.47s7.55,12,4.43,17c-3.58,5.77-8.89,7.44-15.51,5.62-6.07-1.66-9.37-6.41-13.35-11.43l-9.35,10.09c1.75,4.27,5.35,7.34,8.82,10.37,11,9.6,29.56,8.16,39.61-2.92,9.87-10.86,9.41-29-.92-39.12C68.93,238.94,61.39,236.36,54.47,232.71Z"/><path d="M259.72,207.79l-1.3-1.12h0a5.67,5.67,0,0,1-.72.32A5.44,5.44,0,0,1,259.72,207.79Z"/><path d="M177.85,243.63l6.59,3.47c3.43.9,6.35,3.34,10.1,3.27,11.56-7.8,19.74-19.15,30.05-28.26,1.8-1.58,3.25-3.64,5.77-4.27h0c2.84-3.11,6.58-4.77,10.32-6.46h0l3.24-1.29a11.22,11.22,0,0,1,6.85-2.14c2.37-1.53,5-1.17,7.65-1.28h0c-9.17-10.51-21-15.49-34.71-16.54a9,9,0,0,1-8.84,0h0c-22.21,0-43.87,18.68-49.5,42.73.71,1.31,1.46,2.71,2.21,4.11,2.57,0,3.71,2.34,5.59,3.47Z"/><path d="M213.06,259.42l-20.7-6.82h0a25.77,25.77,0,0,1-9.29-4.26h0l-6.53-3.47h0l-4.63-3.29h0A11.42,11.42,0,0,1,168,237.8a24.4,24.4,0,0,0,4.05,3.41,1,1,0,0,1,.26-.27c-1.64-1.23-2.95-2.86-4.72-3.93l0,0h0l0,.07c-6.69,1.8-4.25,7.58-4.13,11.36a55,55,0,0,0,46.52,53c9.52,1.51,19.73,2.37,28.52-3.95q-.23-4.74-.46-9.47C237.21,272,227,264,213.06,259.42Z"/><path d="M259.72,207.79h0l-9,1.31h0l-4.55,2.06a1.48,1.48,0,0,0-.46-.21l.46.21L242,212.55h0l-10.38,6.55c-6.22,16.8-4.07,33.49,2.58,49.32,4,9.48,6.45,18.83,6.61,28.95h0c10.52-3.37,18.22-10.32,25-18.78C281.85,258.45,278.92,223.17,259.72,207.79Z"/><path d="M342.23,198.24v16.48h19.18v77.93H380V214.34h18.63v-16.1Z"/><path d="M238.49,297.45l2.36-.08h0a4.77,4.77,0,0,1-1.47-2.28A10.64,10.64,0,0,1,238.49,297.45Z"/><path d="M278,214.58h19.23v77.9h18V215.06c6.74-1.4,13.18.52,19.42-1.31V198.21H278Z"/><path d="M244.65,210.7c.35.12.75.14,1.1.25l-.81-.38Z"/><path d="M112.06,204.49C91,218.21,84.2,250.58,98,272.24c7.35,11.58,17.15,19.56,31.5,20.58H136a31,31,0,0,0,17.52-5.63V269c-14.85,10.78-26.29,11-36.45,1.12-11.51-11.23-13.16-30.59-3.6-44.1,4.61-6.51,10.67-10.75,19-11.51s14.91,3.19,21.12,8.72V204.92A37.67,37.67,0,0,0,112.06,204.49Z"/><path d="M241.53,211.79l-.24.12.75.64h0A1,1,0,0,0,241.53,211.79Z"/><path d="M231.55,218l-.54.47.65.63A1.35,1.35,0,0,0,231.55,218Z"/><path d="M230.71,218.74c.1-.1.2-.18.3-.27l0,0Z"/></svg>