<svg id="Layer_1" data-name="Layer 1" xmlns="http://www.w3.org/2000/svg" viewBox="0 0 500 500"><title>footer-logosb-01</title><path d="M384,293.48,308,175.64l-19.82-30.72c-.16-.26-.31-.52-.53-.87l.9,0H311c1.09,0,1,.16,1-.93v-27c0-.28,0-.55,0-.83l0,0H235.65c-.26,0-.52,0-.78,0,.16.26.31.54.48.8l79.56,123.27q17.47,27.06,34.93,54.12a2.53,2.53,0,0,1,.43.82H340.12c-.95,0-.72.12-1.22-.68q-9.52-15.15-19-30.31l-45.57-72.61L228.45,117.6c-.48-.77-.94-1.55-1.42-2.32-.3.12-.36.43-.49.67l-9.95,17.87-54.35,97.72L108,329q-7.44,13.35-14.86,26.7c-.13.23-.23.46-.34.69a.33.33,0,0,0,.32.17H336.69c.32,0,.68.16.95-.16-.13-.23-.24-.46-.38-.68q-10-16.29-20.09-32.57l-.51-.85c.2-.19.38-.12.55-.12,2.67,0,5.35,0,8,0a1.11,1.11,0,0,1,1.09.63q10,16.55,20,33.07c.14.24.31.47.47.71h77.5c.28,0,.58.09.82-.15l-2.75-4.6L405,323a2.67,2.67,0,0,1-.41-.81l.88,0h21.17l.85,0,.05-2.47c-.05-1.71-.06-3.42,0-5.13l0-5c0-1.53,0-3.05,0-4.58,0-.2,0-.42.15-.57V294.27H385.44C384.3,294.26,384.6,294.45,384,293.48ZM308.18,295c-2.75,0-5.5,0-8.26,0a1.14,1.14,0,0,1-1.1-.62q-5-7.68-10.08-15.35l-56-85.25-3.93-6a1.38,1.38,0,0,0-.46-.54L154.17,321.24c.18.2.37.13.54.14H286.22c.35,0,.79-.17,1,.11s.08.64.08,1c0,2.26,0,4.52,0,6.78,0,.65,0,.66-.63.65H138.83a1.24,1.24,0,0,1,.3-.79q4.86-8.78,9.74-17.54,18.78-33.78,37.54-67.56l41.47-74.63c.12-.22.26-.43.45-.74L308.84,295A2,2,0,0,1,308.18,295ZM264.76,295c-.6.07-65.56.1-66.53,0a.4.4,0,0,1,.05-.3c.64-1.27,30.53-53.82,30.9-54.31l35.5,54.3A.3.3,0,0,1,264.76,295Zm100.43,34.61c0,.23-.12.31-.34.31H353.48c-.26,0-.37-.11-.37-.37,0-.67,0-1.34,0-2,0-1.87,0-3.73,0-5.6,0-.52,0-.53.52-.53h11.21c.36,0,.37,0,.39.42v.47c0,2.26,0,4.52,0,6.77Z"/></svg>