<svg id="Layer_1" data-name="Layer 1" xmlns="http://www.w3.org/2000/svg" viewBox="0 0 500 500"><defs><style>.cls-1{fill:#fff;}</style></defs><title>footer-logos</title><path class="cls-1" d="M381.84,289.53c15.54-1,28.67-6.81,39.24-17.28q17.61-17.46,17.62-44.08c0-16.18-4.62-30.06-14.49-41.09a1.74,1.74,0,0,0-1.24-.56,1.61,1.61,0,0,0-1.6,1.61,1.3,1.3,0,0,0,.06.44c7.27,19.57,3,39.24-9.81,44.44-9,3.64-19.9-.76-28.51-10.29a1.73,1.73,0,0,0-2.39,0,1.66,1.66,0,0,0-.17,2.15l.18.21c7.44,8.39,11.23,18.78,11.23,31s-3.74,22.42-11.22,30.7a1.61,1.61,0,0,0,1.1,2.78Z"/><path class="cls-1" d="M261.43,284.08q-1.95-2.82-5.18-8.42a115,115,0,0,0-8-12.46,28.27,28.27,0,0,0-5.79-5.64c3.36-1.37,6.52-3.46,8.32-6.24a18,18,0,0,0,2.69-9.92q0-8.42-5.5-13.35c-3.67-3.29-9.21-4.94-15.46-4.94H217.08v65.67h9.63V260.2h.69q4.33,0,6.17,1.06a19,19,0,0,1,4.12,3.45,49.32,49.32,0,0,1,5,6.43l3,5.13,2.74,4.8,1.72,2.58a7.91,7.91,0,0,1,.53.8l2.7,4.33H264.7ZM238.76,249.8c-1.52.74-4.9,1.11-9,1.11h-3.06V232h2.42c4,0,7.36.31,9.06.94a7.61,7.61,0,0,1,4,3.24,9.57,9.57,0,0,1,1.41,5.12,10.21,10.21,0,0,1-1.27,5.12A8,8,0,0,1,238.76,249.8Z"/><path class="cls-1" d="M272.71,223.11h32.94v9.27H282.47v16.56h23.18v9.24H282.47v30.6h-9.76Z"/><path class="cls-1" d="M197.35,231.81q-9.53-9.65-23.84-9.64t-23.68,9.64q-9.37,9.63-9.37,24.35,0,14.34,9.3,23.85T173,289.53q14.61,0,24.23-9.52t9.61-24Q206.87,241.44,197.35,231.81Zm-7.18,41.94a22.65,22.65,0,0,1-33,.14q-6.58-7.08-6.58-17.73,0-11,6.56-18.07A21.83,21.83,0,0,1,173.86,231a21.39,21.39,0,0,1,16.31,7.14,24.92,24.92,0,0,1,6.65,17.62Q196.82,266.53,190.17,273.75Z"/><path class="cls-1" d="M371.4,231.81q-9.51-9.65-23.83-9.64t-23.68,9.64q-9.37,9.63-9.37,24.35,0,14.34,9.3,23.85t23.26,9.52q14.63,0,24.24-9.52t9.61-24Q380.93,241.44,371.4,231.81Zm-7.17,41.94a22.66,22.66,0,0,1-33,.14q-6.57-7.08-6.57-17.73,0-11,6.55-18.07A21.86,21.86,0,0,1,347.91,231a21.43,21.43,0,0,1,16.32,7.14,24.91,24.91,0,0,1,6.64,17.62Q370.87,266.53,364.23,273.75Z"/><path class="cls-1" d="M131.41,273.75Q123.87,281,112.58,281t-18.71-7.08a23.41,23.41,0,0,1-7.47-17.73q0-11,7.45-18.07t19-7.07a26,26,0,0,1,18.54,7.14c.06.06.1.11.16.16V227.67q-11.89-5.4-21.62-5.41A32,32,0,0,0,86.23,232q-9.62,9.78-9.61,24.12a34.63,34.63,0,0,0,4.2,16.77,31.57,31.57,0,0,0,11.4,12.18q7.22,4.42,17.55,4.42a43.94,43.94,0,0,0,22.46-5.64V273l-.08,0C131.91,273.25,131.67,273.51,131.41,273.75Z"/><path class="cls-1" d="M413.94,208.3a11.41,11.41,0,0,0-8.48-3.43A11.23,11.23,0,0,0,397,208.3,11.88,11.88,0,0,0,393.7,217a11.69,11.69,0,0,0,3.31,8.49,11.11,11.11,0,0,0,8.28,3.39,11.74,11.74,0,0,0,8.62-3.39,11.54,11.54,0,0,0,3.42-8.56A11.71,11.71,0,0,0,413.94,208.3Z"/></svg>