<svg id="Layer_1" data-name="Layer 1" xmlns="http://www.w3.org/2000/svg" viewBox="0 0 500 500"><title>footer-logosb-01</title><path d="M57.34,250.88c-6.72-19.82-4.06-37.85,10.91-53.25,6.4-6.58,14.17-11.16,22.65-14.53,21.49-8.54,43.77-9.35,66.35-6.46a192.63,192.63,0,0,1,59.07,17.74c2.82,1.35,5.29.65,6.45-1.68s.22-4.81-2.47-6.16c-30.48-15.27-62.69-23.59-96.77-24-6,.16-11.8.3-17.63.91-17,1.79-33.38,5.86-48.41,14.33-16,9-27.95,21.49-33.27,39.41-5,16.89-2.39,33.23,4.54,49.06s17.48,29,29.75,40.86c4.49,4.34,10.14,5.05,15.86,2.64s8.88-7.12,9.18-13.49c.23-5.13-2.31-9-5.61-12.59C69,274,61.58,263.4,57.34,250.88Z"/><path d="M151.08,301.92a133.83,133.83,0,0,1-30.47-19.26c-10.74-9.17-19.76-19.69-25.11-33-8.84-21.93-1.07-42,20.29-52.13,13.53-6.43,28-7.54,42.66-6.49a125.67,125.67,0,0,1,18.36,2.8c2.73.6,4.43-.3,5-2.37s-.61-3.75-3.41-4.55c-.17-.05-.33-.11-.5-.15a156.79,156.79,0,0,0-39-4.89,96.7,96.7,0,0,0-11.17.57c-12.28,1.25-24.11,4.1-34.86,10.37-16.89,9.86-25.95,24.3-24.92,44.22.61,11.54,4.82,22,11,31.61,15.86,24.81,38.68,41.19,65.11,53,6,2.7,12.72-1.2,14.06-7.68C159.11,309,156.58,304.49,151.08,301.92Z"/><path d="M337.35,260.2v-1.63c0-9-.05-18.07,0-27.11,0-1.78-.45-2.46-2.29-2.3a28.86,28.86,0,0,1-5.42,0c-2.2-.22-2.88.39-2.86,2.77.1,24.35.06,48.71.06,73.07v1.55a1,1,0,0,0,.77,1.11,7.76,7.76,0,0,0,10-4.6c13.39,10.18,29.58,5.13,36.59-3.33,8.5-10.27,8.39-26.75-.34-36.68C365.84,253.88,349.47,251,337.35,260.2Zm16.55,38c-9.86,0-16.64-6.93-16.55-16.85.08-9.4,7.18-16.35,16.65-16.33s16.09,6.79,16.07,16.42S363.2,298.25,353.9,298.23Z"/><path d="M245,294.86a31.5,31.5,0,0,1-4.62-3.3c-1.55-1.36-2.55-1.32-4.23.13-12.85,11.08-32,8-40-6.41a31.71,31.71,0,0,1-3.63-18.45,26.42,26.42,0,0,1,40.07-20.94c2.05,1.23,3.52,4.3,6,3.65s4.2-2.88,6.37-4.29c1.26-.81,1.39-1.33.25-2.44-9.74-9.48-21.33-13.09-34.59-10.29-17.12,3.61-28.48,18.75-28.6,38.29a37.65,37.65,0,0,0,2.76,14.33,36.61,36.61,0,0,0,60.38,12.54C246.29,296.51,246.63,295.83,245,294.86Z"/><path d="M198.67,211.45c.88-2.07-.4-3.18-2.21-3.9-13.38-5.35-27.19-8.63-41.67-8.68-12-.11-22.88,2.15-31.25,6.6-8.65,4.58-15,11.14-17.63,20.84-3.46,12.8,4,34.31,14.67,42.27a7.27,7.27,0,0,0,11.6-6c0-2.21-1.12-3.92-2.36-5.6a46.6,46.6,0,0,1-7.32-14.13c-3.92-13,.66-24.55,12.5-31.19,7.23-4,15.14-5.55,23.32-5.81a88.91,88.91,0,0,1,36,6.73C196.14,213.31,197.8,213.52,198.67,211.45Z"/><path d="M274.65,254.49c-15.7-.11-27.28,11.21-27.37,26.75s11.55,27.41,27.06,27.45,27.13-11.54,27.22-27C301.65,266,290.34,254.61,274.65,254.49Zm-.29,43.83c-9.64,0-16.71-7.18-16.7-16.88,0-9.52,7.08-16.52,16.72-16.56s16.86,7.06,16.81,16.71S284,298.35,274.36,298.32Z"/><path d="M428.53,255.51a55.68,55.68,0,0,1-6.46,0c-1.88-.14-2.26.59-2.24,2.34q.12,13.17,0,26.34c-.08,8.91-6,14.47-14.85,14.13a8.75,8.75,0,0,1-8.43-6.06,19.55,19.55,0,0,1-1.05-7.11c0-9-.07-18.08.06-27.12,0-2.12-.63-2.67-2.61-2.52a58.26,58.26,0,0,1-6.2,0c-1.1,0-1.77.15-1.75,1.51.16,11-.52,22.06.32,33.05.94,12.22,10.05,19.6,22.22,18.52a21.38,21.38,0,0,0,12.26-5.23c1,3.61,3.47,4.54,6.64,4.29a13.82,13.82,0,0,1,2.32,0c1.31.14,1.57-.48,1.56-1.65q0-24.4,0-48.82C430.36,255.78,429.81,255.46,428.53,255.51Z"/><path d="M482.77,272.79c-.7-8.3-4.87-14.73-13.3-17.27q-11.39-3.44-21.1,4.25c-1.05-3.83-3.92-4.21-7.28-4.33-2.82-.11-3.31.86-3.29,3.43.13,13.6.05,27.2.07,40.8,0,2.56-.87,6,.44,7.46,1.51,1.65,5,.27,7.65.56,2,.21,2.44-.46,2.41-2.4-.1-9-.15-17.9,0-26.85s7.22-14.66,15.91-13.41a8.68,8.68,0,0,1,7.27,5.8,19.73,19.73,0,0,1,1.11,7.35c0,9.12,0,18.24,0,27.37,0,1.7.46,2.25,2.16,2.14,2.23-.14,4.48-.06,6.72,0,1,0,1.63-.05,1.61-1.33C483,295.16,483.71,283.94,482.77,272.79Z"/><path d="M315,229.21c-4.78.57-7.88,4.09-7.88,9.21q0,30.72,0,61.43c0,2.54-1.13,6,.51,7.37s4.92.26,7.48.47c2,.17,2.42-.5,2.4-2.42-.09-12.21,0-24.43,0-36.65,0-12.39-.06-24.77,0-37.16C317.55,229.35,316.8,229,315,229.21Z"/><path d="M399.9,249.88c2.75,0,5.51,0,8.26,0a1.77,1.77,0,0,0,1.71-.88c3.34-5.38,6.7-10.75,10.3-16.52H408.24c-.85,0-1.14.61-1.46,1.23-2.54,4.89-5.07,9.77-7.64,14.63C398.62,249.31,398.42,249.9,399.9,249.88Z"/></svg>