<?xml version="1.0" encoding="utf-8"?>
<!-- Generator: Adobe Illustrator 24.0.3, SVG Export Plug-In . SVG Version: 6.00 Build 0)  -->
<svg version="1.1" id="Layer_1" xmlns="http://www.w3.org/2000/svg" xmlns:xlink="http://www.w3.org/1999/xlink" x="0px" y="0px"
	 viewBox="0 0 500 500" style="enable-background:new 0 0 500 500;" xml:space="preserve">
<style type="text/css">
	.st0{display:none;}
	.st1{fill:#5B5B5B;}
	.st2{clip-path:url(#SVGID_2_);fill:#231F20;}
	.st3{clip-path:url(#SVGID_2_);fill:#0075C9;}
	.st4{clip-path:url(#SVGID_2_);fill:#FF4D00;}
	.st5{clip-path:url(#SVGID_2_);fill:#FFFFFF;}
	.st6{fill:#FFFFFF;}
</style>
<rect x="-171.7" y="-712.6" class="st0" width="1391.5" height="2478.2"/>
<path class="st1" d="M384,293.5c-25.3-39.3-50.7-78.6-76-117.8c-6.6-10.2-13.2-20.5-19.8-30.7c-0.2-0.3-0.3-0.5-0.5-0.9
	c0.4,0,0.6,0,0.9,0c7.5,0,15,0,22.5,0c1.1,0,1,0.2,1-0.9c0-9,0-18,0-27c0-0.3,0-0.6,0-0.8c0,0,0,0,0,0c-25.4,0-50.8,0-76.2,0
	c-0.3,0-0.5,0-0.8,0c0.2,0.3,0.3,0.5,0.5,0.8c26.5,41.1,53,82.2,79.6,123.3c11.6,18,23.3,36.1,34.9,54.1c0.1,0.2,0.3,0.4,0.4,0.8
	c-0.3,0-0.6,0-0.8,0c-3.1,0-6.2,0-9.3,0c-0.9,0-0.7,0.1-1.2-0.7c-6.3-10.1-12.7-20.2-19-30.3c-15.2-24.2-30.4-48.4-45.6-72.6
	c-15.3-24.4-30.6-48.7-45.9-73.1c-0.5-0.8-0.9-1.5-1.4-2.3c-0.3,0.1-0.4,0.4-0.5,0.7c-3.3,6-6.6,11.9-9.9,17.9
	c-18.1,32.6-36.2,65.1-54.4,97.7c-18.1,32.5-36.1,65-54.2,97.4c-5,8.9-9.9,17.8-14.9,26.7c-0.1,0.2-0.2,0.5-0.3,0.7
	c0.1,0.1,0.2,0.2,0.3,0.2c0.2,0,0.4,0,0.6,0c81,0,161.9,0,242.9,0c0.3,0,0.7,0.2,0.9-0.2c-0.1-0.2-0.2-0.5-0.4-0.7
	c-6.7-10.9-13.4-21.7-20.1-32.6c-0.2-0.3-0.3-0.6-0.5-0.8c0.2-0.2,0.4-0.1,0.5-0.1c2.7,0,5.3,0,8,0c0.5,0,0.8,0.2,1.1,0.6
	c6.7,11,13.3,22,20,33.1c0.1,0.2,0.3,0.5,0.5,0.7c25.8,0,51.7,0,77.5,0c0.3,0,0.6,0.1,0.8-0.1c-0.9-1.5-1.8-3.1-2.7-4.6
	c-5.8-9.6-11.6-19.2-17.4-28.8c-0.1-0.2-0.3-0.5-0.4-0.8c0.3,0,0.6,0,0.9,0c7.1,0,14.1,0,21.2,0c0.3,0,0.6,0,0.9,0
	c0-0.8,0-1.6,0-2.5c0-1.7-0.1-3.4,0-5.1c0-1.7,0-3.3,0-5c0-1.5,0-3.1,0-4.6c0-0.2,0-0.4,0.2-0.6c0-3.4,0-6.7,0-10.1
	c-14.1,0-28.1,0-42.2,0C384.3,294.3,384.6,294.4,384,293.5z M308.2,295c-2.8,0-5.5,0-8.3,0c-0.5,0-0.8-0.2-1.1-0.6
	c-3.3-5.1-6.7-10.2-10.1-15.3c-18.7-28.4-37.3-56.8-56-85.3c-1.3-2-2.6-4-3.9-6c-0.1-0.2-0.2-0.4-0.5-0.5
	c-24.7,44.7-49.5,89.3-74.2,133.9c0.2,0.2,0.4,0.1,0.5,0.1c0.2,0,0.4,0,0.6,0c43.6,0,87.3,0,130.9,0c0.4,0,0.8-0.2,1,0.1
	c0.2,0.2,0.1,0.6,0.1,1c0,2.3,0,4.5,0,6.8c0,0.7,0,0.7-0.6,0.7c-0.2,0-0.4,0-0.5,0c-48.8,0-97.5,0-146.3,0c-0.3,0-0.7,0-1,0
	c0-0.3,0.2-0.6,0.3-0.8c3.2-5.8,6.5-11.7,9.7-17.5c12.5-22.5,25-45,37.5-67.6c13.8-24.9,27.6-49.8,41.5-74.6
	c0.1-0.2,0.3-0.4,0.4-0.7c26.9,42.1,53.7,84.2,80.5,126.3C308.6,295.1,308.4,295,308.2,295z M264.8,295c-0.6,0.1-65.6,0.1-66.5,0
	c0-0.1,0-0.2,0-0.3c0.6-1.3,30.5-53.8,30.9-54.3c11.8,18.1,23.7,36.2,35.5,54.3C264.7,294.8,264.8,294.9,264.8,295z M365.2,329.6
	c0,0.2-0.1,0.3-0.3,0.3c-0.1,0-0.3,0-0.4,0c-3.5,0-7.1,0-10.6,0c-0.1,0-0.3,0-0.4,0c-0.3,0-0.4-0.1-0.4-0.4c0-0.7,0-1.3,0-2
	c0-1.9,0-3.7,0-5.6c0-0.5,0-0.5,0.5-0.5c1.8,0,3.7,0,5.5,0c1.7,0,3.4,0,5.1,0c0.2,0,0.4,0,0.5,0c0.4,0,0.4,0,0.4,0.4
	c0,0.2,0,0.3,0,0.5c0,2.3,0,4.5,0,6.8C365.2,329.2,365.2,329.4,365.2,329.6z"/>
</svg>
