<svg id="Layer_1" data-name="Layer 1" xmlns="http://www.w3.org/2000/svg" xmlns:xlink="http://www.w3.org/1999/xlink" viewBox="0 0 500 500"><defs><style>.cls-1{fill:none;}.cls-2{clip-path:url(#clip-path);}.cls-3{fill:#231f20;}.cls-4{fill:#0075c9;}.cls-5{fill:#ff4d00;}.cls-6{fill:#fff;}</style><clipPath id="clip-path"><rect class="cls-1" x="66.21" y="122.28" width="369.46" height="250.92"/></clipPath></defs><title>footer-logos</title><g class="cls-2"><path class="cls-3" d="M216.69,423.34a.94.94,0,0,1-.93-1,1,1,0,0,1,1-1.09,1,1,0,0,1,.94,1.05,1,1,0,0,1-1,1.09Zm0-.22c.42,0,.66-.39.66-.86s-.21-.84-.66-.84-.67.41-.67.86.24.84.66.84Z"/><path class="cls-3" d="M218,422.28c0-.17,0-.32,0-.46h.23l0,.29h0a.44.44,0,0,1,.41-.33h.08v.26h-.1a.37.37,0,0,0-.36.35.45.45,0,0,0,0,.12v.8H218Z"/><path class="cls-3" d="M220,423a2,2,0,0,0,0,.36h-.25l0-.19h0a.53.53,0,0,1-.45.22.42.42,0,0,1-.46-.42c0-.37.32-.56.9-.56v0a.32.32,0,0,0-.34-.35.78.78,0,0,0-.39.11l-.06-.18a1,1,0,0,1,.49-.13c.46,0,.57.31.57.61Zm-.27-.4c-.29,0-.63,0-.63.33a.24.24,0,0,0,.25.26.37.37,0,0,0,.37-.25.25.25,0,0,0,0-.08Z"/><path class="cls-3" d="M220.47,422.22c0-.16,0-.28,0-.4h.24l0,.24h0a.54.54,0,0,1,.49-.27c.21,0,.53.12.53.63v.89h-.27v-.86c0-.24-.09-.45-.35-.45a.4.4,0,0,0-.36.28.59.59,0,0,0,0,.13v.9h-.27Z"/><path class="cls-3" d="M223.46,423.09a.88.88,0,0,1-.22.68.75.75,0,0,1-.54.18,1,1,0,0,1-.5-.12l.07-.21a.77.77,0,0,0,.44.12c.28,0,.48-.14.48-.52v-.17h0a.52.52,0,0,1-.47.25.67.67,0,0,1-.64-.73.72.72,0,0,1,.68-.79.5.5,0,0,1,.46.26h0v-.22h.24c0,.1,0,.22,0,.4Zm-.27-.69a.5.5,0,0,0,0-.12.39.39,0,0,0-.38-.29c-.26,0-.44.22-.44.57s.15.54.44.54a.38.38,0,0,0,.37-.28.4.4,0,0,0,0-.15Z"/><path class="cls-3" d="M224.06,422.61a.47.47,0,0,0,.51.52,1,1,0,0,0,.41-.08l.05.19a1.11,1.11,0,0,1-.5.1.69.69,0,0,1-.73-.75.73.73,0,0,1,.7-.81.63.63,0,0,1,.61.7.45.45,0,0,1,0,.13Zm.79-.19c0-.17-.07-.44-.37-.44a.45.45,0,0,0-.42.44Z"/><rect class="cls-3" x="225.97" y="422.38" width="0.76" height="0.2"/><path class="cls-3" d="M227.71,421.26a3.29,3.29,0,0,1,.51,0,.84.84,0,0,1,.58.17.55.55,0,0,1,.19.44.6.6,0,0,1-.17.44.85.85,0,0,1-.63.23l-.22,0v.83h-.26Zm.26,1a.75.75,0,0,0,.22,0c.33,0,.53-.16.53-.44s-.2-.41-.49-.41l-.26,0Z"/><path class="cls-3" d="M230.31,423a2,2,0,0,0,0,.36h-.25l0-.19h0a.54.54,0,0,1-.46.22.42.42,0,0,1-.45-.42c0-.37.32-.56.89-.56v0a.31.31,0,0,0-.33-.35.78.78,0,0,0-.39.11l-.07-.18a1.09,1.09,0,0,1,.5-.13c.46,0,.57.31.57.61Zm-.27-.4c-.29,0-.63,0-.63.33a.24.24,0,0,0,.25.26.37.37,0,0,0,.37-.25.25.25,0,0,0,0-.08Z"/><path class="cls-3" d="M230.74,422.22c0-.16,0-.28,0-.4H231l0,.24h0a.54.54,0,0,1,.49-.27c.21,0,.53.12.53.63v.89h-.27v-.86c0-.24-.09-.45-.35-.45a.4.4,0,0,0-.36.28.59.59,0,0,0,0,.13v.9h-.27Z"/><path class="cls-3" d="M232.76,421.46v.36h.39v.2h-.39v.81c0,.18.06.29.21.29l.16,0v.21a1.29,1.29,0,0,1-.24,0,.41.41,0,0,1-.3-.11.61.61,0,0,1-.1-.39V422h-.23v-.2h.23v-.28Z"/><path class="cls-3" d="M234.05,423.34a.71.71,0,0,1-.72-.76.74.74,0,0,1,.74-.8.71.71,0,0,1,.72.77.73.73,0,0,1-.74.79Zm0-.2a.52.52,0,0,0,.45-.58c0-.26-.13-.57-.45-.57s-.45.29-.45.57.18.58.44.58Z"/><path class="cls-3" d="M235.13,422.22c0-.16,0-.28,0-.4h.24v.24h0a.54.54,0,0,1,.49-.27c.21,0,.53.12.53.63v.89h-.27v-.86c0-.24-.09-.45-.35-.45a.4.4,0,0,0-.36.28.59.59,0,0,0,0,.13v.9h-.27Z"/><path class="cls-3" d="M237,422.61a.48.48,0,0,0,.51.52,1,1,0,0,0,.42-.08l0,.19a1.06,1.06,0,0,1-.49.1.7.7,0,0,1-.74-.75.73.73,0,0,1,.7-.81.63.63,0,0,1,.62.7c0,.06,0,.1,0,.13Zm.8-.19a.39.39,0,0,0-.38-.44.44.44,0,0,0-.41.44Z"/><polygon class="cls-3" points="239.54 421.56 239.53 421.56 239.18 421.75 239.13 421.54 239.57 421.31 239.8 421.31 239.8 423.31 239.54 423.31 239.54 421.56"/><path class="cls-3" d="M241.67,421.49l-.2,0a.81.81,0,0,0-.7.71h0a.61.61,0,0,1,1.09.41.67.67,0,0,1-.67.71c-.42,0-.7-.33-.7-.85a1.22,1.22,0,0,1,.34-.91,1.06,1.06,0,0,1,.64-.29l.19,0Zm-.46,1.64c.23,0,.39-.19.39-.48a.42.42,0,0,0-.42-.46.45.45,0,0,0-.39.25.35.35,0,0,0,0,.12c0,.32.16.57.44.57Z"/><path class="cls-3" d="M243.3,421.54h-.76l-.07.5h.16a.77.77,0,0,1,.43.11.57.57,0,0,1,.29.52.7.7,0,0,1-.75.68,1,1,0,0,1-.5-.12l.07-.21a.86.86,0,0,0,.43.11.44.44,0,0,0,.47-.43c0-.27-.17-.45-.57-.45l-.28,0,.13-.95h1Z"/><path class="cls-3" d="M244.88,421.54h-.76l-.07.5h.16a.77.77,0,0,1,.43.11.57.57,0,0,1,.29.52.7.7,0,0,1-.75.68,1,1,0,0,1-.5-.12l.07-.21a.86.86,0,0,0,.43.11.44.44,0,0,0,.47-.43c0-.27-.17-.45-.57-.45l-.28,0,.13-.95h.95Z"/><path class="cls-3" d="M247.47,423.24a1.34,1.34,0,0,1-.55.1,1,1,0,0,1-1-1A1,1,0,0,1,247,421.2a1.06,1.06,0,0,1,.49.09l-.07.22a.92.92,0,0,0-.41-.09.77.77,0,0,0-.81.86.75.75,0,0,0,.79.83,1.12,1.12,0,0,0,.44-.08Z"/><path class="cls-3" d="M219.43,436.92a2.25,2.25,0,0,1,.49,0,.78.78,0,0,1,.56.15.43.43,0,0,1,.18.36.49.49,0,0,1-.35.46h0a.52.52,0,0,1,.43.51.55.55,0,0,1-.18.42,1,1,0,0,1-.72.2,3.32,3.32,0,0,1-.41,0Zm.27.85h.24c.28,0,.45-.15.45-.35s-.18-.34-.46-.34a1,1,0,0,0-.23,0Zm0,1,.22,0c.28,0,.53-.11.53-.41s-.24-.4-.53-.4h-.22Z"/><rect class="cls-3" x="221.09" y="436.78" width="0.27" height="2.19"/><path class="cls-3" d="M223.06,438.56c0,.15,0,.29,0,.41h-.24v-.25h0a.56.56,0,0,1-.49.28c-.24,0-.51-.13-.51-.65v-.87h.26v.82c0,.28.09.48.34.48a.38.38,0,0,0,.35-.25.32.32,0,0,0,0-.14v-.91h.27Z"/><path class="cls-3" d="M223.66,438.27a.48.48,0,0,0,.51.51,1.06,1.06,0,0,0,.42-.07l0,.19a1.21,1.21,0,0,1-.49.1.7.7,0,0,1-.74-.76.72.72,0,0,1,.7-.8.63.63,0,0,1,.62.7c0,.06,0,.1,0,.13Zm.8-.2a.39.39,0,0,0-.38-.44.44.44,0,0,0-.41.44Z"/><rect class="cls-3" x="225.57" y="438.04" width="0.76" height="0.2"/><path class="cls-3" d="M227.31,436.92a3.14,3.14,0,0,1,.52-.05.85.85,0,0,1,.58.18.58.58,0,0,1,.19.43.61.61,0,0,1-.17.45.85.85,0,0,1-.63.22h-.22V439h-.27Zm.27,1,.22,0c.33,0,.52-.16.52-.44s-.19-.41-.49-.41l-.25,0Z"/><path class="cls-3" d="M229.91,438.61c0,.13,0,.26,0,.36h-.24l0-.19h0a.55.55,0,0,1-.46.22.42.42,0,0,1-.45-.43c0-.36.32-.56.89-.55v0a.31.31,0,0,0-.33-.35.75.75,0,0,0-.4.11l-.06-.18a1,1,0,0,1,.49-.13c.46,0,.57.31.57.61Zm-.26-.4c-.3,0-.63,0-.63.33a.23.23,0,0,0,.25.26.36.36,0,0,0,.36-.25.15.15,0,0,0,0-.09Z"/><path class="cls-3" d="M230.35,437.88c0-.16,0-.28,0-.4h.24l0,.24h0a.54.54,0,0,1,.49-.28c.21,0,.53.13.53.63v.9h-.28v-.86c0-.24-.08-.45-.34-.45a.4.4,0,0,0-.36.28.51.51,0,0,0,0,.13v.9h-.27Z"/><path class="cls-3" d="M232.37,437.12v.36h.39v.2h-.39v.81c0,.18,0,.29.2.29l.16,0v.2a.63.63,0,0,1-.23,0,.41.41,0,0,1-.3-.11.64.64,0,0,1-.1-.4v-.81h-.23v-.2h.23v-.28Z"/><path class="cls-3" d="M233.65,439a.71.71,0,0,1-.71-.77.73.73,0,0,1,.74-.79.7.7,0,0,1,.71.76.73.73,0,0,1-.73.8Zm0-.2a.52.52,0,0,0,.46-.58c0-.26-.13-.58-.45-.58s-.46.3-.46.58.19.58.45.58Z"/><path class="cls-3" d="M234.74,437.88c0-.16,0-.28,0-.4H235l0,.24h0a.54.54,0,0,1,.49-.28c.21,0,.53.13.53.63v.9h-.28v-.86c0-.24-.08-.45-.34-.45a.4.4,0,0,0-.36.28.51.51,0,0,0,0,.13v.9h-.27Z"/><path class="cls-3" d="M236.6,438.27a.48.48,0,0,0,.51.51,1,1,0,0,0,.41-.07l0,.19a1.27,1.27,0,0,1-.5.1.7.7,0,0,1-.73-.76.72.72,0,0,1,.7-.8.62.62,0,0,1,.61.7.45.45,0,0,1,0,.13Zm.79-.2a.38.38,0,0,0-.37-.44.44.44,0,0,0-.41.44Z"/><path class="cls-3" d="M238.62,438.66a1,1,0,0,0,.45.12.39.39,0,0,0,.45-.39c0-.28-.26-.4-.52-.4h-.15v-.2H239c.2,0,.45-.1.45-.34s-.11-.3-.35-.3a.77.77,0,0,0-.41.13l-.07-.2a1,1,0,0,1,.53-.15.49.49,0,0,1,.2.95h0a.52.52,0,0,1,.45.51c0,.32-.25.6-.73.6a1,1,0,0,1-.52-.14Z"/><path class="cls-3" d="M240.77,439c-.39,0-.65-.37-.66-1s.29-1,.7-1,.66.38.66,1-.26,1.06-.69,1.06Zm0-.21c.27,0,.4-.32.4-.84s-.12-.81-.4-.81-.41.31-.41.81.16.84.4.84Z"/><path class="cls-3" d="M242.35,439c-.39,0-.65-.37-.66-1s.29-1,.7-1,.66.38.66,1-.26,1.06-.69,1.06Zm0-.21c.27,0,.4-.32.4-.84s-.12-.81-.4-.81-.41.31-.41.81.16.84.4.84Z"/><path class="cls-3" d="M244.49,437.19h-.76l-.08.51h.16a.77.77,0,0,1,.43.11.56.56,0,0,1,.29.52.69.69,0,0,1-.74.68,1,1,0,0,1-.5-.12l.06-.21a.94.94,0,0,0,.44.11.44.44,0,0,0,.47-.44c0-.26-.18-.44-.58-.44l-.27,0,.12-.95h1Z"/><path class="cls-3" d="M247.07,438.9a1.25,1.25,0,0,1-.54.1,1,1,0,0,1-1-1.05,1,1,0,0,1,1.08-1.09,1.11,1.11,0,0,1,.5.09l-.07.22a.92.92,0,0,0-.41-.09.77.77,0,0,0-.81.86.75.75,0,0,0,.79.83,1,1,0,0,0,.44-.09Z"/><path class="cls-3" d="M266.74,423.5a1.34,1.34,0,0,1-.55.1,1,1,0,0,1-1-1.06,1,1,0,0,1,1.09-1.09,1.05,1.05,0,0,1,.49.1l-.07.22a.92.92,0,0,0-.41-.09.77.77,0,0,0-.81.86.75.75,0,0,0,.79.83,1,1,0,0,0,.44-.09Z"/><path class="cls-3" d="M267,422.34h1.58v.19H267Zm0,.61h1.58v.18H267Z"/><path class="cls-3" d="M269.45,423.6c-.39,0-.66-.37-.66-1s.29-1,.7-1,.66.37.66,1-.26,1.06-.7,1.06Zm0-.21c.28,0,.41-.32.41-.84s-.12-.81-.41-.81-.4.31-.4.81.15.84.4.84Z"/><path class="cls-3" d="M273.55,422.65c0-.29,0-.64,0-.89h0c-.07.24-.15.5-.26.79l-.36,1h-.2l-.34-1c-.1-.29-.18-.56-.24-.8h0c0,.26,0,.6,0,.91l-.05.89h-.26l.14-2.07h.35l.35,1c.09.26.15.49.21.7h0c.05-.21.13-.43.22-.7l.37-1h.34l.13,2.07h-.27Z"/><path class="cls-3" d="M274.16,422.34h1.59v.19h-1.59Zm0,.61h1.59v.18h-1.59Z"/><path class="cls-3" d="M276.69,421.53a.5.5,0,0,1,.25,1h0a.56.56,0,0,1,.4.52.61.61,0,0,1-.68.58c-.42,0-.67-.25-.67-.54a.58.58,0,0,1,.39-.54h0a.49.49,0,0,1-.32-.45.56.56,0,0,1,.62-.53Zm0,1.87a.36.36,0,0,0,.4-.36c0-.24-.17-.36-.44-.43a.43.43,0,0,0-.36.41.36.36,0,0,0,.39.38Zm0-1.68a.32.32,0,0,0-.34.32c0,.2.15.31.38.37a.38.38,0,0,0,.3-.36.31.31,0,0,0-.33-.33Z"/><path class="cls-3" d="M278.23,423.6c-.39,0-.66-.37-.66-1s.29-1,.69-1,.67.37.67,1-.26,1.06-.7,1.06Zm0-.21c.28,0,.41-.32.41-.84s-.13-.81-.41-.81-.4.31-.4.81.15.84.4.84Z"/><path class="cls-3" d="M280.89,423.56v-.88l-.66-1.19h.31l.3.57c.07.16.14.28.2.43h0a4.19,4.19,0,0,1,.21-.43l.3-.57h.3l-.69,1.19v.88Z"/><path class="cls-3" d="M282,422.34h1.59v.19H282Zm0,.61h1.59v.18H282Z"/><polygon class="cls-3" points="285.08 421.82 285.07 421.82 284.73 422 284.68 421.8 285.11 421.56 285.34 421.56 285.34 423.56 285.08 423.56 285.08 421.82"/><path class="cls-3" d="M286.71,423.6c-.39,0-.66-.37-.67-1s.3-1,.7-1,.67.37.67,1-.26,1.06-.7,1.06Zm0-.21c.28,0,.41-.32.41-.84s-.13-.81-.41-.81-.4.31-.4.81.15.84.4.84Z"/><path class="cls-3" d="M288.29,423.6c-.39,0-.66-.37-.66-1s.29-1,.69-1,.67.37.67,1-.26,1.06-.7,1.06Zm0-.21c.28,0,.41-.32.41-.84s-.13-.81-.41-.81-.4.31-.4.81.15.84.4.84Z"/><path class="cls-3" d="M290.63,421.49h.27v1h0l.16-.22.64-.78H292l-.75.88.81,1.2h-.32l-.68-1-.2.24v.79h-.27Z"/><path class="cls-3" d="M292.19,422.34h1.59v.19h-1.59Zm0,.61h1.59v.18h-1.59Z"/><path class="cls-3" d="M294.68,423.6c-.39,0-.66-.37-.66-1s.29-1,.69-1,.67.37.67,1-.26,1.06-.7,1.06Zm0-.21c.28,0,.41-.32.41-.84s-.12-.81-.41-.81-.4.31-.4.81.15.84.4.84Z"/><path class="cls-3" d="M297,421.43a2.21,2.21,0,0,0,0,2.51h-.21a2,2,0,0,1-.4-1.25,2.06,2.06,0,0,1,.4-1.26Z"/><polygon class="cls-3" points="298.03 421.56 297.73 421.94 297.73 421.95 298.2 421.89 298.2 422.1 297.73 422.05 297.73 422.05 298.03 422.42 297.83 422.53 297.65 422.1 297.64 422.1 297.44 422.53 297.27 422.42 297.56 422.05 297.56 422.04 297.11 422.1 297.11 421.89 297.56 421.95 297.56 421.94 297.27 421.56 297.45 421.46 297.65 421.88 297.65 421.88 297.84 421.46 298.03 421.56"/><path class="cls-3" d="M298.35,423.94a2.21,2.21,0,0,0,0-2.51h.21a1.94,1.94,0,0,1,.4,1.25,2,2,0,0,1-.4,1.26Z"/><path class="cls-3" d="M266.74,439.16a1.34,1.34,0,0,1-.55.1,1,1,0,0,1-1-1.06,1,1,0,0,1,1.09-1.09,1.05,1.05,0,0,1,.49.1l-.07.22a.8.8,0,0,0-.41-.09.77.77,0,0,0-.81.86.75.75,0,0,0,.79.83,1,1,0,0,0,.44-.09Z"/><path class="cls-3" d="M267,438h1.58v.19H267Zm0,.6h1.58v.19H267Z"/><polygon class="cls-3" points="269.4 437.47 269.4 437.47 269.05 437.66 269 437.46 269.43 437.22 269.66 437.22 269.66 439.22 269.4 439.22 269.4 437.47"/><path class="cls-3" d="M271,439.26c-.39,0-.66-.37-.66-1s.29-1,.7-1,.66.37.66,1-.26,1.06-.7,1.06Zm0-.21c.28,0,.41-.33.41-.84s-.12-.81-.41-.81-.4.31-.4.81.15.84.4.84Z"/><path class="cls-3" d="M272.61,439.26c-.39,0-.66-.37-.66-1s.29-1,.7-1,.66.37.66,1-.26,1.06-.7,1.06Zm0-.21c.28,0,.41-.33.41-.84s-.12-.81-.41-.81-.4.31-.4.81.15.84.4.84Z"/><path class="cls-3" d="M276.71,438.31c0-.29,0-.64,0-.9h0c-.07.24-.15.51-.26.79l-.36,1h-.21l-.33-1q-.15-.44-.24-.81h0c0,.27,0,.61,0,.92l-.06.89h-.25l.14-2.07h.35l.35,1c.09.26.15.48.21.7h0c.05-.21.13-.44.22-.7l.37-1h.34l.13,2.07h-.27Z"/><path class="cls-3" d="M277.32,438h1.59v.19h-1.59Zm0,.6h1.59v.19h-1.59Z"/><path class="cls-3" d="M279.81,439.26c-.39,0-.66-.37-.66-1s.29-1,.69-1,.67.37.67,1-.26,1.06-.7,1.06Zm0-.21c.28,0,.41-.33.41-.84s-.13-.81-.41-.81-.4.31-.4.81.15.84.4.84Z"/><path class="cls-3" d="M282.47,439.22v-.88l-.66-1.19h.31l.3.57c.07.16.14.28.2.43h0a4.19,4.19,0,0,1,.21-.43l.3-.57h.3l-.69,1.19v.88Z"/><path class="cls-3" d="M283.57,438h1.58v.19h-1.58Zm0,.6h1.58v.19h-1.58Z"/><path class="cls-3" d="M286.71,439.26c-.39,0-.66-.37-.67-1s.3-1,.7-1,.67.37.67,1-.26,1.06-.7,1.06Zm0-.21c.28,0,.41-.33.41-.84s-.13-.81-.41-.81-.4.31-.4.81.15.84.4.84Z"/><path class="cls-3" d="M289.05,437.15h.27v1h0l.16-.22.64-.78h.33l-.75.88.81,1.19h-.32l-.68-1-.2.23v.79h-.27Z"/><path class="cls-3" d="M290.61,438h1.59v.19h-1.59Zm0,.6h1.59v.19h-1.59Z"/><polygon class="cls-3" points="293.05 437.47 293.05 437.47 292.7 437.66 292.65 437.46 293.08 437.22 293.31 437.22 293.31 439.22 293.05 439.22 293.05 437.47"/><path class="cls-3" d="M294.68,439.26c-.39,0-.66-.37-.66-1s.29-1,.69-1,.67.37.67,1-.26,1.06-.7,1.06Zm0-.21c.28,0,.41-.33.41-.84s-.12-.81-.41-.81-.4.31-.4.81.15.84.4.84Z"/><path class="cls-3" d="M297,437.09a2,2,0,0,0-.39,1.26,2.07,2.07,0,0,0,.39,1.25h-.21a2,2,0,0,1-.4-1.26,2,2,0,0,1,.4-1.25Z"/><polygon class="cls-3" points="298.03 437.22 297.73 437.6 297.73 437.61 298.2 437.55 298.2 437.76 297.73 437.7 297.73 437.71 298.03 438.08 297.83 438.19 297.65 437.76 297.64 437.76 297.44 438.19 297.27 438.08 297.56 437.71 297.56 437.7 297.11 437.76 297.11 437.55 297.56 437.61 297.56 437.6 297.27 437.22 297.45 437.12 297.65 437.54 297.65 437.54 297.84 437.12 298.03 437.22"/><path class="cls-3" d="M298.35,439.59a2,2,0,0,0,.39-1.25,2,2,0,0,0-.39-1.25h.21a1.94,1.94,0,0,1,.4,1.25,2,2,0,0,1-.4,1.25Z"/><polygon class="cls-3" points="202.31 454.87 203.58 454.87 203.58 455.26 202.78 455.26 202.78 455.73 203.53 455.73 203.53 456.11 202.78 456.11 202.78 456.95 202.31 456.95 202.31 454.87"/><path class="cls-3" d="M204.54,457a.74.74,0,0,1-.78-.77.75.75,0,0,1,.8-.8.73.73,0,0,1,.77.77.75.75,0,0,1-.79.8Zm0-.33c.18,0,.3-.19.3-.46s-.09-.44-.3-.44-.31.22-.31.45.11.45.3.45Z"/><path class="cls-3" d="M205.62,455.92c0-.19,0-.34,0-.48H206l0,.21h0a.55.55,0,0,1,.46-.24c.31,0,.54.2.54.65V457h-.47v-.83c0-.2-.07-.33-.24-.33a.28.28,0,0,0-.25.29V457h-.47Z"/><path class="cls-3" d="M207.93,455v.41h.34v.35h-.34v.55c0,.18,0,.26.19.26h.13v.35a.77.77,0,0,1-.3,0,.49.49,0,0,1-.36-.13.65.65,0,0,1-.13-.45v-.61h-.2v-.35h.2v-.28Z"/><path class="cls-3" d="M208.54,456.54a.9.9,0,0,0,.4.11c.14,0,.2,0,.2-.12s0-.12-.22-.18-.43-.27-.43-.44.24-.5.61-.5a1,1,0,0,1,.43.09l-.09.32a.87.87,0,0,0-.32-.09c-.12,0-.18,0-.18.12s.06.11.24.18.4.24.41.46-.22.49-.65.49a1.12,1.12,0,0,1-.49-.1Z"/><path class="cls-3" d="M210.11,457a.27.27,0,0,1-.27-.28.28.28,0,1,1,.55,0,.27.27,0,0,1-.27.28Zm0-1a.27.27,0,0,1-.28-.28.28.28,0,0,1,.28-.29.27.27,0,0,1,.27.29.27.27,0,0,1-.27.28Z"/><path class="cls-4" d="M202.34,462.3a2.54,2.54,0,0,1,.52-.05.9.9,0,0,1,.6.17.56.56,0,0,1-.23.92h0a.55.55,0,0,1,.31.42,3.16,3.16,0,0,0,.15.57h-.27a1.88,1.88,0,0,1-.14-.5c-.06-.28-.18-.39-.42-.4h-.25v.9h-.27Zm.27.94h.27c.29,0,.47-.16.47-.4s-.19-.38-.48-.38a.72.72,0,0,0-.26,0Z"/><polygon class="cls-4" points="205.07 463.37 204.26 463.37 204.26 464.12 205.16 464.12 205.16 464.34 203.99 464.34 203.99 462.26 205.12 462.26 205.12 462.49 204.26 462.49 204.26 463.15 205.07 463.15 205.07 463.37"/><path class="cls-4" d="M205.48,464a.88.88,0,0,0,.48.14c.27,0,.43-.14.43-.36s-.11-.3-.39-.41-.55-.29-.55-.59a.6.6,0,0,1,.67-.56,1,1,0,0,1,.46.1l-.08.22a.74.74,0,0,0-.39-.1c-.28,0-.39.17-.39.31s.13.29.42.4.52.31.52.61-.23.6-.72.6a1.12,1.12,0,0,1-.53-.13Z"/><path class="cls-4" d="M207.84,464.38a1,1,0,0,1-.93-1.06,1,1,0,0,1,1-1.09,1,1,0,0,1,.94,1,1,1,0,0,1-1,1.1Zm0-.22c.43,0,.67-.4.67-.87s-.22-.84-.66-.84-.67.42-.67.87.24.84.66.84Z"/><polygon class="cls-4" points="209.15 462.26 209.42 462.26 209.42 464.12 210.31 464.12 210.31 464.34 209.15 464.34 209.15 462.26"/><path class="cls-4" d="M210.84,464.34l-.68-2.08h.29l.33,1c.08.28.16.53.22.77h0c.06-.24.15-.5.24-.77l.35-1h.29l-.74,2.08Z"/><polygon class="cls-4" points="213.18 463.37 212.37 463.37 212.37 464.12 213.27 464.12 213.27 464.34 212.1 464.34 212.1 462.26 213.22 462.26 213.22 462.49 212.37 462.49 212.37 463.15 213.18 463.15 213.18 463.37"/><rect class="cls-3" x="214.13" y="463.41" width="0.76" height="0.2"/><polygon class="cls-3" points="215.87 462.26 216.99 462.26 216.99 462.49 216.14 462.49 216.14 463.18 216.92 463.18 216.92 463.4 216.14 463.4 216.14 464.34 215.87 464.34 215.87 462.26"/><path class="cls-3" d="M218.5,463.93c0,.16,0,.29,0,.41h-.24l0-.24h0a.54.54,0,0,1-.49.27c-.23,0-.51-.13-.51-.65v-.87h.27v.82c0,.28.09.48.33.48a.4.4,0,0,0,.36-.25.59.59,0,0,0,0-.14v-.91h.27Z"/><path class="cls-3" d="M219.28,462.49v.36h.39v.21h-.39v.8c0,.18.05.29.2.29l.16,0v.21a.7.7,0,0,1-.24,0,.38.38,0,0,1-.29-.11.55.55,0,0,1-.11-.39v-.81h-.23v-.21H219v-.27Z"/><path class="cls-3" d="M221.22,463.93c0,.16,0,.29,0,.41H221l0-.24h0a.56.56,0,0,1-.49.27c-.24,0-.52-.13-.52-.65v-.87h.27v.82c0,.28.09.48.34.48a.39.39,0,0,0,.35-.25.32.32,0,0,0,0-.14v-.91h.27Z"/><path class="cls-3" d="M221.67,463.31c0-.17,0-.32,0-.46h.24v.29h0a.44.44,0,0,1,.42-.32h.07v.25h-.1a.38.38,0,0,0-.36.35.53.53,0,0,0,0,.13v.79h-.27Z"/><path class="cls-3" d="M223.71,464a2,2,0,0,0,0,.36h-.25l0-.19h0a.53.53,0,0,1-.45.22.42.42,0,0,1-.46-.42c0-.36.32-.56.9-.56v0a.3.3,0,0,0-.34-.34.69.69,0,0,0-.39.11l-.06-.19a1,1,0,0,1,.49-.12c.46,0,.57.31.57.61Zm-.27-.4c-.29,0-.63,0-.63.34a.24.24,0,0,0,.26.25.37.37,0,0,0,.36-.25.19.19,0,0,0,0-.08Z"/><polygon class="cls-3" points="225.07 462.49 224.44 462.49 224.44 462.27 225.98 462.27 225.98 462.49 225.34 462.49 225.34 464.34 225.07 464.34 225.07 462.49"/><rect class="cls-3" x="226.72" y="463.41" width="0.76" height="0.2"/><path class="cls-3" d="M228.46,462.29a4.78,4.78,0,0,1,.57,0,1.17,1.17,0,0,1,.84.26.93.93,0,0,1,.3.74,1.12,1.12,0,0,1-.3.81,1.32,1.32,0,0,1-.92.3,3.38,3.38,0,0,1-.49,0Zm.27,1.84H229a.79.79,0,0,0,.88-.88.73.73,0,0,0-.84-.8,1.19,1.19,0,0,0-.31,0Z"/><path class="cls-3" d="M230.68,463.64a.47.47,0,0,0,.5.52,1,1,0,0,0,.42-.08l.05.2a1.35,1.35,0,0,1-.5.09.7.7,0,0,1-.74-.75.73.73,0,0,1,.71-.81.63.63,0,0,1,.61.71c0,.05,0,.09,0,.12Zm.79-.19a.39.39,0,0,0-.37-.44.45.45,0,0,0-.42.44Z"/><path class="cls-3" d="M232.06,463.25c0-.15,0-.28,0-.4h.24v.24h0a.51.51,0,0,1,.47-.27.43.43,0,0,1,.42.3h0a.56.56,0,0,1,.17-.2.53.53,0,0,1,.32-.1c.2,0,.5.13.5.64v.88h-.27v-.84c0-.29-.11-.46-.32-.46a.36.36,0,0,0-.33.24.59.59,0,0,0,0,.14v.92H233v-.89c0-.24-.11-.41-.31-.41a.37.37,0,0,0-.34.27.51.51,0,0,0,0,.13v.9h-.27Z"/><path class="cls-3" d="M234.76,462.58a.18.18,0,0,1,0-.35.16.16,0,0,1,.17.17.17.17,0,0,1-.17.18Zm-.13.27h.28v1.49h-.28Z"/><path class="cls-5" d="M204.09,467.13c0-.29,0-.64,0-.9h0c-.07.24-.16.5-.26.79l-.37,1h-.2l-.34-1c-.1-.3-.18-.56-.24-.81h0c0,.26,0,.6,0,.92l-.06.89h-.26l.15-2.08h.34l.36,1c.08.26.15.49.21.71h0c.06-.21.13-.44.22-.71l.37-1h.34l.13,2.08h-.26Z"/><path class="cls-5" d="M205.15,467.38l-.21.66h-.28l.71-2.08h.32l.71,2.08h-.29l-.22-.66Zm.68-.21-.2-.59a3.82,3.82,0,0,1-.11-.38h0a2.54,2.54,0,0,1-.1.37l-.2.6Z"/><path class="cls-5" d="M206.7,466a3.83,3.83,0,0,1,.52-.05.84.84,0,0,1,.6.18.52.52,0,0,1,.16.39.54.54,0,0,1-.39.53h0c.16.05.25.2.31.42a3.16,3.16,0,0,0,.15.57h-.27a2.39,2.39,0,0,1-.14-.5c-.06-.29-.18-.39-.42-.4H207v.9h-.27Zm.27.94h.27c.29,0,.47-.15.47-.39s-.19-.39-.48-.39a1.06,1.06,0,0,0-.26,0Z"/><rect class="cls-5" x="208.36" y="465.96" width="0.27" height="2.08"/><path class="cls-5" d="M209.1,468V466h.29l.66,1.05a5.2,5.2,0,0,1,.37.68h0c0-.28,0-.53,0-.85V466h.25V468h-.27l-.66-1.06a5.91,5.91,0,0,1-.38-.69h0c0,.26,0,.52,0,.86V468Z"/><polygon class="cls-5" points="212.19 467.06 211.39 467.06 211.39 467.81 212.29 467.81 212.29 468.04 211.12 468.04 211.12 465.96 212.24 465.96 212.24 466.19 211.39 466.19 211.39 466.84 212.19 466.84 212.19 467.06"/><path class="cls-5" d="M214.87,467.94a1.76,1.76,0,0,1-.64.12,1.06,1.06,0,1,1,.06-2.12,1.18,1.18,0,0,1,.52.1l-.07.21a1.06,1.06,0,0,0-.46-.09.78.78,0,0,0-.83.84.77.77,0,0,0,.8.84.86.86,0,0,0,.36-.06v-.62h-.42V467h.68Z"/><path class="cls-5" d="M215.28,466a3.53,3.53,0,0,1,.52-.05.84.84,0,0,1,.6.18.52.52,0,0,1,.16.39.54.54,0,0,1-.39.53h0c.16.05.25.2.31.42a3.16,3.16,0,0,0,.15.57h-.27a1.88,1.88,0,0,1-.14-.5c-.06-.29-.18-.39-.42-.4h-.25v.9h-.27Zm.27.94h.27c.29,0,.47-.15.47-.39s-.2-.39-.48-.39a1.06,1.06,0,0,0-.26,0Z"/><path class="cls-5" d="M217.75,468.07a.94.94,0,0,1-.93-1.05,1,1,0,0,1,1-1.09,1,1,0,0,1,.94,1.05,1,1,0,0,1-1,1.09Zm0-.22c.42,0,.66-.39.66-.86s-.21-.84-.66-.84-.67.41-.67.86.24.84.66.84Z"/><path class="cls-5" d="M219.34,466v1.23c0,.47.2.66.48.66s.51-.2.51-.66V466h.26v1.21c0,.64-.33.9-.78.9s-.75-.24-.75-.88V466Z"/><path class="cls-5" d="M221.06,466a3.33,3.33,0,0,1,.52,0,.87.87,0,0,1,.58.17.57.57,0,0,1,.18.43.61.61,0,0,1-.16.45.85.85,0,0,1-.63.22h-.22V468h-.27Zm.27,1,.22,0c.33,0,.52-.16.52-.44s-.19-.41-.49-.41l-.25,0Z"/><rect class="cls-5" x="223.35" y="465.96" width="0.27" height="2.08"/><path class="cls-5" d="M224.09,468V466h.29l.67,1.05a6.74,6.74,0,0,1,.37.68h0a7.68,7.68,0,0,1,0-.85V466h.25V468h-.28l-.65-1.06a4.82,4.82,0,0,1-.39-.69h0c0,.26,0,.52,0,.86V468Z"/><path class="cls-5" d="M227.56,468a1.25,1.25,0,0,1-.54.1,1,1,0,0,1-1-1.05,1,1,0,0,1,1.09-1.09,1.09,1.09,0,0,1,.49.09l-.07.22a.94.94,0,0,0-.42-.09.77.77,0,0,0-.8.86.75.75,0,0,0,.79.83,1.12,1.12,0,0,0,.44-.08Z"/><path class="cls-5" d="M228,468.07a.18.18,0,0,1-.18-.19.18.18,0,0,1,.18-.2.19.19,0,0,1,.19.2.18.18,0,0,1-.19.19Z"/><rect class="cls-3" x="228.82" y="467.11" width="0.76" height="0.2"/><polygon class="cls-3" points="230.56 465.96 231.68 465.96 231.68 466.19 230.83 466.19 230.83 466.88 231.61 466.88 231.61 467.1 230.83 467.1 230.83 468.04 230.56 468.04 230.56 465.96"/><path class="cls-3" d="M233.19,467.63c0,.16,0,.29,0,.41H233l0-.25h0a.54.54,0,0,1-.49.28c-.23,0-.51-.13-.51-.65v-.87h.27v.82c0,.28.09.48.33.48a.4.4,0,0,0,.36-.25.59.59,0,0,0,0-.14v-.91h.27Z"/><path class="cls-3" d="M234,466.19v.36h.39v.2H234v.81c0,.18.05.29.2.29l.16,0v.2a.65.65,0,0,1-.24,0,.38.38,0,0,1-.29-.11.64.64,0,0,1-.11-.4v-.81h-.23v-.2h.23v-.28Z"/><path class="cls-3" d="M235.91,467.63c0,.16,0,.29,0,.41h-.24v-.25h0a.56.56,0,0,1-.49.28c-.24,0-.51-.13-.51-.65v-.87h.26v.82c0,.28.09.48.34.48a.38.38,0,0,0,.35-.25.32.32,0,0,0,0-.14v-.91h.27Z"/><path class="cls-3" d="M236.36,467c0-.17,0-.33,0-.46h.24v.29h0a.45.45,0,0,1,.42-.33h.07v.25H237a.38.38,0,0,0-.36.34.57.57,0,0,0,0,.13v.8h-.27Z"/><path class="cls-3" d="M238.4,467.68c0,.13,0,.26,0,.36h-.24l0-.19h0a.53.53,0,0,1-.45.22.42.42,0,0,1-.46-.43c0-.36.32-.56.9-.55v0a.32.32,0,0,0-.34-.35.71.71,0,0,0-.39.11l-.06-.18a.91.91,0,0,1,.49-.13c.46,0,.57.31.57.61Zm-.27-.4c-.29,0-.63,0-.63.33a.24.24,0,0,0,.26.26.37.37,0,0,0,.36-.25.28.28,0,0,0,0-.09Z"/><polygon class="cls-3" points="239.76 466.19 239.13 466.19 239.13 465.96 240.67 465.96 240.67 466.19 240.04 466.19 240.04 468.04 239.76 468.04 239.76 466.19"/><rect class="cls-3" x="241.41" y="467.11" width="0.76" height="0.2"/><path class="cls-3" d="M243.15,466a3.32,3.32,0,0,1,.57,0,1.17,1.17,0,0,1,.84.25,1,1,0,0,1,.3.75,1.12,1.12,0,0,1-.3.81,1.32,1.32,0,0,1-.92.29,3.55,3.55,0,0,1-.49,0Zm.27,1.84h.27a.8.8,0,0,0,.89-.88.74.74,0,0,0-.85-.8,1.24,1.24,0,0,0-.31,0Z"/><path class="cls-3" d="M245.37,467.34a.47.47,0,0,0,.51.52,1,1,0,0,0,.41-.08l.05.19a1.11,1.11,0,0,1-.5.1.69.69,0,0,1-.73-.75.73.73,0,0,1,.7-.81.63.63,0,0,1,.61.7.45.45,0,0,1,0,.13Zm.79-.2a.39.39,0,0,0-.37-.44.45.45,0,0,0-.42.44Z"/><path class="cls-3" d="M246.76,467c0-.16,0-.28,0-.4H247v.24h0a.51.51,0,0,1,.47-.28.45.45,0,0,1,.42.3h0a.64.64,0,0,1,.17-.19.46.46,0,0,1,.32-.11c.2,0,.5.13.5.65V468h-.27v-.85c0-.28-.11-.46-.32-.46a.34.34,0,0,0-.32.25.31.31,0,0,0,0,.13V468h-.26v-.9c0-.23-.11-.41-.31-.41a.39.39,0,0,0-.34.27.68.68,0,0,0,0,.14v.9h-.26Z"/><path class="cls-3" d="M249.45,466.27a.17.17,0,0,1-.17-.17.18.18,0,0,1,.18-.18.17.17,0,0,1,.17.18.16.16,0,0,1-.17.17Zm-.12.28h.27V468h-.27Z"/><path class="cls-3" d="M265.74,462.31a2.21,2.21,0,0,0,0,2.51h-.21a2,2,0,0,1-.4-1.25,2.06,2.06,0,0,1,.4-1.26Z"/><polygon class="cls-3" points="266.82 462.45 266.52 462.83 266.52 462.83 266.99 462.77 266.99 462.98 266.52 462.93 266.52 462.93 266.82 463.31 266.62 463.41 266.44 462.98 266.43 462.98 266.24 463.42 266.06 463.31 266.35 462.93 266.35 462.92 265.9 462.98 265.9 462.77 266.35 462.83 266.35 462.82 266.06 462.45 266.25 462.34 266.44 462.77 266.45 462.77 266.63 462.34 266.82 462.45"/><path class="cls-3" d="M267.14,464.82a2.21,2.21,0,0,0,0-2.51h.21a2,2,0,0,1,.41,1.26,2,2,0,0,1-.41,1.25Z"/><path class="cls-3" d="M268.84,464.45v-2.08h.3l.66,1.05a6.74,6.74,0,0,1,.37.68h0c0-.27,0-.53,0-.85v-.87h.25v2.08h-.27l-.66-1.05a6,6,0,0,1-.38-.7h0c0,.27,0,.52,0,.86v.89Z"/><path class="cls-3" d="M272.21,463.69a.73.73,0,0,1-.74.79.71.71,0,0,1-.72-.76.73.73,0,0,1,.74-.79.7.7,0,0,1,.72.76m-1.18,0c0,.32.19.57.45.57s.45-.24.45-.58-.12-.57-.44-.57-.46.3-.46.58"/><path class="cls-3" d="M272.88,462.6V463h.39v.2h-.39V464c0,.18.05.29.2.29l.16,0v.2a.65.65,0,0,1-.24,0,.38.38,0,0,1-.29-.11.57.57,0,0,1-.11-.39v-.82h-.23V463h.23v-.28Z"/><path class="cls-3" d="M274.25,464.45v-1.28h-.2V463h.2v-.07a.73.73,0,0,1,.17-.52.54.54,0,0,1,.37-.14.63.63,0,0,1,.23,0l0,.21a.37.37,0,0,0-.17,0c-.23,0-.29.2-.29.43V463h.36v.21h-.36v1.28Z"/><path class="cls-3" d="M275.12,463.42c0-.17,0-.32,0-.46h.24v.29h0a.45.45,0,0,1,.42-.32h.07v.26h-.09a.39.39,0,0,0-.37.35v.92h-.28Z"/><path class="cls-3" d="M277.45,463.69a.73.73,0,0,1-.74.79.71.71,0,0,1-.72-.76.73.73,0,0,1,.74-.79.7.7,0,0,1,.72.76m-1.18,0c0,.32.19.57.45.57s.45-.24.45-.58-.12-.57-.44-.57-.46.3-.46.58"/><path class="cls-3" d="M277.79,463.36c0-.16,0-.28,0-.4H278l0,.24h0a.51.51,0,0,1,.47-.27.44.44,0,0,1,.42.3h0a.69.69,0,0,1,.17-.2.5.5,0,0,1,.33-.1c.2,0,.49.13.49.64v.88h-.26v-.84c0-.29-.11-.46-.33-.46a.36.36,0,0,0-.32.24.59.59,0,0,0,0,.14v.92h-.27v-.9c0-.23-.1-.4-.31-.4a.38.38,0,0,0-.33.27.3.3,0,0,0,0,.13v.9h-.27Z"/><path class="cls-3" d="M281,462.4a3.33,3.33,0,0,1,.52,0,.87.87,0,0,1,.58.17.57.57,0,0,1,.18.43.61.61,0,0,1-.16.45.86.86,0,0,1-.63.22h-.22v.83H281Zm.27,1,.22,0c.33,0,.52-.16.52-.44s-.19-.41-.49-.41l-.25,0Z"/><path class="cls-3" d="M283.62,464.09a2,2,0,0,0,0,.36h-.24l0-.19h0a.57.57,0,0,1-.46.22.42.42,0,0,1-.45-.42c0-.37.32-.57.89-.56v0a.3.3,0,0,0-.34-.34.71.71,0,0,0-.39.11l-.06-.19a1,1,0,0,1,.49-.12.53.53,0,0,1,.57.6Zm-.26-.4c-.3,0-.64,0-.64.33a.24.24,0,0,0,.26.26.37.37,0,0,0,.36-.25.31.31,0,0,0,0-.08Z"/><path class="cls-3" d="M284.06,463.36c0-.16,0-.28,0-.4h.24l0,.24h0a.55.55,0,0,1,.49-.27c.2,0,.52.12.52.63v.89h-.27v-.86c0-.24-.09-.44-.34-.44a.4.4,0,0,0-.37.28.45.45,0,0,0,0,.12v.9h-.27Z"/><path class="cls-3" d="M286.08,462.6V463h.39v.2h-.39V464c0,.18.05.29.2.29l.16,0v.2a.65.65,0,0,1-.24,0,.38.38,0,0,1-.29-.11.62.62,0,0,1-.11-.39v-.82h-.23V463h.23v-.28Z"/><path class="cls-3" d="M288.1,463.69a.73.73,0,0,1-.74.79.7.7,0,0,1-.71-.76.73.73,0,0,1,.73-.79.7.7,0,0,1,.72.76m-1.18,0c0,.32.19.57.45.57s.45-.24.45-.58-.12-.57-.44-.57-.46.3-.46.58"/><path class="cls-3" d="M288.45,463.36c0-.16,0-.28,0-.4h.24l0,.24h0a.55.55,0,0,1,.49-.27c.2,0,.52.12.52.63v.89h-.27v-.86c0-.24-.09-.44-.34-.44a.4.4,0,0,0-.37.28.45.45,0,0,0,0,.12v.9h-.27Z"/><path class="cls-3" d="M290.31,463.75a.47.47,0,0,0,.51.52.87.87,0,0,0,.41-.08l0,.2a1.3,1.3,0,0,1-.5.09.69.69,0,0,1-.73-.75.72.72,0,0,1,.7-.8.63.63,0,0,1,.61.7.41.41,0,0,1,0,.12Zm.79-.19c0-.17-.07-.44-.37-.44a.45.45,0,0,0-.42.44Z"/><path class="cls-3" d="M292.35,462.26h.27v.94h0a.53.53,0,0,1,.5-.27c.38,0,.63.3.63.76a.7.7,0,0,1-.67.79.53.53,0,0,1-.5-.28h0v.25h-.23c0-.1,0-.26,0-.39Zm.27,1.59a.34.34,0,0,0,0,.1.42.42,0,0,0,.41.32c.28,0,.45-.23.45-.58s-.15-.55-.45-.55a.44.44,0,0,0-.41.33s0,.07,0,.12Z"/><path class="cls-3" d="M294.1,463.42c0-.17,0-.32,0-.46h.24v.29h0a.44.44,0,0,1,.42-.32h.07v.26h-.09a.39.39,0,0,0-.37.35v.92h-.28Z"/><path class="cls-3" d="M295.23,463.75a.48.48,0,0,0,.51.52.89.89,0,0,0,.42-.08l0,.2a1.26,1.26,0,0,1-.5.09.69.69,0,0,1-.73-.75.72.72,0,0,1,.7-.8.63.63,0,0,1,.62.7c0,.05,0,.09,0,.12Zm.79-.19a.38.38,0,0,0-.37-.44.45.45,0,0,0-.42.44Z"/><path class="cls-3" d="M297.67,464.09c0,.13,0,.26,0,.36h-.24l0-.19h0a.57.57,0,0,1-.46.22.42.42,0,0,1-.45-.42c0-.37.32-.57.89-.56v0a.3.3,0,0,0-.34-.34.74.74,0,0,0-.39.11l-.06-.19a1,1,0,0,1,.49-.12.53.53,0,0,1,.57.6Zm-.26-.4c-.3,0-.63,0-.63.33a.23.23,0,0,0,.25.26.36.36,0,0,0,.36-.25.31.31,0,0,0,0-.08Z"/><path class="cls-3" d="M298.38,463.64h0l.13-.17L299,463h.33l-.58.61.66.88H299l-.52-.72-.13.16v.56h-.27v-2.19h.27Z"/><path class="cls-3" d="M300.84,462.26v1.8c0,.14,0,.29,0,.39h-.24v-.26h0a.53.53,0,0,1-.5.29.68.68,0,0,1-.64-.75.71.71,0,0,1,.67-.8.48.48,0,0,1,.45.22h0v-.89Zm-.27,1.3a.52.52,0,0,0,0-.11.38.38,0,0,0-.38-.31c-.29,0-.45.25-.45.57s.15.55.44.55a.39.39,0,0,0,.39-.32.43.43,0,0,0,0-.12Z"/><path class="cls-3" d="M302.64,463.69a.73.73,0,0,1-.75.79.71.71,0,0,1-.71-.76.73.73,0,0,1,.74-.79.7.7,0,0,1,.72.76m-1.18,0c0,.32.18.57.45.57s.45-.24.45-.58-.13-.57-.44-.57-.46.3-.46.58"/><path class="cls-3" d="M303.07,463l.2.75c0,.17.08.32.11.48h0c0-.15.08-.31.14-.47l.24-.76H304l.23.74c0,.18.1.34.13.49h0a3.26,3.26,0,0,1,.11-.48l.21-.75H305l-.48,1.49h-.24l-.23-.71a4.43,4.43,0,0,1-.13-.49h0c0,.17-.08.33-.13.49l-.24.71h-.25l-.45-1.49Z"/><path class="cls-3" d="M305.23,463.36c0-.16,0-.28,0-.4h.24l0,.24h0a.55.55,0,0,1,.49-.27c.2,0,.52.12.52.63v.89h-.27v-.86c0-.24-.09-.44-.34-.44a.4.4,0,0,0-.37.28.45.45,0,0,0,0,.12v.9h-.27Z"/><path class="cls-3" d="M306.87,464.29a.19.19,0,0,1,.19-.2.2.2,0,0,1,0,.39.18.18,0,0,1-.18-.19"/><path class="cls-3" d="M308.23,462.4a3.33,3.33,0,0,1,.52,0,.85.85,0,0,1,.58.17.57.57,0,0,1,.18.43.61.61,0,0,1-.16.45.85.85,0,0,1-.63.22h-.22v.83h-.27Zm.27,1,.22,0c.33,0,.52-.16.52-.44s-.19-.41-.49-.41l-.25,0Z"/><rect class="cls-3" x="309.85" y="462.26" width="0.27" height="2.19"/><path class="cls-3" d="M310.73,463.75a.47.47,0,0,0,.51.52.87.87,0,0,0,.41-.08l.05.2a1.3,1.3,0,0,1-.5.09.69.69,0,0,1-.73-.75.72.72,0,0,1,.7-.8.63.63,0,0,1,.61.7.41.41,0,0,1,0,.12Zm.79-.19c0-.17-.07-.44-.37-.44a.45.45,0,0,0-.42.44Z"/><path class="cls-3" d="M313.16,464.09a1.94,1.94,0,0,0,0,.36h-.25l0-.19h0a.53.53,0,0,1-.45.22.42.42,0,0,1-.46-.42c0-.37.32-.57.9-.56v0a.3.3,0,0,0-.34-.34.71.71,0,0,0-.39.11l-.06-.19a1,1,0,0,1,.49-.12c.45,0,.56.31.56.6Zm-.26-.4c-.29,0-.63,0-.63.33a.24.24,0,0,0,.26.26.37.37,0,0,0,.36-.25.25.25,0,0,0,0-.08Z"/><path class="cls-3" d="M313.57,464.17a.73.73,0,0,0,.36.11c.19,0,.28-.1.28-.22s-.07-.2-.27-.27-.4-.25-.4-.42a.46.46,0,0,1,.51-.44.72.72,0,0,1,.37.09l-.07.2a.53.53,0,0,0-.3-.09c-.16,0-.25.09-.25.2s.09.18.28.26.39.22.39.44-.2.45-.55.45a.9.9,0,0,1-.42-.1Z"/><path class="cls-3" d="M315,463.75a.48.48,0,0,0,.52.52.87.87,0,0,0,.41-.08l.05.2a1.3,1.3,0,0,1-.5.09.69.69,0,0,1-.73-.75.72.72,0,0,1,.69-.8.63.63,0,0,1,.62.7.41.41,0,0,1,0,.12Zm.8-.19a.39.39,0,0,0-.38-.44.44.44,0,0,0-.41.44Z"/><path class="cls-3" d="M265.18,468.14v-1.28H265v-.21h.2v-.07a.73.73,0,0,1,.17-.52.54.54,0,0,1,.37-.14.61.61,0,0,1,.23.05l0,.21a.35.35,0,0,0-.17,0c-.23,0-.29.2-.29.43v.08h.36v.21h-.36v1.28Z"/><path class="cls-3" d="M267.36,467.39a.73.73,0,0,1-.74.79.72.72,0,0,1-.72-.77.73.73,0,0,1,.74-.79.71.71,0,0,1,.72.77m-1.18,0c0,.33.19.58.45.58s.45-.25.45-.58-.12-.57-.44-.57-.46.29-.46.57"/><rect class="cls-3" x="267.7" y="465.96" width="0.27" height="2.19"/><rect class="cls-3" x="268.43" y="465.96" width="0.27" height="2.19"/><path class="cls-3" d="M270.51,467.39a.73.73,0,0,1-.75.79.72.72,0,0,1-.71-.77.73.73,0,0,1,.74-.79.71.71,0,0,1,.72.77m-1.18,0c0,.33.18.58.45.58s.45-.25.45-.58-.13-.57-.44-.57-.46.29-.46.57"/><path class="cls-3" d="M270.94,466.65l.19.76a3.15,3.15,0,0,1,.11.47h0c0-.15.09-.3.14-.47l.24-.76h.23l.23.75c.05.18.1.33.13.48h0a3.58,3.58,0,0,1,.11-.48l.21-.75h.27l-.48,1.49h-.24l-.23-.71a3.51,3.51,0,0,1-.13-.49h0a4.93,4.93,0,0,1-.13.49l-.25.71h-.24l-.45-1.49Z"/><path class="cls-3" d="M274.07,466.3v.35h.39v.21h-.39v.8c0,.19.06.29.21.29h.15l0,.2a.75.75,0,0,1-.24,0,.38.38,0,0,1-.3-.12.59.59,0,0,1-.1-.39v-.81h-.23v-.21h.23v-.27Z"/><path class="cls-3" d="M274.77,466H275v.93h0a.44.44,0,0,1,.19-.19.51.51,0,0,1,.28-.08c.2,0,.52.13.52.64v.88h-.28v-.85c0-.24-.09-.44-.34-.44a.39.39,0,0,0-.36.27.23.23,0,0,0,0,.12v.9h-.27Z"/><path class="cls-3" d="M276.63,467.45a.47.47,0,0,0,.51.52,1,1,0,0,0,.41-.08l.05.19a1.27,1.27,0,0,1-.5.1.7.7,0,0,1-.73-.76.72.72,0,0,1,.7-.8.62.62,0,0,1,.61.7.45.45,0,0,1,0,.13Zm.79-.2a.38.38,0,0,0-.37-.43.44.44,0,0,0-.42.43Z"/><path class="cls-3" d="M278,467.87a.8.8,0,0,0,.36.1c.2,0,.29-.09.29-.22s-.08-.19-.28-.27-.39-.24-.39-.42a.46.46,0,0,1,.51-.44.75.75,0,0,1,.37.09l-.07.2a.63.63,0,0,0-.3-.09c-.16,0-.25.09-.25.21s.09.18.28.25.39.23.39.45-.21.45-.55.45a.87.87,0,0,1-.42-.11Z"/><path class="cls-3" d="M279.39,467.45a.48.48,0,0,0,.51.52,1,1,0,0,0,.42-.08l0,.19a1.22,1.22,0,0,1-.5.1.7.7,0,0,1-.73-.76.72.72,0,0,1,.7-.8.63.63,0,0,1,.62.7c0,.06,0,.1,0,.13Zm.79-.2a.38.38,0,0,0-.37-.43.44.44,0,0,0-.42.43Z"/><path class="cls-3" d="M281.44,467.06c0-.16,0-.28,0-.4h.24l0,.24h0a.54.54,0,0,1,.49-.28c.2,0,.52.12.52.64v.88h-.27v-.86c0-.24-.09-.44-.34-.44a.4.4,0,0,0-.37.28.53.53,0,0,0,0,.13v.89h-.27Z"/><path class="cls-3" d="M284.39,467.73c0,.16,0,.3,0,.41h-.25v-.24h0a.55.55,0,0,1-.49.28c-.23,0-.51-.14-.51-.66v-.87h.27v.83c0,.28.08.47.33.47a.39.39,0,0,0,.36-.25.44.44,0,0,0,0-.13v-.92h.27Z"/><path class="cls-3" d="M284.84,467.06c0-.16,0-.28,0-.4h.24v.24h0a.5.5,0,0,1,.47-.28.44.44,0,0,1,.42.3h0a.64.64,0,0,1,.17-.19.5.5,0,0,1,.33-.11c.2,0,.49.13.49.65v.87h-.26v-.84c0-.29-.11-.46-.32-.46a.37.37,0,0,0-.33.25.51.51,0,0,0,0,.13v.92h-.27v-.89c0-.24-.1-.41-.31-.41a.37.37,0,0,0-.33.28.25.25,0,0,0,0,.13v.89h-.27Z"/><path class="cls-3" d="M287.41,466h.27v.93h0a.54.54,0,0,1,.5-.27c.38,0,.63.31.63.76a.71.71,0,0,1-.67.8.53.53,0,0,1-.5-.28h0v.24h-.23c0-.1,0-.25,0-.38Zm.27,1.59a.34.34,0,0,0,0,.1.42.42,0,0,0,.41.31c.28,0,.45-.23.45-.57s-.15-.55-.45-.55a.44.44,0,0,0-.41.33s0,.07,0,.11Z"/><path class="cls-3" d="M289.31,467.45a.49.49,0,0,0,.52.52,1,1,0,0,0,.41-.08l.05.19a1.27,1.27,0,0,1-.5.1.7.7,0,0,1-.73-.76.72.72,0,0,1,.69-.8.63.63,0,0,1,.62.7.45.45,0,0,1,0,.13Zm.8-.2a.39.39,0,0,0-.38-.43.44.44,0,0,0-.41.43Z"/><path class="cls-3" d="M290.71,467.12c0-.18,0-.33,0-.47h.24v.3h0a.46.46,0,0,1,.42-.33h.07v.25h-.09a.38.38,0,0,0-.37.34v.92h-.27Z"/><path class="cls-3" d="M291.68,467.87a.73.73,0,0,0,.36.1c.19,0,.28-.09.28-.22s-.07-.19-.27-.27-.4-.24-.4-.42a.46.46,0,0,1,.51-.44.72.72,0,0,1,.37.09l-.07.2a.59.59,0,0,0-.3-.09c-.16,0-.25.09-.25.21s.09.18.28.25.39.23.39.45-.2.45-.55.45a.9.9,0,0,1-.42-.11Z"/><path class="cls-3" d="M293.91,466.3v.35h.39v.21h-.39v.8c0,.19,0,.29.21.29h.15v.2a.63.63,0,0,1-.23,0,.38.38,0,0,1-.3-.12.59.59,0,0,1-.1-.39v-.81h-.23v-.21h.23v-.27Z"/><path class="cls-3" d="M295.94,467.39a.73.73,0,0,1-.75.79.71.71,0,0,1-.71-.77.73.73,0,0,1,.74-.79.71.71,0,0,1,.72.77m-1.18,0c0,.33.18.58.45.58a.52.52,0,0,0,.45-.58c0-.26-.13-.57-.45-.57s-.45.29-.45.57"/><path class="cls-3" d="M296.93,467.14c0-.19,0-.34,0-.49h.24v.26h0a.59.59,0,0,1,.53-.29.68.68,0,0,1,.63.76.71.71,0,0,1-.68.8.5.5,0,0,1-.45-.24h0v.81h-.27Zm.27.4a.41.41,0,0,0,0,.11.42.42,0,0,0,.41.32c.28,0,.45-.24.45-.58s-.16-.55-.44-.55a.47.47,0,0,0-.43.44Z"/><path class="cls-3" d="M298.68,467.12c0-.18,0-.33,0-.47h.24v.3h0a.45.45,0,0,1,.42-.33h.07v.25h-.09a.37.37,0,0,0-.36.34.57.57,0,0,0,0,.13v.79h-.28Z"/><path class="cls-3" d="M300,466.24a.16.16,0,0,1-.17.16.16.16,0,0,1-.16-.16.17.17,0,0,1,.17-.18.16.16,0,0,1,.16.18m-.3.41H300v1.49h-.28Z"/><path class="cls-3" d="M300.42,467.06c0-.16,0-.28,0-.4h.24l0,.24h0a.57.57,0,0,1,.5-.28c.2,0,.52.12.52.64v.88h-.27v-.86c0-.24-.09-.44-.34-.44a.4.4,0,0,0-.37.28.53.53,0,0,0,0,.13v.89h-.28Z"/><path class="cls-3" d="M302.45,466.3v.35h.39v.21h-.39v.8c0,.19.05.29.2.29h.16v.2a.7.7,0,0,1-.24,0,.34.34,0,0,1-.29-.12.54.54,0,0,1-.11-.39v-.81H302v-.21h.23v-.27Z"/><path class="cls-3" d="M304.09,466.24a.16.16,0,0,1-.17.16.15.15,0,0,1-.16-.16.17.17,0,0,1,.17-.18.16.16,0,0,1,.16.18m-.3.41h.28v1.49h-.28Z"/><path class="cls-3" d="M304.51,467.06c0-.16,0-.28,0-.4h.24l0,.24h0a.57.57,0,0,1,.5-.28c.2,0,.52.12.52.64v.88h-.27v-.86c0-.24-.09-.44-.34-.44a.4.4,0,0,0-.37.28.53.53,0,0,0,0,.13v.89h-.28Z"/><path class="cls-3" d="M307.63,468.14v-.54h-.93v-.18l.89-1.28h.29v1.25h.28v.21h-.28v.54Zm0-.75v-.67c0-.11,0-.21,0-.32h0a2.67,2.67,0,0,1-.17.3l-.49.68h.66Z"/><path class="cls-3" d="M310.17,468.09a1,1,0,0,1-.43.09.71.71,0,0,1-.74-.76.77.77,0,0,1,.8-.8.9.9,0,0,1,.38.08l-.06.21a.63.63,0,0,0-.32-.07.56.56,0,0,0,0,1.12.77.77,0,0,0,.33-.07Z"/><path class="cls-3" d="M311.82,467.39a.73.73,0,0,1-.74.79.72.72,0,0,1-.72-.77.73.73,0,0,1,.74-.79.71.71,0,0,1,.72.77m-1.18,0c0,.33.19.58.45.58s.45-.25.45-.58-.12-.57-.44-.57-.46.29-.46.57"/><rect class="cls-3" x="312.16" y="465.96" width="0.27" height="2.19"/><path class="cls-3" d="M314.24,467.39a.73.73,0,0,1-.75.79.72.72,0,0,1-.71-.77.73.73,0,0,1,.74-.79.71.71,0,0,1,.72.77m-1.18,0c0,.33.18.58.45.58s.45-.25.45-.58-.13-.57-.45-.57-.45.29-.45.57"/><path class="cls-3" d="M314.58,467.12c0-.18,0-.33,0-.47h.23l0,.3h0a.44.44,0,0,1,.41-.33h.08v.25h-.1a.38.38,0,0,0-.36.34.57.57,0,0,0,0,.13v.79h-.27Z"/><path class="cls-3" d="M315.55,467.87a.73.73,0,0,0,.36.1c.19,0,.29-.09.29-.22s-.08-.19-.28-.27-.39-.24-.39-.42a.46.46,0,0,1,.51-.44.7.7,0,0,1,.36.09l-.06.2a.67.67,0,0,0-.31-.09c-.16,0-.24.09-.24.21s.08.18.28.25.39.23.39.45-.21.45-.56.45a.9.9,0,0,1-.42-.11Z"/><path class="cls-3" d="M316.71,468a.18.18,0,0,1,.18-.19.18.18,0,0,1,.19.19.19.19,0,0,1-.19.2.18.18,0,0,1-.18-.2"/><path class="cls-6" d="M363.25,160.37a2.31,2.31,0,0,0-3.27-.08c-.68.65-3.41,1.23-5.79,1.73a16.59,16.59,0,0,0-5.12,1.32,84.35,84.35,0,0,0-9.8-8.36c-6.57-4.89-13.72-10-21.27-13.54.42-.27.85-.52,1.28-.75,2.5-1.3,5.39-2.05,10-2.74a51.85,51.85,0,0,1,9.55-.33,2.37,2.37,0,0,0,2.57-2.15,2.43,2.43,0,0,0-2-2.71,49.23,49.23,0,0,0-11.23,0c-5.12.77-8.4,1.63-11.39,3.2a45.75,45.75,0,0,0-5.37,3.55,10.6,10.6,0,0,0-4.82-5.29,65.5,65.5,0,0,0-9.82-3.87c-9.63-3-15.29-8.09-25.29-6.92a26.48,26.48,0,0,0-13,4.69c-6.45,4.68-14.3,11.45-22.64,12.07-5.42.4-11.57-3.58-15.65-6.22-1.22-.79-2.27-1.47-3.11-1.93l0,0c-5.13-2.75-6.91,3.38-7.5,6.88-3.64-.18-10.95-.61-14.56-1-2-.24-5.78-1.11-10.24-2.16-13.68-3.19-27.65-7.35-41.31-.83a2.32,2.32,0,0,0,2,4.19c12.47-5.91,25.78-1.76,38.27,1.15,4.59,1.08,8.43,2,10.76,2.25,3.29.39,9.62.77,13.56,1a56.65,56.65,0,0,0-.48,7.3c0,3.28.13,5.88.29,7.53a51.81,51.81,0,0,0-6.21-.34c-6.52,0-13,2.31-19.69,5.08-8.79,3.62-18.94,11.75-21.64,14.27l-23.89-.49a2.31,2.31,0,0,0-.2,4.62l25.29,1.17a2.41,2.41,0,0,0,1.72-.65c.26-.27,11.34-10.58,20.69-14.43,6.22-2.56,12.09-4.41,17.93-4.42A25,25,0,0,1,214.55,166,181,181,0,0,0,198,177.43a2.31,2.31,0,0,0-.34,3.25c.81,1,2.79,1.67,3.78.86,0,0,2-1.69,5-4a19.34,19.34,0,0,1,6.88,1.74c5.13,2.14,23.11,10.42,33.53,16.41s11,6.43,11,6.43a5.9,5.9,0,0,1-3.08,5.92c-4.88,1.65-6.93,2.48-12.73,0-1.4-.65-4.3-.59-5.39.71a6.69,6.69,0,0,0-1.22,3.8c-.15,3.81-2.26,8.58-7.81,8.31a5.05,5.05,0,0,0-3.58.8c-1.66.91-1.7,2.63-1.75,4.29a7.3,7.3,0,0,1-4.65,7.07c-1.26.19-1.93,1.84-1.76,3.11a2.33,2.33,0,0,0,2.63,2,9.36,9.36,0,0,0,8.14-7.31,14.68,14.68,0,0,0,.54-3.44c0-1.47,0-1.49,1.24-1.28a7.67,7.67,0,0,0,6.24-1.91,16.27,16.27,0,0,0,5.55-10.1c.1-1,.65-.74,2.43-.15a20,20,0,0,0,10.24.5c4.24-.93,8.46-3.4,9.58-6.75,1.09,3,3.56,4.85,10.57,3.37a10.29,10.29,0,0,0,6.62-4.18,7.65,7.65,0,0,0,5.07,1.42c3.3-.17,6.61-3.52,8.62-6a7.17,7.17,0,0,0,5.83,2.07c3.75-.2,6.85-2.74,8.71-4.93.25-.29.48-.59.7-.88,3.08,2.29,6.37,1.42,9.34-.3,3.59-2.09,7.66-6,8.08-7.43.32-4,.35-9.9.32-15.76a54.34,54.34,0,0,0,9.86.11h0a22.24,22.24,0,0,0,10.4-4.22h0l.12-.1c1.71-1.41,3.49-3.09,5.68-3.69h0c3.44-.93,8.1-1.06,10.69-3.51a2.31,2.31,0,0,0,.08-3.28M212.9,159.31c-1.48-4.24-.66-23.06,1.89-23.19,1,.53,1.89,1.15,2.81,1.75,4.61,3,11.55,7.47,18.5,7,9.42-.7,17.74-7.64,25-12.94a21.91,21.91,0,0,1,17.32-4h0c1.73.39,7.51,3,10.95,4.53h0c1.19.53,2.09.93,2.64,1.15h0c.47.19,1.66.56,3.15,1a71.08,71.08,0,0,1,9.07,3.2c5.88,3.26,1.08,9.74-4.29,9.89-8,.24-19.09-3.62-19.12-3.63a2.32,2.32,0,0,0-2.95,1.42c0,.14-.15,1.08-.15,1.08-7.41.63-13.92,6.24-16.27,8.51l-1.3-.29a30.63,30.63,0,0,0-3.86-.52,25.65,25.65,0,0,0-3.92,0h-.05c-7.53.64-14.11,6.4-16.38,8.61-2.22-.79-7.24-3.1-15.48-.12a53.63,53.63,0,0,0-7.62-3.5m63.75,42.14a5.21,5.21,0,0,1-4.57,5.08c-4.29.91-5.23,0-5.52-1.39h0c-.11-.52-.19-1.19-.27-1.86a48.07,48.07,0,0,1-.09-8.05c.25-5.41.14-9.93.53-13.82.45-4.51,5.44-8.48,9.87-7,.17,9.1,0,18,0,27.09m14.36-3c-1,1.48-4.16,5.17-6.51,5.29a2.94,2.94,0,0,1-3-1.66s.82-25.64.91-27.65c0-.65,2.77-2.8,3.19-3.08,2.3-1.5,5.37-2.45,5.94-.8h0c.46,1.45-.35,23.9-.51,27.9m15.62-9.27c-.09,4.34-1.26,10.23-7.54,10.55a4.58,4.58,0,0,1-3.47-1.45c.1-2.62.82-22.38.46-27.88a22.89,22.89,0,0,1,4.29-3.32c2.49-1.43,5.72-1.7,6.17-.39.15.44.21,4.46.21,10,0,4.5-.05,9.11-.12,12.46m14.93.32c-.29,1-2.19,2.93-4.19,4.29-.94.64-5,3.06-6.12.88-.22.12.35-26.35.15-29.34a44,44,0,0,1,6-3.17,4.75,4.75,0,0,1,4.33.05c0,5.19.11,26.27-.2,27.29"/></g><path class="cls-6" d="M291.24,165.77h0a11.43,11.43,0,0,0-5.39.18h0a11.5,11.5,0,0,0-3.21,1.94,35,35,0,0,0-3.66-3.52c-.41-.36-.89-.76-1.44-1.21h0c-.47-.39-1-.83-1.66-1.34h0l0,0h0a37.66,37.66,0,0,0-9.24-5.08c5.68-4.74,11.18-6.43,18.1-5.06a35.51,35.51,0,0,1,16.62,8.5c.59.5,1.09,1,1.52,1.35-3.5.54-6.13,2.82-9,5.25a8.63,8.63,0,0,0-2.66-1"/><path class="cls-6" d="M262.7,179.09a64.66,64.66,0,0,0-21.83-14.36c5.74-4.92,11.35-6.76,18.43-5.35A34.77,34.77,0,0,1,273,165.43h0l0,0h0c1.68,1.33,3.34,2.71,4.9,4.2a12.42,12.42,0,0,0-15.2,9.43"/><path class="cls-6" d="M261.3,191.65l-.87.22L253,193s-14.13-9.42-24-13.41c-8.43-3.42-16.86-6.27-16.86-6.27,11.81-9.73,20.76-7,25.23-5.18,3.06,1.21,20.13,8.67,24.33,17.39,0,0-.14,4.27-.43,6.1"/><path class="cls-6" d="M114.46,297.38H98.88L81.34,271.27H79.69v26.11H67v-65H85.83c14.6,0,23,7,23,19.19,0,9.93-5.26,16.46-14.8,18.41ZM83.39,262.31c8.08,0,12.37-3.5,12.37-10,0-6.33-4.29-9.64-12.18-9.64H79.69v19.67Z"/><polygon class="cls-6" points="135.69 243.42 135.69 257.83 158.09 257.83 158.09 268.84 135.69 268.84 135.69 286.37 158.97 286.37 158.97 297.38 123.03 297.38 123.03 232.41 158.97 232.41 158.97 243.42 135.69 243.42"/><path class="cls-6" d="M203,247.22c-3.31-3.71-6.43-5.27-10.23-5.27-5.45,0-9.44,3.12-9.44,7.21,0,3.51,2.23,5.36,9.83,8.19,14.42,5.25,18.7,9.93,18.7,20.25,0,12.57-9.25,21.34-22.4,21.34-9.64,0-16.66-3.8-22.5-12.37l8.18-7.89c2.92,5.65,7.79,8.67,13.83,8.67,5.65,0,9.84-3.9,9.84-9.16a7.76,7.76,0,0,0-3.8-6.72,50.65,50.65,0,0,0-8.77-3.7c-11.88-4.29-16-8.87-16-17.83,0-10.61,8.77-18.6,20.26-18.6a28.39,28.39,0,0,1,19.09,7.21Z"/><path class="cls-6" d="M289.19,264.84c0,19.1-15.29,34-34.68,34-19.67,0-34.77-14.71-34.77-33.8S235,231,254.51,231s34.68,14.9,34.68,33.89m-56.4,0c0,12.37,9.74,22.41,21.72,22.41s21.63-10,21.63-22.41-9.65-22.3-21.63-22.3-21.72,10-21.72,22.3"/><polygon class="cls-6" points="313.53 286.37 333.5 286.37 333.5 297.38 300.87 297.38 300.87 232.41 313.53 232.41 313.53 286.37"/><polygon class="cls-6" points="71.33 313.49 75 313.49 82.51 331.48 90.31 313.49 94.03 313.49 98.61 341.51 93.2 341.51 90.72 324.55 83.17 341.88 81.69 341.88 74.38 324.55 71.62 341.51 66.21 341.51 71.33 313.49"/><path class="cls-6" d="M113.38,335.69l-2.48,5.82h-5.69l11.92-28.1h4.05l11.55,28.1H127l-2.35-5.82Zm5.73-14.24-4,9.91H123Z"/><path class="cls-6" d="M160.92,341.51h-6.61l-7.42-11.06h-.71v11.06h-5.36V314h8c6.19,0,9.74,3,9.74,8.13,0,4.21-2.23,7-6.27,7.8Zm-13.17-14.86c3.43,0,5.24-1.48,5.24-4.25s-1.81-4.08-5.16-4.08h-1.65v8.33Z"/><rect class="cls-6" x="169.37" y="313.98" width="5.37" height="27.53"/><polygon class="cls-6" points="185.88 313.36 189.59 313.36 206.35 332.51 206.35 313.98 211.71 313.98 211.71 342.05 208 342.05 191.25 322.9 191.25 341.51 185.88 341.51 185.88 313.36"/><polygon class="cls-6" points="228.22 318.64 228.22 324.75 237.71 324.75 237.71 329.42 228.22 329.42 228.22 336.85 238.08 336.85 238.08 341.51 222.85 341.51 222.85 313.98 238.08 313.98 238.08 318.64 228.22 318.64"/><path class="cls-6" d="M289.7,326.78v.86c0,8.87-5.2,14.49-13.41,14.49s-14.44-6-14.44-14.24c0-8.42,6.15-14.53,14.61-14.53a13.16,13.16,0,0,1,11.8,6.48l-4.7,2.52a8,8,0,0,0-7.23-4.08c-5.11,0-8.95,4.12-8.95,9.61s3.84,9.37,9,9.37c3.91,0,6.8-2.31,7.22-5.82h-6.48v-4.66Z"/><path class="cls-6" d="M319.62,341.51H313l-7.43-11.06h-.7v11.06h-5.37V314h8c6.19,0,9.74,3,9.74,8.13,0,4.21-2.23,7-6.28,7.8Zm-13.16-14.86c3.42,0,5.24-1.48,5.24-4.25s-1.82-4.08-5.16-4.08h-1.65v8.33Z"/><path class="cls-6" d="M355.65,327.72A14.41,14.41,0,0,1,341,342.13c-8.33,0-14.73-6.24-14.73-14.32a14.72,14.72,0,0,1,29.43-.09m-23.9,0a9.19,9.19,0,1,0,9.2-9.44,9.36,9.36,0,0,0-9.2,9.44"/><path class="cls-6" d="M370.79,329.75c0,2.8.16,3.71.86,4.91a5.84,5.84,0,0,0,9.66,0c.7-1.2.87-2.11.87-4.91V314h5.36v16.84c0,3.22-.61,5.49-2,7.34a12.28,12.28,0,0,1-18.08,0c-1.4-1.85-2-4.12-2-7.34V314h5.37Z"/><path class="cls-6" d="M404.05,341.51h-5.37V314h8.05c3.59,0,5.53.58,7.26,2.11a8.73,8.73,0,0,1,2.81,6.52c0,5.57-3.34,8.71-9.29,8.71h-3.46Zm2.18-14.86c3.39,0,5-1.32,5-4s-1.69-4-5.37-4h-1.85v8Z"/><rect class="cls-6" x="425.19" y="339.65" width="10.25" height="2"/><polygon class="cls-6" points="424.95 337.3 424.95 335.91 432.08 329.68 425.18 329.68 425.18 327.68 435.63 327.68 435.63 329.06 428.5 335.3 435.43 335.3 435.43 337.3 424.95 337.3"/><path class="cls-5" d="M427.93,317.84a3.35,3.35,0,0,0-1.15,2.5,3.4,3.4,0,0,0,3.52,3.35,3.34,3.34,0,0,0,3.53-3.44,3.17,3.17,0,0,0-1.12-2.41h2.35a5.46,5.46,0,0,1,.6,2.5,5.3,5.3,0,0,1-5.34,5.41,5.4,5.4,0,0,1-5.37-5.46,5.14,5.14,0,0,1,.63-2.45Z"/><path class="cls-5" d="M434.42,314a1.21,1.21,0,1,1-1.2,1.2,1.21,1.21,0,0,1,1.2-1.2"/><polygon class="cls-6" points="360.77 271.11 378.3 232.41 392.04 232.41 360.7 302.66 329.6 232.41 343.43 232.41 360.77 271.11"/><polygon class="cls-6" points="71.33 313.49 75 313.49 82.51 331.48 90.31 313.49 94.03 313.49 98.61 341.51 93.2 341.51 90.72 324.55 83.17 341.88 81.69 341.88 74.38 324.55 71.62 341.51 66.21 341.51 71.33 313.49"/><path class="cls-6" d="M113.38,335.69l-2.48,5.82h-5.69l11.92-28.1h4.05l11.55,28.1H127l-2.35-5.82Zm5.73-14.24-4,9.91H123Z"/><path class="cls-6" d="M160.92,341.51h-6.61l-7.42-11.06h-.71v11.06h-5.36V314h8c6.19,0,9.74,3,9.74,8.13,0,4.21-2.23,7-6.27,7.8Zm-13.17-14.86c3.43,0,5.24-1.48,5.24-4.25s-1.81-4.08-5.16-4.08h-1.65v8.33Z"/><rect class="cls-6" x="169.37" y="313.98" width="5.37" height="27.53"/><polygon class="cls-6" points="185.88 313.36 189.59 313.36 206.35 332.51 206.35 313.98 211.71 313.98 211.71 342.05 208 342.05 191.25 322.9 191.25 341.51 185.88 341.51 185.88 313.36"/><polygon class="cls-6" points="228.22 318.64 228.22 324.75 237.71 324.75 237.71 329.42 228.22 329.42 228.22 336.85 238.08 336.85 238.08 341.51 222.85 341.51 222.85 313.98 238.08 313.98 238.08 318.64 228.22 318.64"/><path class="cls-6" d="M289.7,326.78v.86c0,8.87-5.2,14.49-13.41,14.49s-14.44-6-14.44-14.24c0-8.42,6.15-14.53,14.61-14.53a13.16,13.16,0,0,1,11.8,6.48l-4.7,2.52a8,8,0,0,0-7.23-4.08c-5.11,0-8.95,4.12-8.95,9.61s3.84,9.37,9,9.37c3.91,0,6.8-2.31,7.22-5.82h-6.48v-4.66Z"/><path class="cls-6" d="M319.62,341.51H313l-7.43-11.06h-.7v11.06h-5.37V314h8c6.19,0,9.74,3,9.74,8.13,0,4.21-2.23,7-6.28,7.8Zm-13.16-14.86c3.42,0,5.24-1.48,5.24-4.25s-1.82-4.08-5.16-4.08h-1.65v8.33Z"/><path class="cls-6" d="M355.65,327.72A14.41,14.41,0,0,1,341,342.13c-8.33,0-14.73-6.24-14.73-14.32a14.72,14.72,0,0,1,29.43-.09m-23.9,0a9.19,9.19,0,1,0,9.2-9.44,9.36,9.36,0,0,0-9.2,9.44"/><path class="cls-6" d="M370.79,329.75c0,2.8.16,3.71.86,4.91a5.84,5.84,0,0,0,9.66,0c.7-1.2.87-2.11.87-4.91V314h5.36v16.84c0,3.22-.61,5.49-2,7.34a12.28,12.28,0,0,1-18.08,0c-1.4-1.85-2-4.12-2-7.34V314h5.37Z"/><path class="cls-6" d="M404.05,341.51h-5.37V314h8.05c3.59,0,5.53.58,7.26,2.11a8.73,8.73,0,0,1,2.81,6.52c0,5.57-3.34,8.71-9.29,8.71h-3.46Zm2.18-14.86c3.39,0,5-1.32,5-4s-1.69-4-5.37-4h-1.85v8Z"/><rect class="cls-6" x="425.19" y="339.65" width="10.25" height="2"/><polygon class="cls-6" points="424.95 337.3 424.95 335.91 432.08 329.68 425.18 329.68 425.18 327.68 435.63 327.68 435.63 329.06 428.5 335.3 435.43 335.3 435.43 337.3 424.95 337.3"/><path class="cls-6" d="M427.93,317.84a3.35,3.35,0,0,0-1.15,2.5,3.4,3.4,0,0,0,3.52,3.35,3.34,3.34,0,0,0,3.53-3.44,3.17,3.17,0,0,0-1.12-2.41h2.35a5.46,5.46,0,0,1,.6,2.5,5.3,5.3,0,0,1-5.34,5.41,5.4,5.4,0,0,1-5.37-5.46,5.14,5.14,0,0,1,.63-2.45Z"/><path class="cls-6" d="M434.42,314a1.21,1.21,0,1,1-1.2,1.2,1.21,1.21,0,0,1,1.2-1.2"/><polygon class="cls-6" points="412.39 243.42 412.39 257.83 434.79 257.83 434.79 268.84 412.39 268.84 412.39 286.37 435.67 286.37 435.67 297.38 399.73 297.38 399.73 232.41 435.67 232.41 435.67 243.42 412.39 243.42"/></svg>