<svg id="Layer_1" data-name="Layer 1" xmlns="http://www.w3.org/2000/svg" xmlns:xlink="http://www.w3.org/1999/xlink" viewBox="0 0 400 234"><defs><style>.cls-1{fill:url(#Degradado_sin_nombre_81);}.cls-2{fill:url(#Degradado_sin_nombre_81-2);}.cls-3{fill:#000517;}</style><linearGradient id="Degradado_sin_nombre_81" x1="51.04" y1="171.66" x2="200.48" y2="171.66" gradientUnits="userSpaceOnUse"><stop offset="0.15" stop-color="#00eed5"/><stop offset="0.38" stop-color="#3ebbd7"/><stop offset="0.81" stop-color="#ab62db"/><stop offset="1" stop-color="#d63edc"/></linearGradient><linearGradient id="Degradado_sin_nombre_81-2" x1="2.39" y1="53.91" x2="200.48" y2="53.91" xlink:href="#Degradado_sin_nombre_81"/></defs><title>Artboard 1</title><path class="cls-1" d="M0,0H0M0,0Z"/><path class="cls-2" d="M0,0H0M0,0Z"/><path class="cls-3" d="M0,0Z"/><path class="cls-3" d="M0,0ZM0,0Z"/><path class="cls-3" d="M0,0ZM0,0Z"/><path class="cls-3" d="M0,0Z"/><path class="cls-3" d="M0,0ZM0,0Z"/><path class="cls-3" d="M0,0Z"/><path class="cls-3" d="M0,0Z"/><path class="cls-3" d="M0,0Z"/><path class="cls-3" d="M0,0ZM0,0Z"/><path class="cls-3" d="M0,0ZM0,0Z"/><path class="cls-3" d="M0,0Z"/><path class="cls-3" d="M0,0ZM0,0Z"/><path class="cls-3" d="M0,0ZM0,0Z"/><path class="cls-3" d="M0,0Z"/><path class="cls-3" d="M0,0ZM0,0ZM0,0Z"/><path class="cls-3" d="M0,0Z"/><path class="cls-3" d="M0,0Z"/><path class="cls-3" d="M0,0Z"/><path class="cls-3" d="M0,0Z"/><path class="cls-3" d="M0,0ZM0,0Z"/><path class="cls-3" d="M0,0Z"/><path class="cls-3" d="M0,0Z"/><path class="cls-3" d="M0,0ZM0,0Z"/><path class="cls-3" d="M0,0Z"/><path class="cls-3" d="M0,0Z"/><path class="cls-3" d="M0,0Z"/><path class="cls-3" d="M0,0Z"/><path class="cls-3" d="M0,0Z"/><path class="cls-3" d="M0,0Z"/><path class="cls-3" d="M0,0ZM0,0Z"/></svg>