<?xml version="1.0" encoding="utf-8"?>
<!-- Generator: Adobe Illustrator 24.0.3, SVG Export Plug-In . SVG Version: 6.00 Build 0)  -->
<svg version="1.1" id="Layer_1" xmlns="http://www.w3.org/2000/svg" xmlns:xlink="http://www.w3.org/1999/xlink" x="0px" y="0px"
	 viewBox="0 0 120 120" style="enable-background:new 0 0 120 120;" xml:space="preserve">
<style type="text/css">
	.st0{fill:#FFFFFF;}
</style>
<g>
	<rect x="0.27" y="0.25" class="st0" width="119.91" height="119.91"/>
	<rect x="8.54" y="8.52" width="28.94" height="4.13"/>
	<rect x="49.89" y="8.52" width="4.13" height="4.13"/>
	<rect x="58.16" y="8.52" width="4.13" height="4.13"/>
	<rect x="66.43" y="8.52" width="4.13" height="4.13"/>
	<rect x="82.97" y="8.52" width="28.94" height="4.13"/>
	<rect x="8.54" y="12.66" width="4.13" height="4.13"/>
	<rect x="33.35" y="12.66" width="4.13" height="4.13"/>
	<rect x="49.89" y="12.66" width="8.27" height="4.13"/>
	<rect x="66.43" y="12.66" width="4.13" height="4.13"/>
	<rect x="74.7" y="12.66" width="4.13" height="4.13"/>
	<rect x="82.97" y="12.66" width="4.13" height="4.13"/>
	<rect x="107.77" y="12.66" width="4.13" height="4.13"/>
	<rect x="8.54" y="16.79" width="4.13" height="4.13"/>
	<rect x="16.81" y="16.79" width="12.4" height="4.13"/>
	<rect x="33.35" y="16.79" width="4.13" height="4.13"/>
	<rect x="54.02" y="16.79" width="16.54" height="4.13"/>
	<rect x="74.7" y="16.79" width="4.13" height="4.13"/>
	<rect x="82.97" y="16.79" width="4.13" height="4.13"/>
	<rect x="91.24" y="16.79" width="12.4" height="4.13"/>
	<rect x="107.77" y="16.79" width="4.13" height="4.13"/>
	<rect x="8.54" y="20.93" width="4.13" height="4.13"/>
	<rect x="16.81" y="20.93" width="12.4" height="4.13"/>
	<rect x="33.35" y="20.93" width="4.13" height="4.13"/>
	<rect x="41.62" y="20.93" width="4.13" height="4.13"/>
	<rect x="49.89" y="20.93" width="4.13" height="4.13"/>
	<rect x="82.97" y="20.93" width="4.13" height="4.13"/>
	<rect x="91.24" y="20.93" width="12.4" height="4.13"/>
	<rect x="107.77" y="20.93" width="4.13" height="4.13"/>
	<rect x="8.54" y="25.06" width="4.13" height="4.13"/>
	<rect x="16.81" y="25.06" width="12.4" height="4.13"/>
	<rect x="33.35" y="25.06" width="4.13" height="4.13"/>
	<rect x="54.02" y="25.06" width="4.13" height="4.13"/>
	<rect x="66.43" y="25.06" width="4.13" height="4.13"/>
	<rect x="82.97" y="25.06" width="4.13" height="4.13"/>
	<rect x="91.24" y="25.06" width="12.4" height="4.13"/>
	<rect x="107.77" y="25.06" width="4.13" height="4.13"/>
	<rect x="8.54" y="29.19" width="4.13" height="4.13"/>
	<rect x="33.35" y="29.19" width="4.13" height="4.13"/>
	<rect x="41.62" y="29.19" width="4.13" height="4.13"/>
	<rect x="62.29" y="29.19" width="8.27" height="4.13"/>
	<rect x="82.97" y="29.19" width="4.13" height="4.13"/>
	<rect x="107.77" y="29.19" width="4.13" height="4.13"/>
	<rect x="8.54" y="33.33" width="28.94" height="4.13"/>
	<rect x="41.62" y="33.33" width="4.13" height="4.13"/>
	<rect x="49.89" y="33.33" width="4.13" height="4.13"/>
	<rect x="58.16" y="33.33" width="4.13" height="4.13"/>
	<rect x="66.43" y="33.33" width="4.13" height="4.13"/>
	<rect x="74.7" y="33.33" width="4.13" height="4.13"/>
	<rect x="82.97" y="33.33" width="28.94" height="4.13"/>
	<rect x="41.62" y="37.46" width="12.4" height="4.13"/>
	<rect x="58.16" y="37.46" width="8.27" height="4.13"/>
	<rect x="70.56" y="37.46" width="8.27" height="4.13"/>
	<rect x="12.68" y="41.6" width="8.27" height="4.13"/>
	<rect x="33.35" y="41.6" width="4.13" height="4.13"/>
	<rect x="49.89" y="41.6" width="8.27" height="4.13"/>
	<rect x="62.29" y="41.6" width="4.13" height="4.13"/>
	<rect x="74.7" y="41.6" width="4.13" height="4.13"/>
	<rect x="82.97" y="41.6" width="8.27" height="4.13"/>
	<rect x="95.37" y="41.6" width="4.13" height="4.13"/>
	<rect x="16.81" y="45.73" width="8.27" height="4.13"/>
	<rect x="41.62" y="45.73" width="4.13" height="4.13"/>
	<rect x="49.89" y="45.73" width="4.13" height="4.13"/>
	<rect x="58.16" y="45.73" width="4.13" height="4.13"/>
	<rect x="70.56" y="45.73" width="4.13" height="4.13"/>
	<rect x="78.83" y="45.73" width="12.4" height="4.13"/>
	<rect x="95.37" y="45.73" width="4.13" height="4.13"/>
	<rect x="103.64" y="45.73" width="8.27" height="4.13"/>
	<rect x="25.08" y="49.87" width="12.4" height="4.13"/>
	<rect x="41.62" y="49.87" width="37.21" height="4.13"/>
	<rect x="82.97" y="49.87" width="4.13" height="4.13"/>
	<rect x="95.37" y="49.87" width="8.27" height="4.13"/>
	<rect x="107.77" y="49.87" width="4.13" height="4.13"/>
	<rect x="29.22" y="54" width="4.13" height="4.13"/>
	<rect x="41.62" y="54" width="4.13" height="4.13"/>
	<rect x="49.89" y="54" width="12.4" height="4.13"/>
	<rect x="66.43" y="54" width="8.27" height="4.13"/>
	<rect x="78.83" y="54" width="12.4" height="4.13"/>
	<rect x="95.37" y="54" width="4.13" height="4.13"/>
	<rect x="12.68" y="58.14" width="8.27" height="4.13"/>
	<rect x="25.08" y="58.14" width="4.13" height="4.13"/>
	<rect x="33.35" y="58.14" width="4.13" height="4.13"/>
	<rect x="41.62" y="58.14" width="12.4" height="4.13"/>
	<rect x="58.16" y="58.14" width="16.54" height="4.13"/>
	<rect x="78.83" y="58.14" width="8.27" height="4.13"/>
	<rect x="107.77" y="58.14" width="4.13" height="4.13"/>
	<rect x="12.68" y="62.27" width="4.13" height="4.13"/>
	<rect x="20.95" y="62.27" width="8.27" height="4.13"/>
	<rect x="37.49" y="62.27" width="8.27" height="4.13"/>
	<rect x="49.89" y="62.27" width="8.27" height="4.13"/>
	<rect x="66.43" y="62.27" width="12.4" height="4.13"/>
	<rect x="82.97" y="62.27" width="8.27" height="4.13"/>
	<rect x="103.64" y="62.27" width="8.27" height="4.13"/>
	<rect x="8.54" y="66.41" width="8.27" height="4.13"/>
	<rect x="20.95" y="66.41" width="4.13" height="4.13"/>
	<rect x="29.22" y="66.41" width="12.4" height="4.13"/>
	<rect x="49.89" y="66.41" width="12.4" height="4.13"/>
	<rect x="70.56" y="66.41" width="4.13" height="4.13"/>
	<rect x="95.37" y="66.41" width="8.27" height="4.13"/>
	<rect x="107.77" y="66.41" width="4.13" height="4.13"/>
	<rect x="16.81" y="70.54" width="4.13" height="4.13"/>
	<rect x="25.08" y="70.54" width="4.13" height="4.13"/>
	<rect x="37.49" y="70.54" width="4.13" height="4.13"/>
	<rect x="45.75" y="70.54" width="20.67" height="4.13"/>
	<rect x="82.97" y="70.54" width="8.27" height="4.13"/>
	<rect x="8.54" y="74.68" width="33.08" height="4.13"/>
	<rect x="58.16" y="74.68" width="4.13" height="4.13"/>
	<rect x="70.56" y="74.68" width="24.81" height="4.13"/>
	<rect x="103.64" y="74.68" width="4.13" height="4.13"/>
	<rect x="41.62" y="78.81" width="4.13" height="4.13"/>
	<rect x="49.89" y="78.81" width="4.13" height="4.13"/>
	<rect x="66.43" y="78.81" width="4.13" height="4.13"/>
	<rect x="74.7" y="78.81" width="4.13" height="4.13"/>
	<rect x="91.24" y="78.81" width="4.13" height="4.13"/>
	<rect x="99.51" y="78.81" width="4.13" height="4.13"/>
	<rect x="107.77" y="78.81" width="4.13" height="4.13"/>
	<rect x="8.54" y="82.95" width="28.94" height="4.13"/>
	<rect x="58.16" y="82.95" width="4.13" height="4.13"/>
	<rect x="66.43" y="82.95" width="4.13" height="4.13"/>
	<rect x="74.7" y="82.95" width="4.13" height="4.13"/>
	<rect x="82.97" y="82.95" width="4.13" height="4.13"/>
	<rect x="91.24" y="82.95" width="8.27" height="4.13"/>
	<rect x="107.77" y="82.95" width="4.13" height="4.13"/>
	<rect x="8.54" y="87.08" width="4.13" height="4.13"/>
	<rect x="33.35" y="87.08" width="4.13" height="4.13"/>
	<rect x="49.89" y="87.08" width="4.13" height="4.13"/>
	<rect x="62.29" y="87.08" width="16.54" height="4.13"/>
	<rect x="91.24" y="87.08" width="4.13" height="4.13"/>
	<rect x="107.77" y="87.08" width="4.13" height="4.13"/>
	<rect x="8.54" y="91.22" width="4.13" height="4.13"/>
	<rect x="16.81" y="91.22" width="12.4" height="4.13"/>
	<rect x="33.35" y="91.22" width="4.13" height="4.13"/>
	<rect x="49.89" y="91.22" width="4.13" height="4.13"/>
	<rect x="66.43" y="91.22" width="33.08" height="4.13"/>
	<rect x="103.64" y="91.22" width="8.27" height="4.13"/>
	<rect x="8.54" y="95.35" width="4.13" height="4.13"/>
	<rect x="16.81" y="95.35" width="12.4" height="4.13"/>
	<rect x="33.35" y="95.35" width="4.13" height="4.13"/>
	<rect x="45.75" y="95.35" width="4.13" height="4.13"/>
	<rect x="54.02" y="95.35" width="28.94" height="4.13"/>
	<rect x="87.1" y="95.35" width="20.67" height="4.13"/>
	<rect x="8.54" y="99.48" width="4.13" height="4.13"/>
	<rect x="16.81" y="99.48" width="12.4" height="4.13"/>
	<rect x="33.35" y="99.48" width="4.13" height="4.13"/>
	<rect x="41.62" y="99.48" width="4.13" height="4.13"/>
	<rect x="54.02" y="99.48" width="16.54" height="4.13"/>
	<rect x="91.24" y="99.48" width="4.13" height="4.13"/>
	<rect x="103.64" y="99.48" width="8.27" height="4.13"/>
	<rect x="8.54" y="103.62" width="4.13" height="4.13"/>
	<rect x="33.35" y="103.62" width="4.13" height="4.13"/>
	<rect x="41.62" y="103.62" width="8.27" height="4.13"/>
	<rect x="54.02" y="103.62" width="4.13" height="4.13"/>
	<rect x="62.29" y="103.62" width="8.27" height="4.13"/>
	<rect x="74.7" y="103.62" width="4.13" height="4.13"/>
	<rect x="87.1" y="103.62" width="8.27" height="4.13"/>
	<rect x="8.54" y="107.75" width="28.94" height="4.13"/>
	<rect x="45.75" y="107.75" width="4.13" height="4.13"/>
	<rect x="54.02" y="107.75" width="8.27" height="4.13"/>
	<rect x="66.43" y="107.75" width="4.13" height="4.13"/>
	<rect x="74.7" y="107.75" width="4.13" height="4.13"/>
	<rect x="95.37" y="107.75" width="4.13" height="4.13"/>
	<rect x="107.77" y="107.75" width="4.13" height="4.13"/>
</g>
</svg>
