<svg id="Layer_1" data-name="Layer 1" xmlns="http://www.w3.org/2000/svg" xmlns:xlink="http://www.w3.org/1999/xlink" viewBox="0 0 400 234"><defs><style>.cls-1{fill:url(#Degradado_sin_nombre_81);}.cls-2{fill:url(#Degradado_sin_nombre_81-2);}.cls-3{fill:#000517;}</style><linearGradient id="Degradado_sin_nombre_81" x1="51.04" y1="171.66" x2="200.48" y2="171.66" gradientUnits="userSpaceOnUse"><stop offset="0.15" stop-color="#00eed5"/><stop offset="0.38" stop-color="#3ebbd7"/><stop offset="0.81" stop-color="#ab62db"/><stop offset="1" stop-color="#d63edc"/></linearGradient><linearGradient id="Degradado_sin_nombre_81-2" x1="2.39" y1="53.91" x2="200.48" y2="53.91" xlink:href="#Degradado_sin_nombre_81"/></defs><title>logosoar--</title><path class="cls-1" d="M189.39,119l-65.61,49.5-3.47,2.63L56.75,219,74.48,119H189.39m11.09-4H71.13L51,228.35l75.15-56.68h0l74.29-56.06V115Z"/><path class="cls-2" d="M14.83,16.56,183,97.7H73.18L14.83,16.56M2.39,6.11,71.13,101.7H200.48L2.39,6.11Z"/><path class="cls-3" d="M100.11,137.41a21.33,21.33,0,0,1,1.14-5,15.19,15.19,0,0,1,3.22-5.31,18.2,18.2,0,0,1,6.06-4.22,24.12,24.12,0,0,1,9.77-1.7h35.25v15H120.3a4.77,4.77,0,0,0-2.8.71,2.71,2.71,0,0,0-1.18,1.66,3,3,0,0,0,.28,1.94,2.92,2.92,0,0,0,1.61,1.47l28.72,11.66a18.55,18.55,0,0,1,5.54,3.84,18.24,18.24,0,0,1,3.32,4.69,16.37,16.37,0,0,1,1.51,5,24.19,24.19,0,0,1,.15,4.93,19.65,19.65,0,0,1-1,5,14.31,14.31,0,0,1-3.17,5.26,17.91,17.91,0,0,1-6.12,4.12,25.29,25.29,0,0,1-9.9,1.66H102v-15h35.45a4.81,4.81,0,0,0,2.7-.66,2.51,2.51,0,0,0,1.18-1.56,3.12,3.12,0,0,0-.23-1.9,3.17,3.17,0,0,0-1.57-1.56l-28.9-11.38a20.66,20.66,0,0,1-5.36-3.93,18.7,18.7,0,0,1-3.36-4.74,17.08,17.08,0,0,1-1.61-5.07A21.69,21.69,0,0,1,100.11,137.41Z"/><path class="cls-3" d="M167.11,166.13V143.57a22.07,22.07,0,0,1,1.75-8.81,23.17,23.17,0,0,1,4.74-7.11,21.5,21.5,0,0,1,7.06-4.74,22.76,22.76,0,0,1,8.82-1.7H218.1a21.48,21.48,0,0,1,15.49,6.44,23.17,23.17,0,0,1,4.74,7.11,22.07,22.07,0,0,1,1.75,8.81v22.56a20.9,20.9,0,0,1-1.75,8.53,22.59,22.59,0,0,1-11.7,11.7,20.94,20.94,0,0,1-8.53,1.76H189.48a22.33,22.33,0,0,1-15.88-6.5,22.72,22.72,0,0,1-4.74-7A20.9,20.9,0,0,1,167.11,166.13Zm57.53,0V143.57a6.83,6.83,0,0,0-1.9-5,6.21,6.21,0,0,0-4.64-1.94H189.48a6.78,6.78,0,0,0-4.88,1.94,6.55,6.55,0,0,0-2,5v22.56a5.84,5.84,0,0,0,2,4.5,7,7,0,0,0,4.88,1.85H218.1a6.4,6.4,0,0,0,4.64-1.85A6.06,6.06,0,0,0,224.64,166.13Z"/><path class="cls-3" d="M308.56,121.21h8.29v66.91H301.4V176.74h-36a62.87,62.87,0,0,0-2.85,11.38H246.62a70.11,70.11,0,0,1,3.32-16.07,84.1,84.1,0,0,1,16.87-29.42,73.07,73.07,0,0,1,12.32-11.19A59.65,59.65,0,0,1,293.25,124,44.13,44.13,0,0,1,308.56,121.21Zm-7.16,15.54a30,30,0,0,0-8.67,3.27,43.86,43.86,0,0,0-7.77,5.59,55.6,55.6,0,0,0-6.78,7.3,78.2,78.2,0,0,0-5.68,8.39h28.9Z"/><path class="cls-3" d="M378.86,188.12l-11.73-24.93H344.24v24.93H328.79V147.46H374a7.78,7.78,0,0,0,3-.52,5.06,5.06,0,0,0,1.89-1.28,4.71,4.71,0,0,0,.95-1.66,5.76,5.76,0,0,0,.28-1.75,6.71,6.71,0,0,0-.28-1.85,4.7,4.7,0,0,0-1-1.8,5.94,5.94,0,0,0-1.9-1.38,7.06,7.06,0,0,0-3-.56h-45.2V121.21h45.14a24,24,0,0,1,9,1.7,19.57,19.57,0,0,1,7,4.74,23.72,23.72,0,0,1,4.16,6.92,21.17,21.17,0,0,1,1.42,7.68,20.5,20.5,0,0,1-1.42,7.34,24.65,24.65,0,0,1-4.16,7.06,17.59,17.59,0,0,1-2.88,2.66,17.34,17.34,0,0,1-3.36,1.89l12.68,26.92Z"/><path class="cls-3" d="M108.28,211h-4.72l-1.08,2.9h-.84l3.86-10.36h.84l3.86,10.36h-.84Zm-.3-.8-2-5.52-2.07,5.52Z"/><path class="cls-3" d="M120.3,211.08a3,3,0,0,1-3.37,3,3.51,3.51,0,0,1-3.47-2.37l.76-.23a2.69,2.69,0,0,0,2.71,1.8c1.55,0,2.57-.84,2.57-2.17s-1-1.62-2.47-2-3.15-.88-3.15-2.85a2.9,2.9,0,0,1,3-2.89,3,3,0,0,1,3,2.16l-.77.2a2.13,2.13,0,0,0-2.22-1.57,2.09,2.09,0,0,0-2.17,2.1c0,1.26,1,1.67,2.56,2.08C118.64,208.68,120.3,209.17,120.3,211.08Z"/><path class="cls-3" d="M130.31,213.07v.79H124.6V203.5h5.58v.8h-4.8v3.8h4.46v.79h-4.46v4.18Z"/><path class="cls-3" d="M141,211.08a3,3,0,0,1-3.38,3,3.5,3.5,0,0,1-3.46-2.37l.75-.23a2.7,2.7,0,0,0,2.71,1.8c1.56,0,2.58-.84,2.58-2.17s-1-1.62-2.47-2-3.16-.88-3.16-2.85a2.9,2.9,0,0,1,3-2.89,3,3,0,0,1,3,2.16l-.77.2a2.13,2.13,0,0,0-2.22-1.57,2.1,2.1,0,0,0-2.18,2.1c0,1.26,1,1.67,2.56,2.08C139.34,208.68,141,209.17,141,211.08Z"/><path class="cls-3" d="M155.31,208.68a5.23,5.23,0,1,1-5.24-5.36A5.27,5.27,0,0,1,155.31,208.68Zm-.78,0a4.45,4.45,0,1,0-4.46,4.57A4.48,4.48,0,0,0,154.53,208.68Z"/><path class="cls-3" d="M166,213.86l-2.71-4.37a5.93,5.93,0,0,1-.61,0h-2.1v4.34h-.78V203.5h2.88c2.27,0,3.63,1.11,3.63,3a2.75,2.75,0,0,1-2.19,2.82l2.79,4.52Zm-3.32-5.12c1.82,0,2.84-.76,2.84-2.22s-1-2.22-2.84-2.22h-2.1v4.44Z"/><path class="cls-3" d="M171.82,203.5v10.36H171V203.5Z"/><path class="cls-3" d="M182.61,211h-4.72l-1.08,2.9H176l3.86-10.36h.84l3.86,10.36h-.84Zm-.3-.8-2.05-5.52-2.07,5.52Z"/><path class="cls-3" d="M201.25,211h-4.72l-1.08,2.9h-.85l3.87-10.36h.84l3.86,10.36h-.84Zm-.3-.8-2-5.52-2.08,5.52Z"/><path class="cls-3" d="M217.66,203.5v10.36h-.78V205l-4.2,6.24h-.37L208.1,205v8.88h-.78V203.5h.78l4.4,6.48,4.38-6.48Z"/><path class="cls-3" d="M229.46,211c0,1.89-1.48,2.87-3.38,2.87h-3.53V203.5h3.3c1.91,0,3.08,1.12,3.08,2.68a2.24,2.24,0,0,1-1.54,2.17v.05A2.55,2.55,0,0,1,229.46,211Zm-6.12-6.69v3.8h2.51c1.47,0,2.3-.8,2.3-1.92s-.83-1.88-2.3-1.88Zm5.34,6.69c0-1.48-1.14-2.12-2.6-2.12h-2.74v4.2h2.74C227.54,213.07,228.68,212.45,228.68,211Z"/><path class="cls-3" d="M234.56,203.5v10.36h-.8V203.5Z"/><path class="cls-3" d="M245.16,213.07v.79h-5.72V203.5H245v.8h-4.79v3.8h4.45v.79h-4.45v4.18Z"/><path class="cls-3" d="M257.47,203.5v10.36h-.78l-6.31-9v9h-.78V203.5h.78l6.31,9v-9Z"/><path class="cls-3" d="M268.37,204.3h-2.84v9.56h-.79V204.3h-2.82v-.8h6.45Z"/><path class="cls-3" d="M277.68,211H273l-1.08,2.9H271l3.86-10.36h.84l3.86,10.36h-.84Zm-.3-.8-2.05-5.52-2.07,5.52Z"/><path class="cls-3" d="M289.36,213.07v.79h-5.61V203.5h.8v9.57Z"/><path class="cls-3" d="M308.65,211.65l.67.45a5.19,5.19,0,0,1-4.06,2,5.37,5.37,0,0,1,0-10.73,5.14,5.14,0,0,1,4.06,2l-.67.42a4.35,4.35,0,0,0-3.39-1.59,4.57,4.57,0,0,0,0,9.14A4.33,4.33,0,0,0,308.65,211.65Z"/><path class="cls-3" d="M323.41,208.68a5.23,5.23,0,1,1-5.24-5.36A5.27,5.27,0,0,1,323.41,208.68Zm-.79,0a4.45,4.45,0,1,0-4.45,4.57A4.47,4.47,0,0,0,322.62,208.68Z"/><path class="cls-3" d="M337.43,208.26v5.6h-.52l-.19-2.19a4.29,4.29,0,0,1-4.07,2.38,5.37,5.37,0,0,1,0-10.73,5.1,5.1,0,0,1,4.05,2l-.66.42a4.38,4.38,0,0,0-3.39-1.59,4.57,4.57,0,0,0,0,9.14c2.56,0,4-1.83,4-4.2h-3.71v-.79Z"/><path class="cls-3" d="M350,203.5v10.36h-.78l-6.31-9v9h-.78V203.5H343l6.31,9v-9Z"/><path class="cls-3" d="M355.73,203.5v10.36h-.8V203.5Z"/><path class="cls-3" d="M366.62,204.3h-2.84v9.56H363V204.3h-2.83v-.8h6.45Z"/><path class="cls-3" d="M371.86,203.5v10.36h-.8V203.5Z"/><path class="cls-3" d="M384.58,203.5l-3.86,10.36h-.85L376,203.5h.84l3.44,9.23,3.44-9.23Z"/><path class="cls-3" d="M393.74,211H389l-1.08,2.9h-.84L391,203.5h.84l3.87,10.36h-.85Zm-.29-.8-2.06-5.52-2.07,5.52Z"/></svg>