<svg id="Layer_1" data-name="Layer 1" xmlns="http://www.w3.org/2000/svg" xmlns:xlink="http://www.w3.org/1999/xlink" viewBox="0 0 400 233.88"><defs><style>.cls-1{fill:url(#Degradado_sin_nombre_81);}.cls-2{fill:url(#Degradado_sin_nombre_81-2);}.cls-3{fill:#fff;}</style><linearGradient id="Degradado_sin_nombre_81" x1="51.89" y1="171.16" x2="200.25" y2="171.16" gradientUnits="userSpaceOnUse"><stop offset="0.15" stop-color="#00eed5"/><stop offset="0.38" stop-color="#3ebbd7"/><stop offset="0.81" stop-color="#ab62db"/><stop offset="1" stop-color="#d63edc"/></linearGradient><linearGradient id="Degradado_sin_nombre_81-2" x1="3.59" y1="54.26" x2="200.25" y2="54.26" xlink:href="#Degradado_sin_nombre_81"/></defs><title>logosoar-02</title><path class="cls-1" d="M189.15,118.87,124.08,168l-3.46,2.63-63,47.53,17.59-99.26h114m11.1-4H71.83L51.89,227.45l74.61-56.28h0l73.76-55.65v-.64Z"/><path class="cls-2" d="M16,17.26,182.76,97.71H73.88L16,17.26M3.59,6.81l68.24,94.9H200.25L3.59,6.81Z"/><path class="cls-3" d="M100.6,137.17a22,22,0,0,1,1.13-4.94,15.18,15.18,0,0,1,3.2-5.27,18,18,0,0,1,6-4.19,23.76,23.76,0,0,1,9.69-1.69h35v14.86h-35a4.71,4.71,0,0,0-2.77.71,2.7,2.7,0,0,0-1.18,1.65,3,3,0,0,0,.29,1.92,2.9,2.9,0,0,0,1.59,1.46l28.51,11.58a17.8,17.8,0,0,1,8.8,8.46,16.53,16.53,0,0,1,1.5,5,23.81,23.81,0,0,1,.15,4.89,19.6,19.6,0,0,1-1,4.94,14.16,14.16,0,0,1-3.15,5.22,17.6,17.6,0,0,1-6.07,4.1,25.16,25.16,0,0,1-9.83,1.64h-35V172.64h35.18a4.8,4.8,0,0,0,2.69-.66,2.53,2.53,0,0,0,1.17-1.55,3.09,3.09,0,0,0-.23-1.89,3.17,3.17,0,0,0-1.56-1.55L111.05,155.7a20.64,20.64,0,0,1-5.32-3.9,18.9,18.9,0,0,1-3.34-4.71,17.21,17.21,0,0,1-1.6-5A21.93,21.93,0,0,1,100.6,137.17Z"/><path class="cls-3" d="M167.12,165.67V143.28a21.94,21.94,0,0,1,1.74-8.75,22.69,22.69,0,0,1,4.71-7,21.11,21.11,0,0,1,7-4.71,22.37,22.37,0,0,1,8.75-1.69h28.41a21.32,21.32,0,0,1,15.38,6.4,22.69,22.69,0,0,1,4.71,7,21.94,21.94,0,0,1,1.74,8.75v22.39a20.74,20.74,0,0,1-1.74,8.47,22.38,22.38,0,0,1-11.62,11.62,20.81,20.81,0,0,1-8.47,1.74H189.33a21.87,21.87,0,0,1-8.75-1.74,22.2,22.2,0,0,1-7-4.7,22.46,22.46,0,0,1-4.71-6.92A20.74,20.74,0,0,1,167.12,165.67Zm57.11,0V143.28a6.82,6.82,0,0,0-1.88-4.94,6.22,6.22,0,0,0-4.61-1.93H189.33a6.8,6.8,0,0,0-4.85,1.93,6.54,6.54,0,0,0-2,4.94v22.39a5.79,5.79,0,0,0,2,4.47,6.94,6.94,0,0,0,4.85,1.84h28.41a6.34,6.34,0,0,0,4.61-1.84A6,6,0,0,0,224.23,165.67Z"/><path class="cls-3" d="M307.55,120h8.23V187.5H300.44V176H264.69a63.68,63.68,0,0,0-2.82,11.47H246.06a72.29,72.29,0,0,1,3.29-16.2,85.17,85.17,0,0,1,16.75-29.67,73.16,73.16,0,0,1,12.23-11.28,58.91,58.91,0,0,1,14-7.55A43.32,43.32,0,0,1,307.55,120Zm-7.11,15.68a29.41,29.41,0,0,0-8.61,3.29,43.25,43.25,0,0,0-7.71,5.64,55.14,55.14,0,0,0-6.73,7.36,80.33,80.33,0,0,0-5.65,8.46h28.7Z"/><path class="cls-3" d="M377.34,187.5l-11.65-24.74H343V187.5H327.63V147.14h44.88a7.66,7.66,0,0,0,3-.52,5,5,0,0,0,1.88-1.27,4.6,4.6,0,0,0,.94-1.64,5.76,5.76,0,0,0,.29-1.74,6.68,6.68,0,0,0-.29-1.84,4.63,4.63,0,0,0-1-1.79,5.86,5.86,0,0,0-1.89-1.36,6.76,6.76,0,0,0-3-.57H327.63V121.08h44.82a23.66,23.66,0,0,1,9,1.69,19.39,19.39,0,0,1,7,4.71,23.77,23.77,0,0,1,4.13,6.86A21.11,21.11,0,0,1,394,142a20.48,20.48,0,0,1-1.41,7.29,24.67,24.67,0,0,1-4.13,7,17.67,17.67,0,0,1-2.86,2.63,16.86,16.86,0,0,1-3.34,1.88l12.59,26.72Z"/><path class="cls-3" d="M108.72,210.18H104L103,213.06h-.84L106,202.77h.84l3.84,10.29h-.84Zm-.3-.79-2-5.48-2.06,5.48Z"/><path class="cls-3" d="M120.65,210.3a3,3,0,0,1-3.35,2.95,3.49,3.49,0,0,1-3.44-2.35l.75-.24a2.68,2.68,0,0,0,2.69,1.8c1.54,0,2.56-.84,2.56-2.16s-1-1.6-2.46-2-3.13-.88-3.13-2.84a2.88,2.88,0,0,1,3-2.86,2.93,2.93,0,0,1,3,2.14l-.76.19a2.12,2.12,0,0,0-2.2-1.55,2.08,2.08,0,0,0-2.16,2.08c0,1.25,1,1.66,2.54,2.07C119,207.92,120.65,208.4,120.65,210.3Z"/><path class="cls-3" d="M130.59,212.28v.78h-5.68V202.77h5.54v.8h-4.76v3.77h4.43v.78h-4.43v4.16Z"/><path class="cls-3" d="M141.2,210.3a3,3,0,0,1-3.35,2.95,3.49,3.49,0,0,1-3.44-2.35l.75-.24a2.67,2.67,0,0,0,2.69,1.8c1.54,0,2.55-.84,2.55-2.16s-1-1.6-2.45-2-3.13-.88-3.13-2.84a2.88,2.88,0,0,1,3-2.86,2.94,2.94,0,0,1,3,2.14l-.76.19a2.12,2.12,0,0,0-2.21-1.55,2.08,2.08,0,0,0-2.16,2.08c0,1.25,1,1.66,2.55,2.07C139.55,207.92,141.2,208.4,141.2,210.3Z"/><path class="cls-3" d="M155.41,207.92a5.2,5.2,0,1,1-5.2-5.32A5.23,5.23,0,0,1,155.41,207.92Zm-.78,0a4.42,4.42,0,1,0-4.42,4.54A4.44,4.44,0,0,0,154.63,207.92Z"/><path class="cls-3" d="M166,213.06l-2.69-4.34a5.93,5.93,0,0,1-.61,0H160.6v4.31h-.78V202.77h2.86c2.25,0,3.6,1.11,3.6,3a2.74,2.74,0,0,1-2.17,2.81l2.78,4.48Zm-3.3-5.08c1.81,0,2.83-.75,2.83-2.21s-1-2.2-2.83-2.2H160.6V208Z"/><path class="cls-3" d="M171.8,202.77v10.29H171V202.77Z"/><path class="cls-3" d="M182.51,210.18h-4.69l-1.07,2.88h-.84l3.84-10.29h.83l3.84,10.29h-.84Zm-.29-.79-2.05-5.48-2,5.48Z"/><path class="cls-3" d="M201,210.18h-4.68l-1.08,2.88h-.83l3.83-10.29h.84l3.83,10.29h-.84Zm-.29-.79-2-5.48-2.06,5.48Z"/><path class="cls-3" d="M217.31,202.77v10.29h-.78v-8.82l-4.17,6.2H212l-4.17-6.2v8.82H207V202.77h.78l4.36,6.44,4.35-6.44Z"/><path class="cls-3" d="M229,210.21c0,1.88-1.46,2.85-3.36,2.85h-3.5V202.77h3.28c1.89,0,3.06,1.12,3.06,2.66a2.23,2.23,0,0,1-1.53,2.16v0A2.53,2.53,0,0,1,229,210.21Zm-6.08-6.64v3.77h2.5c1.45,0,2.28-.79,2.28-1.91s-.83-1.86-2.28-1.86Zm5.31,6.64c0-1.47-1.14-2.1-2.59-2.1h-2.72v4.17h2.72C227.11,212.28,228.25,211.66,228.25,210.21Z"/><path class="cls-3" d="M234.08,202.77v10.29h-.79V202.77Z"/><path class="cls-3" d="M244.6,212.28v.78h-5.67V202.77h5.54v.8h-4.76v3.77h4.42v.78h-4.42v4.16Z"/><path class="cls-3" d="M256.83,202.77v10.29h-.78l-6.26-8.95v8.95H249V202.77h.78l6.26,8.95v-8.95Z"/><path class="cls-3" d="M267.65,203.57h-2.82v9.49h-.78v-9.49h-2.81v-.8h6.41Z"/><path class="cls-3" d="M276.89,210.18h-4.68l-1.08,2.88h-.83l3.83-10.29H275l3.83,10.29H278Zm-.29-.79-2-5.48-2.06,5.48Z"/><path class="cls-3" d="M288.49,212.28v.78h-5.57V202.77h.79v9.51Z"/><path class="cls-3" d="M307.64,210.87l.66.44a5.12,5.12,0,0,1-4,1.94,5.33,5.33,0,0,1,0-10.65,5.09,5.09,0,0,1,4,1.94l-.66.42a4.32,4.32,0,0,0-3.37-1.58,4.54,4.54,0,0,0,0,9.08A4.32,4.32,0,0,0,307.64,210.87Z"/><path class="cls-3" d="M322.29,207.92a5.2,5.2,0,1,1-5.2-5.32A5.23,5.23,0,0,1,322.29,207.92Zm-.78,0a4.42,4.42,0,1,0-4.42,4.54A4.44,4.44,0,0,0,321.51,207.92Z"/><path class="cls-3" d="M336.21,207.5v5.56h-.52l-.19-2.18a4.25,4.25,0,0,1-4,2.37,5.33,5.33,0,0,1,0-10.65,5.09,5.09,0,0,1,4,1.94l-.66.42a4.33,4.33,0,0,0-3.37-1.58,4.54,4.54,0,0,0,0,9.08c2.54,0,3.92-1.83,4-4.18h-3.69v-.78Z"/><path class="cls-3" d="M348.73,202.77v10.29H348l-6.26-8.95v8.95h-.78V202.77h.78l6.26,8.95v-8.95Z"/><path class="cls-3" d="M354.38,202.77v10.29h-.8V202.77Z"/><path class="cls-3" d="M365.19,203.57h-2.82v9.49h-.78v-9.49h-2.81v-.8h6.41Z"/><path class="cls-3" d="M370.39,202.77v10.29h-.79V202.77Z"/><path class="cls-3" d="M383,202.77l-3.84,10.29h-.84l-3.83-10.29h.84l3.41,9.17,3.42-9.17Z"/><path class="cls-3" d="M392.11,210.18h-4.68l-1.07,2.88h-.84l3.83-10.29h.84L394,213.06h-.83Zm-.29-.79-2-5.48-2.06,5.48Z"/></svg>